<svg width="132" height="132" viewBox="0 0 132 132" fill="none" xmlns="http://www.w3.org/2000/svg">
<rect width="132" height="132" rx="66" fill="white" fill-opacity="0.1"/>
<path d="M70.5455 37.4519H73.2727L76 41.1392V46.5428H74.15C74.0419 47.3012 73.6638 47.9952 73.0852 48.4973C72.5065 48.9993 71.7661 49.2758 71 49.2758C70.2339 49.2758 69.4935 48.9993 68.9148 48.4973C68.3362 47.9952 67.9581 47.3012 67.85 46.5428H63.2409C63.1328 47.3012 62.7547 47.9952 62.1761 48.4973C61.5974 48.9993 60.857 49.2758 60.0909 49.2758C59.3248 49.2758 58.5844 48.9993 58.0057 48.4973C57.4271 47.9952 57.049 47.3012 56.9409 46.5428H56V35.6337C56 35.3926 56.0958 35.1614 56.2663 34.9909C56.4368 34.8204 56.668 34.7246 56.9091 34.7246H69.6364C69.8775 34.7246 70.1087 34.8204 70.2792 34.9909C70.4497 35.1614 70.5455 35.3926 70.5455 35.6337V37.4519ZM70.5455 39.2701V41.9973H74.1818V41.7382L72.3564 39.2701H70.5455Z" fill="white"/>
<path d="M39.96 58.2051H38.5732L36.8252 59.3184V60.6172L38.4463 59.6016H38.4854V65.2754H39.96V58.2051ZM44.3447 65.373C46.1123 65.373 47.1865 64.0645 47.1865 61.7402C47.1865 59.4307 46.1074 58.1074 44.3447 58.1074C42.582 58.1074 41.5029 59.4307 41.5029 61.7402C41.5029 64.0547 42.5723 65.373 44.3447 65.373ZM43.0068 61.7402C43.0068 60.124 43.5293 59.3135 44.3447 59.3086C45.1602 59.3135 45.6875 60.124 45.6826 61.7402C45.6875 63.3711 45.165 64.1621 44.3447 64.1621C43.5244 64.1621 42.9971 63.3711 43.0068 61.7402ZM55.9854 63.2441L56.3857 62.0332C54.6182 61.4326 52.6699 60.8711 50.917 60.4756V57.668H49.5791V65.8027H50.917V61.7646C52.4795 62.1406 54.2324 62.6436 55.9854 63.2441ZM58.2998 64.2207L58.4951 65.4707C62.7529 65.0996 65.126 63.1221 65.8096 59.3574L64.5986 59.084C63.9248 62.3115 62.0156 63.8691 58.2998 64.2207ZM57.9678 59.1426C59.042 59.5527 60.0967 60.0508 61.1221 60.6465L61.7666 59.5137C60.7168 58.8984 59.6621 58.3955 58.5635 58L57.9678 59.1426ZM69.0225 59.416H71.1904V65.2754H72.6455V59.416H74.8135V58.2051H69.0225V59.416ZM75.1357 65.2754H76.5811V62.2578C76.5762 61.6084 77.0596 61.1543 77.7139 61.1543C77.9141 61.1543 78.1924 61.1885 78.3291 61.2324V59.9434C78.2021 59.9141 78.0166 59.8945 77.8701 59.8945C77.2744 59.8945 76.7812 60.2412 76.5908 60.8906H76.5322V59.9727H75.1357V65.2754ZM82.4307 63.0195C82.4307 63.7422 81.9326 64.1182 81.4053 64.123C80.8389 64.1182 80.4775 63.7275 80.4775 63.0977V59.9727H79.0322V63.3516C79.0322 64.5918 79.7598 65.3438 80.8193 65.3438C81.6201 65.3438 82.1914 64.9336 82.4307 64.3184H82.4893V65.2754H83.876V59.9727H82.4307V63.0195ZM87.3818 65.3828C88.7881 65.3779 89.6719 64.5527 89.7354 63.3516H88.3779C88.2852 63.9131 87.9092 64.2305 87.4014 64.2305C86.6982 64.2305 86.249 63.6445 86.249 62.6191C86.249 61.6133 86.708 61.0322 87.4014 61.0273C87.9482 61.0322 88.29 61.3936 88.3779 61.916H89.7354C89.6768 60.7002 88.749 59.9043 87.3818 59.9043C85.7754 59.9043 84.7793 61.0176 84.7842 62.6387C84.7793 64.2549 85.7559 65.3779 87.3818 65.3828ZM90.6338 65.2754H92.0791V63.5762L92.4844 63.1172L93.9443 65.2754H95.6436L93.5586 62.2676L95.5361 59.9727H93.876L92.1572 62.0039H92.0791V58.2051H90.6338V65.2754Z" fill="white"/>
<path d="M65.0137 69.9727H63.5195L65.043 72.6191L63.4609 75.2754H64.9648L66 73.4297L67.0547 75.2754H68.5391L66.9473 72.6191L68.5 69.9727H67.0059L66 71.8379L65.0137 69.9727Z" fill="white"/>
<path d="M36.7285 82.377H34.7871L32.3398 83.9355V85.7539L34.6094 84.332H34.6641V92.2754H36.7285V82.377ZM42.6621 92.4121C44.8906 92.4121 46.4082 90.9834 46.4082 88.9805C46.4082 87.0801 45.0547 85.7197 43.2363 85.7266C42.3682 85.7197 41.6162 86.0752 41.2539 86.5605H41.1719L41.4453 84.0586H45.8477V82.377H39.75L39.2168 88.0781H41.0762C41.3701 87.5244 41.8896 87.2441 42.6348 87.2441C43.6738 87.251 44.4189 87.9824 44.4121 89.0352C44.4189 90.0674 43.6875 90.792 42.6621 90.7852C41.8008 90.792 41.0967 90.2588 41.0488 89.4863H39.0527C39.0869 91.1953 40.5977 92.4121 42.6621 92.4121ZM51.6445 92.4121C54.1191 92.4121 55.623 90.5801 55.623 87.3262C55.623 84.0928 54.1123 82.2402 51.6445 82.2402C49.1768 82.2402 47.666 84.0928 47.666 87.3262C47.666 90.5664 49.1631 92.4121 51.6445 92.4121ZM49.7715 87.3262C49.7715 85.0635 50.5029 83.9287 51.6445 83.9219C52.7861 83.9287 53.5244 85.0635 53.5176 87.3262C53.5244 89.6094 52.793 90.7168 51.6445 90.7168C50.4961 90.7168 49.7578 89.6094 49.7715 87.3262ZM58.8496 91.2637H56.9082L56.2246 95.1602H57.6738L58.8496 91.2637ZM64.0859 92.4121C66.5605 92.4121 68.0645 90.5801 68.0645 87.3262C68.0645 84.0928 66.5537 82.2402 64.0859 82.2402C61.6182 82.2402 60.1074 84.0928 60.1074 87.3262C60.1074 90.5664 61.6045 92.4121 64.0859 92.4121ZM62.2129 87.3262C62.2129 85.0635 62.9443 83.9287 64.0859 83.9219C65.2275 83.9287 65.9658 85.0635 65.959 87.3262C65.9658 89.6094 65.2344 90.7168 64.0859 90.7168C62.9375 90.7168 62.1992 89.6094 62.2129 87.3262ZM73.3281 92.4121C75.8027 92.4121 77.3066 90.5801 77.3066 87.3262C77.3066 84.0928 75.7959 82.2402 73.3281 82.2402C70.8604 82.2402 69.3496 84.0928 69.3496 87.3262C69.3496 90.5664 70.8467 92.4121 73.3281 92.4121ZM71.4551 87.3262C71.4551 85.0635 72.1865 83.9287 73.3281 83.9219C74.4697 83.9287 75.208 85.0635 75.2012 87.3262C75.208 89.6094 74.4766 90.7168 73.3281 90.7168C72.1797 90.7168 71.4414 89.6094 71.4551 87.3262ZM82.5703 92.4121C85.0449 92.4121 86.5488 90.5801 86.5488 87.3262C86.5488 84.0928 85.0381 82.2402 82.5703 82.2402C80.1025 82.2402 78.5918 84.0928 78.5918 87.3262C78.5918 90.5664 80.0889 92.4121 82.5703 92.4121ZM80.6973 87.3262C80.6973 85.0635 81.4287 83.9287 82.5703 83.9219C83.7119 83.9287 84.4502 85.0635 84.4434 87.3262C84.4502 89.6094 83.7188 90.7168 82.5703 90.7168C81.4219 90.7168 80.6836 89.6094 80.6973 87.3262ZM98.1289 87.4902H89.3789V93.2871H90.9375V92.7402H96.502V93.2734H98.1289V87.4902ZM87.9707 84.7559L88.0801 86.2734C90.5342 86.1777 94.2188 86.0273 97.7188 85.8496C98.0674 86.2803 98.3545 86.6836 98.5527 87.0391L99.8789 86.041C99.1885 84.9199 97.6162 83.4092 96.3105 82.3496L95.1211 83.2109C95.5586 83.5869 96.0098 84.0107 96.4473 84.4482C94.875 84.5166 93.2754 84.5781 91.7988 84.626C92.4482 83.6553 93.125 82.5205 93.6855 81.4609L91.9629 80.9004C91.5186 82.0898 90.7393 83.5527 89.9941 84.6875C89.2627 84.7148 88.5791 84.7354 87.9707 84.7559ZM90.9375 91.3047V88.9258H96.502V91.3047H90.9375Z" fill="#2DF781"/>
</svg>
