<svg width="132" height="132" viewBox="0 0 132 132" fill="none" xmlns="http://www.w3.org/2000/svg">
<rect width="132" height="132" rx="66" fill="white" fill-opacity="0.1"/>
<path d="M42.8684 44.4336H37.2043C37.3752 44.2188 37.5314 43.999 37.6779 43.7793H43.6203V42.8223H38.2443C38.3664 42.5879 38.4836 42.3535 38.591 42.1191L37.4484 41.9434C37.0871 42.8467 36.4182 43.9062 35.427 44.7168C35.6955 44.8486 36.0959 45.1514 36.3156 45.4004C36.6086 45.127 36.8723 44.8438 37.1164 44.5459C37.048 45.1367 36.9699 45.791 36.8771 46.4453H35.3293V47.3926H36.7404C36.5939 48.3398 36.4377 49.2432 36.2961 49.9414L37.3801 50.0098C37.4094 49.8438 37.4436 49.668 37.4729 49.4824H41.3742C41.3254 49.6484 41.2766 49.7607 41.218 49.8242C41.1105 49.9365 41.0324 49.9756 40.8566 49.9707C40.6369 49.9756 40.2658 49.9707 39.7824 49.9219C39.9289 50.1514 40.0266 50.5078 40.0363 50.7227C40.5441 50.752 41.0471 50.7617 41.3547 50.7227C41.6867 50.6836 41.926 50.5957 42.1652 50.2832C42.2775 50.1367 42.3703 49.8926 42.4582 49.4824H43.7766V48.5449H42.6047C42.6437 48.2178 42.6779 47.8369 42.7121 47.3926H44.0305V46.4453H42.7756C42.8049 45.9863 42.8342 45.4785 42.8586 44.9121C42.8635 44.7754 42.8684 44.4385 42.8684 44.4336ZM37.6291 48.5449L37.8 47.3926H39.1965C39.1525 47.8027 39.0988 48.1934 39.0451 48.5449H37.6291ZM37.9318 46.4453C37.9807 46.0889 38.0295 45.7324 38.0734 45.3809H39.4016C39.3723 45.7227 39.3381 46.084 39.3039 46.4453H37.9318ZM40.0363 48.5449C40.09 48.1934 40.1389 47.8027 40.1877 47.3926H41.6623C41.6281 47.8467 41.5891 48.2275 41.55 48.5449H40.0363ZM40.2951 46.4453C40.3342 46.084 40.3732 45.7227 40.4025 45.3809H41.7746C41.76 45.7666 41.7404 46.1182 41.7209 46.4453H40.2951ZM47.2195 42.1875L46.1258 41.9043C45.7205 43.1396 44.9881 44.3359 44.1238 45.0684C44.3826 45.2246 44.8465 45.5859 45.0418 45.7617C45.5008 45.3076 45.9549 44.6973 46.3553 44.0137H48.4012V45.1855H45.6473V47.666H44.1531V48.6914H48.4012V50.7227H49.5047V48.6914H52.7664V47.666H49.5047V46.1914H52.034V45.1855H49.5047V44.0137H52.2586V42.998H46.8875C47.0096 42.7295 47.1219 42.4609 47.2195 42.1875ZM46.7215 47.666V46.1914H48.4012V47.666H46.7215ZM60.9945 43.6523H57.8012V41.9434H56.6879V43.6523H55.1693C55.3451 43.2178 55.5014 42.7637 55.6234 42.3047L54.5297 42.0605C54.1928 43.3594 53.5922 44.6533 52.85 45.4395C53.1234 45.5957 53.5873 45.9082 53.7973 46.0938C54.1098 45.708 54.4174 45.2344 54.6908 44.6973H56.6879V46.4258H54.1V47.4512H56.6879V49.4141H53.0062V50.4492H61.4828V49.4141H57.8012V47.4512H60.643V46.4258H57.8012V44.6973H60.9945V43.6523ZM69.6914 46.377H67.3477V45.6641H66.3125V46.377H65.3066C65.3848 46.2061 65.458 46.0254 65.5215 45.8496L64.5547 45.625C64.3301 46.3281 63.9004 47.0459 63.373 47.4902C63.627 47.6025 64.0371 47.8467 64.2324 47.998C64.4375 47.7783 64.6475 47.5146 64.8379 47.2168H66.3125V47.9492H64.3105V48.7793H66.3125V49.6484H63.5781V50.5469H70.1992V49.6484H67.3477V48.7793H69.418V47.9492H67.3477V47.2168H69.6914V46.377ZM61.5176 50.0293C61.7422 50.1416 62.1865 50.5029 62.3379 50.7129C63.2217 49.4141 63.3975 47.4365 63.3926 46.123V45.5273H70.2676V44.5898H67.9971C68.1777 44.3018 68.3975 43.9307 68.6074 43.5547H69.7793V42.6562H66.5566V41.9434H65.4922V42.6562H62.2793V43.5547H64.0225L63.7246 43.6328C63.8711 43.9209 64.0078 44.2871 64.0859 44.5898H62.3574V46.1035C62.3623 47.2363 62.2939 48.8672 61.5176 50.0293ZM64.7891 43.5547H67.333C67.2402 43.8867 67.0986 44.2676 66.9668 44.541L67.1328 44.5898H64.9551L65.1699 44.5312C65.1064 44.2578 64.9551 43.877 64.7891 43.5547ZM75.2242 50.3125C76.1373 50.3174 77.2164 50.1904 78.2516 49.9707L78.0855 48.7988C77.1285 49.0234 76.1178 49.1406 75.1949 49.1406C73.5103 49.1406 72.6119 48.7012 72.6168 47.8906C72.6119 47.373 72.9977 46.7822 73.7301 46.1719L72.6266 45.6445C71.7428 46.3184 71.2545 47.1094 71.2594 47.9297C71.2545 49.4092 72.773 50.3174 75.2242 50.3125ZM70.9176 44.707L75.2437 44.6045C75.4781 45.7715 75.8395 46.8945 76.318 47.9492L77.6266 47.6074C77.1334 46.582 76.7818 45.5908 76.5475 44.5703L78.6324 44.5215V43.4375L76.3424 43.4912C76.2887 43.1104 76.2496 42.7246 76.2203 42.3242L74.9508 42.3828C74.9752 42.7686 75.0143 43.1494 75.0631 43.5254L70.9176 43.623V44.707ZM86.4797 50.1074C87.0314 50.1074 87.6272 49.9316 88.1887 49.5996L87.9152 48.4668C87.4367 48.7402 87.0607 48.8916 86.841 48.8867C86.6213 48.8916 86.5578 48.75 86.5578 48.0957V45.0391C86.5578 43.7939 86.0207 43.1543 84.9563 43.1543C84.2971 43.1543 83.6965 43.4229 82.3879 44.5264V42.4414H81.1379V43.7598H79.0871V44.8438H81.1379V45.6299C80.5373 46.1816 79.8293 46.8506 78.9797 47.6562L79.6535 48.7012C80.215 48.1104 80.7082 47.6074 81.1379 47.1729V50.4785H82.3879V46.084C83.843 44.7217 84.3654 44.3701 84.7414 44.3652C85.1125 44.3701 85.2834 44.6924 85.2883 45.3809V48.7207C85.2834 49.6924 85.6398 50.1074 86.4797 50.1074ZM92.1199 50.4688C94.6834 50.4639 96.1287 49.4629 96.1336 47.6855C96.1287 46.1963 95.0691 45.3613 93.1941 45.3613C93.0965 45.3613 92.9891 45.3662 92.8768 45.3711L95.577 43.916V42.8223H89.0926V43.916H93.3113L88.5359 46.4941L89.0437 47.4805L90.2449 46.8066C90.8846 46.4453 91.5828 46.2891 92.491 46.2891C94.1072 46.2891 94.8152 46.7383 94.8152 47.7539C94.8152 48.6426 94.2879 49.1748 93.1795 49.375C93.2576 49.1113 93.2967 48.8477 93.3016 48.6133C93.2967 47.6855 92.6619 47.2119 91.3875 47.2168C90.0008 47.2119 89.1658 47.7832 89.1707 48.7207C89.1658 49.8291 90.2449 50.4639 92.1199 50.4688ZM90.3523 48.7109C90.3475 48.3496 90.6844 48.1445 91.2996 48.1445C91.9051 48.1445 92.198 48.3398 92.198 48.7402C92.198 48.916 92.1395 49.1553 92.0125 49.4727H91.9637C90.909 49.4727 90.3475 49.2041 90.3523 48.7109ZM31.7426 64.0625L31.9672 65.2441C36.0932 65.1367 38.4027 63.1348 38.6762 59.4629C39.3744 59.4189 39.9262 58.8428 39.9262 58.1348C39.9262 57.4121 39.3354 56.8213 38.6078 56.8164C37.8803 56.8213 37.2895 57.4121 37.2895 58.1348V58.1445H31.3129V59.3555H37.3627C37.1381 62.3926 35.2826 63.9307 31.7426 64.0625ZM38.0902 58.1348C38.0902 57.8564 38.3246 57.6221 38.6078 57.627C38.891 57.6221 39.1205 57.8564 39.1254 58.1348C39.1205 58.4229 38.891 58.6523 38.6078 58.6523C38.3246 58.6523 38.0902 58.4229 38.0902 58.1348ZM41.1719 64.1602L41.377 65.3125C45.6592 65.1367 47.8467 63.6279 47.8516 60.8398V60.3027H40.166V61.4453H46.4941C46.1914 63.1787 44.5264 64.0283 41.1719 64.1602ZM40.8301 59.0039H47.3047V57.8613H40.8301V59.0039ZM48.9605 64.082L49.5367 65.1758C50.9039 64.5557 52.1539 63.7354 53.2135 62.7832C54.1852 63.457 55.0055 64.2139 55.8844 65.2246L56.7926 64.3457C55.9381 63.3691 55.0592 62.5781 54.1021 61.9092C54.9029 61.0449 55.5523 60.0977 56.0016 59.1211V57.9395H49.4586V59.1211H54.5758C53.4674 61.1377 51.524 62.8564 48.9605 64.082ZM58.468 64.3164L58.7609 65.4688C61.4025 65.2734 62.4719 64.3604 62.6623 61.9824H65.7727V60.8301H62.6965V59.043C63.6828 58.9062 64.5568 58.7354 65.1965 58.5352L64.8547 57.4121C63.385 57.8467 60.3967 58.1982 58.2629 58.2031V59.3457C59.2834 59.3457 60.3625 59.292 61.3879 59.1943V60.8301H57.4523V61.9824H61.3537C61.2121 63.6914 60.5236 64.1699 58.468 64.3164ZM68.0633 64.0332L68.2684 65.1367C72.1404 64.7852 73.5857 63.2178 73.6004 59.375L72.4187 59.3262C72.409 62.5928 71.3885 63.6963 68.0633 64.0332ZM67.1453 59.7656C67.409 60.5469 67.6482 61.4502 67.8387 62.3535L68.9617 62.1191C68.7518 61.1279 68.5223 60.2246 68.2684 59.4922L67.1453 59.7656ZM69.2352 59.5117C69.5086 60.3125 69.743 61.2451 69.9285 62.1973L71.0516 61.9434C70.8758 61.0303 70.6219 60.0732 70.3582 59.248L69.2352 59.5117ZM76.0473 64.1211L76.4379 65.2832C80.3637 64.873 82.9711 62.3047 82.9711 58.8379V58.3008H78.7279C78.8598 58.0127 78.977 57.7148 79.0746 57.4121L77.7758 57.1973C77.2484 58.6182 76.0912 60.0732 74.7387 61.0254L75.5785 61.9141C76.6137 61.2061 77.4535 60.376 78.0834 59.4434H81.6234C81.3207 61.9482 79.1625 63.7988 76.0473 64.1211ZM88.6797 64.0527L89.041 65.1758C90.8818 64.9463 92.1318 63.4424 92.1367 61.4453C92.1318 59.1846 90.4863 57.8369 88.2012 57.8418C85.6035 57.8369 83.7432 59.5508 83.748 61.9434C83.7432 63.6523 84.6855 64.9512 85.9258 64.9512C87.3369 64.9512 88.1377 63.2617 88.7139 59.0283C90.0127 59.2188 90.8818 60.1074 90.8867 61.4453C90.8818 62.832 89.9932 63.8867 88.6797 64.0527ZM84.9199 61.9434C84.9248 60.542 85.999 59.375 87.4492 59.0723C87.0537 61.9824 86.4775 63.6768 85.8574 63.6719C85.3984 63.6768 84.9248 62.793 84.9199 61.9434ZM94.6812 58.9844V58.6523H98.6754V58.9844H94.6812ZM92.4352 65.4883H101.009V64.7168H97.2203V64.3457H100.17V63.6523H97.2203V63.3203H99.984V60.918H93.4703V63.3203H96.1852V63.6523H93.275V64.3457H96.1852V64.7168H92.4352V65.4883ZM92.4547 60.6055H100.98V59.8535H92.4547V60.6055ZM93.6461 59.541H99.7594V57.2266H93.6461V59.541ZM94.4859 62.7441V62.373H96.1852V62.7441H94.4859ZM94.4859 61.8555V61.4941H96.1852V61.8555H94.4859ZM94.6812 58.125V57.7832H98.6754V58.125H94.6812ZM97.2203 62.7441V62.373H98.9391V62.7441H97.2203ZM97.2203 61.8555V61.4941H98.9391V61.8555H97.2203Z" fill="white"/>
<path d="M50.2842 88.1367C52.5195 88.1367 54.126 86.9199 54.1123 85.2246C54.126 83.9873 53.3262 83.1055 51.8701 82.9277V82.8457C52.9775 82.6475 53.75 81.8613 53.7432 80.7539C53.75 79.1885 52.376 77.9648 50.3115 77.9648C48.2812 77.9648 46.75 79.1475 46.7158 80.8496H48.6846C48.7188 80.0908 49.4365 79.5986 50.3115 79.6055C51.1865 79.5986 51.7676 80.1182 51.7607 80.877C51.7676 81.6562 51.084 82.1895 50.1064 82.1895H49.1904V83.707H50.1064C51.2686 83.7139 51.9863 84.2812 51.9795 85.0879C51.9863 85.8877 51.2822 86.4346 50.2979 86.4414C49.3408 86.4346 48.623 85.9492 48.5889 85.2109H46.5107C46.5518 86.9404 48.1104 88.1367 50.2842 88.1367ZM59.2803 88.1367C61.5361 88.1367 63.1631 86.9473 63.1631 85.334C63.1631 84.0898 62.1924 83.0781 60.9893 82.8867V82.8184C62.0283 82.6133 62.7871 81.7178 62.7939 80.6309C62.7871 79.0928 61.3037 77.9648 59.2803 77.9648C57.2568 77.9648 55.7734 79.0928 55.7803 80.6309C55.7734 81.7178 56.5117 82.6133 57.585 82.8184V82.8867C56.3545 83.0781 55.3975 84.0898 55.3975 85.334C55.3975 86.9473 57.0176 88.1367 59.2803 88.1367ZM57.5439 85.1289C57.5371 84.2676 58.2754 83.6455 59.2803 83.6387C60.2852 83.6455 61.0234 84.2744 61.0166 85.1289C61.0234 85.9766 60.3262 86.5713 59.2803 86.5645C58.2344 86.5713 57.5371 85.9766 57.5439 85.1289ZM57.79 80.8359C57.7832 80.0635 58.3916 79.5234 59.2803 79.5234C60.1621 79.5234 60.7773 80.0635 60.7842 80.8359C60.7773 81.6289 60.1484 82.1826 59.2803 82.1895C58.4053 82.1826 57.7832 81.6289 57.79 80.8359ZM68.4131 88.1367C70.8877 88.1367 72.3916 86.3047 72.3916 83.0508C72.3916 79.8174 70.8809 77.9648 68.4131 77.9648C65.9453 77.9648 64.4346 79.8174 64.4346 83.0508C64.4346 86.291 65.9316 88.1367 68.4131 88.1367ZM66.54 83.0508C66.54 80.7881 67.2715 79.6533 68.4131 79.6465C69.5547 79.6533 70.293 80.7881 70.2861 83.0508C70.293 85.334 69.5615 86.4414 68.4131 86.4414C67.2646 86.4414 66.5264 85.334 66.54 83.0508ZM85.3936 77.6367H73.8135V79.0996H76.9375C76.8418 82.3125 76.7256 85.9014 73.3213 87.7949C73.7041 88.0752 74.1689 88.5879 74.415 89.0117C76.8896 87.5283 77.8398 85.2178 78.2295 82.75H82.6934C82.5293 85.6621 82.3242 86.9883 81.9893 87.3164C81.7979 87.4736 81.6406 87.4941 81.3467 87.4805C80.9707 87.4873 80.0615 87.4873 79.1318 87.3984C79.4326 87.8086 79.6445 88.4512 79.6514 88.875C80.54 88.9092 81.4424 88.916 81.9893 88.8613C82.5498 88.8203 82.9531 88.6699 83.3291 88.2324C83.8555 87.665 84.0879 86.0586 84.2861 81.9707C84.3135 81.793 84.3135 81.3076 84.3135 81.3145H78.4004C78.4688 80.5762 78.4961 79.8311 78.5234 79.0996H85.3936V77.6367Z" fill="#2DF781"/>
</svg>
