<svg width="132" height="132" viewBox="0 0 132 132" fill="none" xmlns="http://www.w3.org/2000/svg">
<rect width="132" height="132" rx="66" fill="white" fill-opacity="0.1"/>
<path d="M70.5455 37.4519H73.2727L76 41.1392V46.5428H74.15C74.0419 47.3012 73.6638 47.9952 73.0852 48.4973C72.5065 48.9993 71.7661 49.2758 71 49.2758C70.2339 49.2758 69.4935 48.9993 68.9148 48.4973C68.3362 47.9952 67.9581 47.3012 67.85 46.5428H63.2409C63.1328 47.3012 62.7547 47.9952 62.1761 48.4973C61.5974 48.9993 60.857 49.2758 60.0909 49.2758C59.3248 49.2758 58.5844 48.9993 58.0057 48.4973C57.4271 47.9952 57.049 47.3012 56.9409 46.5428H56V35.6337C56 35.3926 56.0958 35.1614 56.2663 34.9909C56.4368 34.8204 56.668 34.7246 56.9091 34.7246H69.6364C69.8775 34.7246 70.1087 34.8204 70.2792 34.9909C70.4497 35.1614 70.5455 35.3926 70.5455 35.6337V37.4519ZM70.5455 39.2701V41.9973H74.1818V41.7382L72.3564 39.2701H70.5455Z" fill="white"/>
<path d="M39.96 58.2051H38.5732L36.8252 59.3184V60.6172L38.4463 59.6016H38.4854V65.2754H39.96V58.2051ZM44.3447 65.373C46.1123 65.373 47.1865 64.0645 47.1865 61.7402C47.1865 59.4307 46.1074 58.1074 44.3447 58.1074C42.582 58.1074 41.5029 59.4307 41.5029 61.7402C41.5029 64.0547 42.5723 65.373 44.3447 65.373ZM43.0068 61.7402C43.0068 60.124 43.5293 59.3135 44.3447 59.3086C45.1602 59.3135 45.6875 60.124 45.6826 61.7402C45.6875 63.3711 45.165 64.1621 44.3447 64.1621C43.5244 64.1621 42.9971 63.3711 43.0068 61.7402ZM55.9854 63.2441L56.3857 62.0332C54.6182 61.4326 52.6699 60.8711 50.917 60.4756V57.668H49.5791V65.8027H50.917V61.7646C52.4795 62.1406 54.2324 62.6436 55.9854 63.2441ZM58.2998 64.2207L58.4951 65.4707C62.7529 65.0996 65.126 63.1221 65.8096 59.3574L64.5986 59.084C63.9248 62.3115 62.0156 63.8691 58.2998 64.2207ZM57.9678 59.1426C59.042 59.5527 60.0967 60.0508 61.1221 60.6465L61.7666 59.5137C60.7168 58.8984 59.6621 58.3955 58.5635 58L57.9678 59.1426ZM69.0225 59.416H71.1904V65.2754H72.6455V59.416H74.8135V58.2051H69.0225V59.416ZM75.1357 65.2754H76.5811V62.2578C76.5762 61.6084 77.0596 61.1543 77.7139 61.1543C77.9141 61.1543 78.1924 61.1885 78.3291 61.2324V59.9434C78.2021 59.9141 78.0166 59.8945 77.8701 59.8945C77.2744 59.8945 76.7812 60.2412 76.5908 60.8906H76.5322V59.9727H75.1357V65.2754ZM82.4307 63.0195C82.4307 63.7422 81.9326 64.1182 81.4053 64.123C80.8389 64.1182 80.4775 63.7275 80.4775 63.0977V59.9727H79.0322V63.3516C79.0322 64.5918 79.7598 65.3438 80.8193 65.3438C81.6201 65.3438 82.1914 64.9336 82.4307 64.3184H82.4893V65.2754H83.876V59.9727H82.4307V63.0195ZM87.3818 65.3828C88.7881 65.3779 89.6719 64.5527 89.7354 63.3516H88.3779C88.2852 63.9131 87.9092 64.2305 87.4014 64.2305C86.6982 64.2305 86.249 63.6445 86.249 62.6191C86.249 61.6133 86.708 61.0322 87.4014 61.0273C87.9482 61.0322 88.29 61.3936 88.3779 61.916H89.7354C89.6768 60.7002 88.749 59.9043 87.3818 59.9043C85.7754 59.9043 84.7793 61.0176 84.7842 62.6387C84.7793 64.2549 85.7559 65.3779 87.3818 65.3828ZM90.6338 65.2754H92.0791V63.5762L92.4844 63.1172L93.9443 65.2754H95.6436L93.5586 62.2676L95.5361 59.9727H93.876L92.1572 62.0039H92.0791V58.2051H90.6338V65.2754Z" fill="white"/>
<path d="M64.7451 69.9727H63.7783L65.4482 72.6191L63.7783 75.2754H64.7451L65.9951 73.2246L67.2646 75.2754H68.2217L66.5127 72.6191L68.2217 69.9727H67.2549L65.9951 72.1309L64.7451 69.9727Z" fill="white"/>
<path d="M34.8213 92.4121C37.0566 92.4121 38.6631 91.1953 38.6494 89.5C38.6631 88.2627 37.8633 87.3809 36.4072 87.2031V87.1211C37.5146 86.9229 38.2871 86.1367 38.2803 85.0293C38.2871 83.4639 36.9131 82.2402 34.8486 82.2402C32.8184 82.2402 31.2871 83.4229 31.2529 85.125H33.2217C33.2559 84.3662 33.9736 83.874 34.8486 83.8809C35.7236 83.874 36.3047 84.3936 36.2979 85.1523C36.3047 85.9316 35.6211 86.4648 34.6436 86.4648H33.7275V87.9824H34.6436C35.8057 87.9893 36.5234 88.5566 36.5166 89.3633C36.5234 90.1631 35.8193 90.71 34.835 90.7168C33.8779 90.71 33.1602 90.2246 33.126 89.4863H31.0479C31.0889 91.2158 32.6475 92.4121 34.8213 92.4121ZM43.8174 92.4121C46.0732 92.4121 47.7002 91.2227 47.7002 89.6094C47.7002 88.3652 46.7295 87.3535 45.5264 87.1621V87.0938C46.5654 86.8887 47.3242 85.9932 47.3311 84.9062C47.3242 83.3682 45.8408 82.2402 43.8174 82.2402C41.7939 82.2402 40.3105 83.3682 40.3174 84.9062C40.3105 85.9932 41.0488 86.8887 42.1221 87.0938V87.1621C40.8916 87.3535 39.9346 88.3652 39.9346 89.6094C39.9346 91.2227 41.5547 92.4121 43.8174 92.4121ZM42.0811 89.4043C42.0742 88.543 42.8125 87.9209 43.8174 87.9141C44.8223 87.9209 45.5605 88.5498 45.5537 89.4043C45.5605 90.252 44.8633 90.8467 43.8174 90.8398C42.7715 90.8467 42.0742 90.252 42.0811 89.4043ZM42.3271 85.1113C42.3203 84.3389 42.9287 83.7988 43.8174 83.7988C44.6992 83.7988 45.3145 84.3389 45.3213 85.1113C45.3145 85.9043 44.6855 86.458 43.8174 86.4648C42.9424 86.458 42.3203 85.9043 42.3271 85.1113ZM52.9502 92.4121C55.4248 92.4121 56.9287 90.5801 56.9287 87.3262C56.9287 84.0928 55.418 82.2402 52.9502 82.2402C50.4824 82.2402 48.9717 84.0928 48.9717 87.3262C48.9717 90.5664 50.4688 92.4121 52.9502 92.4121ZM51.0771 87.3262C51.0771 85.0635 51.8086 83.9287 52.9502 83.9219C54.0918 83.9287 54.8301 85.0635 54.8232 87.3262C54.8301 89.6094 54.0986 90.7168 52.9502 90.7168C51.8018 90.7168 51.0635 89.6094 51.0771 87.3262ZM60.1553 91.2637H58.2139L57.5303 95.1602H58.9795L60.1553 91.2637ZM65.3916 92.4121C67.8662 92.4121 69.3701 90.5801 69.3701 87.3262C69.3701 84.0928 67.8594 82.2402 65.3916 82.2402C62.9238 82.2402 61.4131 84.0928 61.4131 87.3262C61.4131 90.5664 62.9102 92.4121 65.3916 92.4121ZM63.5186 87.3262C63.5186 85.0635 64.25 83.9287 65.3916 83.9219C66.5332 83.9287 67.2715 85.0635 67.2646 87.3262C67.2715 89.6094 66.54 90.7168 65.3916 90.7168C64.2432 90.7168 63.5049 89.6094 63.5186 87.3262ZM74.6338 92.4121C77.1084 92.4121 78.6123 90.5801 78.6123 87.3262C78.6123 84.0928 77.1016 82.2402 74.6338 82.2402C72.166 82.2402 70.6553 84.0928 70.6553 87.3262C70.6553 90.5664 72.1523 92.4121 74.6338 92.4121ZM72.7607 87.3262C72.7607 85.0635 73.4922 83.9287 74.6338 83.9219C75.7754 83.9287 76.5137 85.0635 76.5068 87.3262C76.5137 89.6094 75.7822 90.7168 74.6338 90.7168C73.4854 90.7168 72.7471 89.6094 72.7607 87.3262ZM83.876 92.4121C86.3506 92.4121 87.8545 90.5801 87.8545 87.3262C87.8545 84.0928 86.3438 82.2402 83.876 82.2402C81.4082 82.2402 79.8975 84.0928 79.8975 87.3262C79.8975 90.5664 81.3945 92.4121 83.876 92.4121ZM82.0029 87.3262C82.0029 85.0635 82.7344 83.9287 83.876 83.9219C85.0176 83.9287 85.7559 85.0635 85.749 87.3262C85.7559 89.6094 85.0244 90.7168 83.876 90.7168C82.7275 90.7168 81.9893 89.6094 82.0029 87.3262ZM99.4346 87.4902H90.6846V93.2871H92.2432V92.7402H97.8076V93.2734H99.4346V87.4902ZM89.2764 84.7559L89.3857 86.2734C91.8398 86.1777 95.5244 86.0273 99.0244 85.8496C99.373 86.2803 99.6602 86.6836 99.8584 87.0391L101.185 86.041C100.494 84.9199 98.9219 83.4092 97.6162 82.3496L96.4268 83.2109C96.8643 83.5869 97.3154 84.0107 97.7529 84.4482C96.1807 84.5166 94.5811 84.5781 93.1045 84.626C93.7539 83.6553 94.4307 82.5205 94.9912 81.4609L93.2686 80.9004C92.8242 82.0898 92.0449 83.5527 91.2998 84.6875C90.5684 84.7148 89.8848 84.7354 89.2764 84.7559ZM92.2432 91.3047V88.9258H97.8076V91.3047H92.2432Z" fill="#2DF781"/>
</svg>
