<svg width="132" height="132" viewBox="0 0 132 132" fill="none" xmlns="http://www.w3.org/2000/svg">
<rect width="132" height="132" rx="66" fill="white" fill-opacity="0.1"/>
<path d="M56.0309 36.9336H50.3668C50.5377 36.7188 50.6939 36.499 50.8404 36.2793H56.7828V35.3223H51.4068C51.5289 35.0879 51.6461 34.8535 51.7535 34.6191L50.6109 34.4434C50.2496 35.3467 49.5807 36.4062 48.5895 37.2168C48.858 37.3486 49.2584 37.6514 49.4781 37.9004C49.7711 37.627 50.0348 37.3438 50.2789 37.0459C50.2105 37.6367 50.1324 38.291 50.0396 38.9453H48.4918V39.8926H49.9029C49.7564 40.8398 49.6002 41.7432 49.4586 42.4414L50.5426 42.5098C50.5719 42.3438 50.6061 42.168 50.6354 41.9824H54.5367C54.4879 42.1484 54.4391 42.2607 54.3805 42.3242C54.273 42.4365 54.1949 42.4756 54.0191 42.4707C53.7994 42.4756 53.4283 42.4707 52.9449 42.4219C53.0914 42.6514 53.1891 43.0078 53.1988 43.2227C53.7066 43.252 54.2096 43.2617 54.5172 43.2227C54.8492 43.1836 55.0885 43.0957 55.3277 42.7832C55.44 42.6367 55.5328 42.3926 55.6207 41.9824H56.9391V41.0449H55.7672C55.8063 40.7178 55.8404 40.3369 55.8746 39.8926H57.193V38.9453H55.9381C55.9674 38.4863 55.9967 37.9785 56.0211 37.4121C56.026 37.2754 56.0309 36.9385 56.0309 36.9336ZM50.7916 41.0449L50.9625 39.8926H52.359C52.315 40.3027 52.2613 40.6934 52.2076 41.0449H50.7916ZM51.0943 38.9453C51.1432 38.5889 51.192 38.2324 51.2359 37.8809H52.5641C52.5348 38.2227 52.5006 38.584 52.4664 38.9453H51.0943ZM53.1988 41.0449C53.2525 40.6934 53.3014 40.3027 53.3502 39.8926H54.8248C54.7906 40.3467 54.7516 40.7275 54.7125 41.0449H53.1988ZM53.4576 38.9453C53.4967 38.584 53.5357 38.2227 53.565 37.8809H54.9371C54.9225 38.2666 54.9029 38.6182 54.8834 38.9453H53.4576ZM64.884 35.0195H58.3898V43.1152H59.4934V42.5098H63.7316V43.0859H64.884V35.0195ZM59.4934 41.4258V39.2383H63.7316V41.4258H59.4934ZM59.4934 38.1738V36.084H63.7316V38.1738H59.4934ZM74.6648 35.5176H70.5193C70.6268 35.2393 70.7244 34.9561 70.8074 34.668L69.7625 34.4238C69.4646 35.5078 68.9324 36.582 68.2488 37.2363C68.493 37.3779 68.9617 37.6709 69.157 37.8613C69.284 37.7148 69.4109 37.5537 69.533 37.3828C69.4842 37.8809 69.4256 38.4277 69.3523 38.9746H68.4051V39.9414H69.2254C69.0984 40.8105 68.9617 41.6406 68.8348 42.2656L69.8602 42.3535C69.8846 42.2119 69.909 42.0605 69.9383 41.9043H72.8631C72.8191 42.0605 72.7703 42.1582 72.7215 42.2168C72.6189 42.3389 72.5311 42.3633 72.3699 42.3633C72.1795 42.3633 71.823 42.3633 71.3934 42.3242C71.535 42.5732 71.6473 42.9443 71.657 43.2031C72.1209 43.2275 72.5701 43.2373 72.8484 43.1934C73.1609 43.1348 73.3904 43.0566 73.6004 42.7734C73.7127 42.6221 73.8055 42.3535 73.8836 41.9043H74.7625V40.9766H74.0008C74.0252 40.6787 74.0545 40.3369 74.0789 39.9414H74.8602V38.9746H74.1326C74.1521 38.5498 74.1766 38.0762 74.1961 37.5586C74.1912 37.4316 74.2107 37.1338 74.2156 37.1289H69.7039C69.8357 36.9238 69.9627 36.7041 70.0848 36.4746H74.6648V35.5176ZM65.9832 37.8027C66.535 38.0371 67.2137 38.4521 67.5262 38.7695L68.1609 37.9102C67.8094 37.5928 67.1258 37.2314 66.5789 37.0215L65.9832 37.8027ZM66.1785 42.5293L67.1355 43.125C67.5701 42.2119 68.0438 41.1035 68.4051 40.0781L67.5652 39.4922C67.1307 40.5957 66.574 41.8018 66.1785 42.5293ZM66.4324 35.2832C66.9793 35.5518 67.6385 35.9863 67.9656 36.3086L68.6004 35.459C68.2684 35.127 67.5555 34.751 67.0184 34.5117L66.4324 35.2832ZM70.0799 40.9766C70.1287 40.6445 70.1727 40.2979 70.2215 39.9414H71.1443C71.1053 40.3076 71.0662 40.6592 71.0271 40.9766H70.0799ZM70.3436 38.9746C70.3826 38.6572 70.4168 38.3398 70.451 38.0273H71.3104C71.2908 38.335 71.2664 38.6523 71.2371 38.9746H70.3436ZM71.9451 40.9766C71.9793 40.6592 72.0232 40.3076 72.0574 39.9414H73.1023C73.073 40.3467 73.0438 40.6885 73.0145 40.9766H71.9451ZM72.1551 38.9746C72.1844 38.6523 72.2088 38.335 72.2332 38.0273H73.1951C73.1805 38.3691 73.1658 38.6816 73.1561 38.9746H72.1551ZM80.7055 42.4805C81.4379 42.4805 82.2924 42.3779 83.1176 42.1973L82.9418 41.0742C82.1166 41.2256 81.3109 41.3281 80.7055 41.3281C79.685 41.3281 79.0502 41.0107 79.0551 40.5078C79.0502 40.166 79.3188 39.8145 79.9535 39.2871L79.0258 38.5938C78.2055 39.2773 77.7904 39.9609 77.7953 40.6055C77.7904 41.6992 78.9916 42.4805 80.7055 42.4805ZM75.4369 38.9648C75.4369 40.3613 75.5785 41.582 75.891 42.8613L77.1801 42.6953C76.8871 41.5039 76.7504 40.2783 76.7504 38.9648C76.7504 37.6416 76.8871 36.4209 77.1801 35.2148L75.891 35.0684C75.5785 36.3525 75.4369 37.5684 75.4369 38.9648ZM78.2348 36.8652H83.0395V35.7129H78.2348V36.8652ZM49.8074 50.4395C50.2176 51.04 50.8816 51.6992 51.5799 52.2266H50.3055V51.4551H49.3094V52.2266H48.074C48.7869 51.6797 49.4119 51.0205 49.8074 50.4395ZM43.9578 54.2676L44.2117 55.293C44.534 55.1904 44.8904 55.083 45.2664 54.9658V57.0117C45.2713 57.1436 45.2322 57.1924 45.1102 57.1875C44.9832 57.1826 44.6023 57.1826 44.2215 57.1777C44.3631 57.4658 44.4852 57.9297 44.5242 58.2129C45.1688 58.2178 45.6033 58.1738 45.9012 58.0078C46.2039 57.832 46.2967 57.5391 46.3016 57.002V54.6387C46.5799 54.5508 46.8631 54.458 47.1414 54.3652L47.0047 53.418C46.7703 53.4863 46.5359 53.5547 46.3016 53.6182V52.2266H46.8777C46.9998 52.4219 47.1268 52.6367 47.1902 52.8125C47.4441 52.6709 47.698 52.5049 47.9422 52.3242V53.0664H49.3094V53.7598H47.1902V54.6582H52.5418V53.7598H50.3055V53.0664H51.6922V52.3096C51.9363 52.4902 52.1854 52.6465 52.4246 52.7832C52.5711 52.4902 52.8104 52.0996 53.0105 51.8457C51.9852 51.3965 50.9256 50.4736 50.2469 49.4922H49.2703C48.8309 50.2637 47.9666 51.1572 47.034 51.7285V51.2402H46.3016V49.4531H45.2664V51.2402H44.1434V52.2266H45.2664V53.916C44.7781 54.0527 44.324 54.1748 43.9578 54.2676ZM47.7176 58.2031H48.6746V57.9102H51.0965V58.1738H52.1316V55.1758H47.7176V58.2031ZM48.6746 57.002V56.0547H51.0965V57.002H48.6746ZM59.0414 57.7051C59.4564 57.71 59.9691 57.6709 60.3891 57.6074L60.2523 56.4258C59.9008 56.4893 59.4076 56.5283 59.0512 56.5234C57.5277 56.5283 56.6244 55.752 56.6195 54.4238C56.6244 52.7588 58.0648 51.6943 59.9301 51.6406L61.1215 51.6113V50.4688L53.182 50.6543V51.8066L56.81 51.7236C55.8383 52.3242 55.2475 53.3545 55.2523 54.5605C55.2475 56.4844 56.7318 57.71 59.0414 57.7051ZM65.9609 57.7344C68.5195 57.7295 69.8086 56.8652 69.8086 55.1465C69.8086 53.6328 68.8076 52.8564 66.8496 52.8613C65.7461 52.8564 64.7646 53.125 63.8418 53.6621C63.9346 53.1006 64.0127 52.5391 64.0664 52.002L62.8262 51.9043C62.7236 52.7588 62.5918 53.6182 62.3379 54.8438L63.4902 55.0879C64.3447 54.3945 65.5996 53.9697 66.7715 53.9746C67.8994 53.9697 68.5049 54.3896 68.5 55.1758C68.5049 56.1279 67.6406 56.6113 65.9609 56.6113C65.1113 56.6113 63.9004 56.4893 62.7969 56.2793L62.6895 57.4023C63.5293 57.5928 64.9062 57.7295 65.9609 57.7344ZM63.666 51.1621C65.4092 51.3867 66.9326 51.4746 68.7344 51.4453V50.3223C67.123 50.3271 65.4092 50.2295 63.8125 50.0488L63.666 51.1621ZM77.7047 57.6074C78.2564 57.6074 78.8521 57.4316 79.4137 57.0996L79.1402 55.9668C78.6617 56.2402 78.2857 56.3916 78.066 56.3867C77.8463 56.3916 77.7828 56.25 77.7828 55.5957V52.5391C77.7828 51.2939 77.2457 50.6543 76.1813 50.6543C75.5221 50.6543 74.9215 50.9229 73.6129 52.0264V49.9414H72.3629V51.2598H70.3121V52.3438H72.3629V53.1299C71.7623 53.6816 71.0543 54.3506 70.2047 55.1562L70.8785 56.2012C71.44 55.6104 71.9332 55.1074 72.3629 54.6729V57.9785H73.6129V53.584C75.068 52.2217 75.5904 51.8701 75.9664 51.8652C76.3375 51.8701 76.5084 52.1924 76.5133 52.8809V56.2207C76.5084 57.1924 76.8648 57.6074 77.7047 57.6074ZM83.3449 57.9688C85.9084 57.9639 87.3537 56.9629 87.3586 55.1855C87.3537 53.6963 86.2941 52.8613 84.4191 52.8613C84.3215 52.8613 84.2141 52.8662 84.1018 52.8711L86.802 51.416V50.3223H80.3176V51.416H84.5363L79.7609 53.9941L80.2688 54.9805L81.4699 54.3066C82.1096 53.9453 82.8078 53.7891 83.716 53.7891C85.3322 53.7891 86.0402 54.2383 86.0402 55.2539C86.0402 56.1426 85.5129 56.6748 84.4045 56.875C84.4826 56.6113 84.5217 56.3477 84.5266 56.1133C84.5217 55.1855 83.8869 54.7119 82.6125 54.7168C81.2258 54.7119 80.3908 55.2832 80.3957 56.2207C80.3908 57.3291 81.4699 57.9639 83.3449 57.9688ZM81.5773 56.2109C81.5725 55.8496 81.9094 55.6445 82.5246 55.6445C83.1301 55.6445 83.423 55.8398 83.423 56.2402C83.423 56.416 83.3645 56.6553 83.2375 56.9727H83.1887C82.134 56.9727 81.5725 56.7041 81.5773 56.2109ZM31.7426 71.5625L31.9672 72.7441C36.0932 72.6367 38.4027 70.6348 38.6762 66.9629C39.3744 66.9189 39.9262 66.3428 39.9262 65.6348C39.9262 64.9121 39.3354 64.3213 38.6078 64.3164C37.8803 64.3213 37.2895 64.9121 37.2895 65.6348V65.6445H31.3129V66.8555H37.3627C37.1381 69.8926 35.2826 71.4307 31.7426 71.5625ZM38.0902 65.6348C38.0902 65.3564 38.3246 65.1221 38.6078 65.127C38.891 65.1221 39.1205 65.3564 39.1254 65.6348C39.1205 65.9229 38.891 66.1523 38.6078 66.1523C38.3246 66.1523 38.0902 65.9229 38.0902 65.6348ZM41.1719 71.6602L41.377 72.8125C45.6592 72.6367 47.8467 71.1279 47.8516 68.3398V67.8027H40.166V68.9453H46.4941C46.1914 70.6787 44.5264 71.5283 41.1719 71.6602ZM40.8301 66.5039H47.3047V65.3613H40.8301V66.5039ZM48.9605 71.582L49.5367 72.6758C50.9039 72.0557 52.1539 71.2354 53.2135 70.2832C54.1852 70.957 55.0055 71.7139 55.8844 72.7246L56.7926 71.8457C55.9381 70.8691 55.0592 70.0781 54.1021 69.4092C54.9029 68.5449 55.5523 67.5977 56.0016 66.6211V65.4395H49.4586V66.6211H54.5758C53.4674 68.6377 51.524 70.3564 48.9605 71.582ZM58.468 71.8164L58.7609 72.9688C61.4025 72.7734 62.4719 71.8604 62.6623 69.4824H65.7727V68.3301H62.6965V66.543C63.6828 66.4062 64.5568 66.2354 65.1965 66.0352L64.8547 64.9121C63.385 65.3467 60.3967 65.6982 58.2629 65.7031V66.8457C59.2834 66.8457 60.3625 66.792 61.3879 66.6943V68.3301H57.4523V69.4824H61.3537C61.2121 71.1914 60.5236 71.6699 58.468 71.8164ZM68.0633 71.5332L68.2684 72.6367C72.1404 72.2852 73.5857 70.7178 73.6004 66.875L72.4187 66.8262C72.409 70.0928 71.3885 71.1963 68.0633 71.5332ZM67.1453 67.2656C67.409 68.0469 67.6482 68.9502 67.8387 69.8535L68.9617 69.6191C68.7518 68.6279 68.5223 67.7246 68.2684 66.9922L67.1453 67.2656ZM69.2352 67.0117C69.5086 67.8125 69.743 68.7451 69.9285 69.6973L71.0516 69.4434C70.8758 68.5303 70.6219 67.5732 70.3582 66.748L69.2352 67.0117ZM76.0473 71.6211L76.4379 72.7832C80.3637 72.373 82.9711 69.8047 82.9711 66.3379V65.8008H78.7279C78.8598 65.5127 78.977 65.2148 79.0746 64.9121L77.7758 64.6973C77.2484 66.1182 76.0912 67.5732 74.7387 68.5254L75.5785 69.4141C76.6137 68.7061 77.4535 67.876 78.0834 66.9434H81.6234C81.3207 69.4482 79.1625 71.2988 76.0473 71.6211ZM88.6797 71.5527L89.041 72.6758C90.8818 72.4463 92.1318 70.9424 92.1367 68.9453C92.1318 66.6846 90.4863 65.3369 88.2012 65.3418C85.6035 65.3369 83.7432 67.0508 83.748 69.4434C83.7432 71.1523 84.6855 72.4512 85.9258 72.4512C87.3369 72.4512 88.1377 70.7617 88.7139 66.5283C90.0127 66.7188 90.8818 67.6074 90.8867 68.9453C90.8818 70.332 89.9932 71.3867 88.6797 71.5527ZM84.9199 69.4434C84.9248 68.042 85.999 66.875 87.4492 66.5723C87.0537 69.4824 86.4775 71.1768 85.8574 71.1719C85.3984 71.1768 84.9248 70.293 84.9199 69.4434ZM94.6812 66.4844V66.1523H98.6754V66.4844H94.6812ZM92.4352 72.9883H101.009V72.2168H97.2203V71.8457H100.17V71.1523H97.2203V70.8203H99.984V68.418H93.4703V70.8203H96.1852V71.1523H93.275V71.8457H96.1852V72.2168H92.4352V72.9883ZM92.4547 68.1055H100.98V67.3535H92.4547V68.1055ZM93.6461 67.041H99.7594V64.7266H93.6461V67.041ZM94.4859 70.2441V69.873H96.1852V70.2441H94.4859ZM94.4859 69.3555V68.9941H96.1852V69.3555H94.4859ZM94.6812 65.625V65.2832H98.6754V65.625H94.6812ZM97.2203 70.2441V69.873H98.9391V70.2441H97.2203ZM97.2203 69.3555V68.9941H98.9391V69.3555H97.2203Z" fill="white"/>
<path d="M52.1914 85.6016H50.25L47.8027 87.1602V88.9785L50.0723 87.5566H50.127V95.5H52.1914V85.6016ZM58.125 95.6367C60.3535 95.6367 61.8711 94.208 61.8711 92.2051C61.8711 90.3047 60.5176 88.9443 58.6992 88.9512C57.8311 88.9443 57.0791 89.2998 56.7168 89.7852H56.6348L56.9082 87.2832H61.3105V85.6016H55.2129L54.6797 91.3027H56.5391C56.833 90.749 57.3525 90.4688 58.0977 90.4688C59.1367 90.4756 59.8818 91.207 59.875 92.2598C59.8818 93.292 59.1504 94.0166 58.125 94.0098C57.2637 94.0166 56.5596 93.4834 56.5117 92.7109H54.5156C54.5498 94.4199 56.0605 95.6367 58.125 95.6367ZM67.1074 95.6367C69.582 95.6367 71.0859 93.8047 71.0859 90.5508C71.0859 87.3174 69.5752 85.4648 67.1074 85.4648C64.6396 85.4648 63.1289 87.3174 63.1289 90.5508C63.1289 93.791 64.626 95.6367 67.1074 95.6367ZM65.2344 90.5508C65.2344 88.2881 65.9658 87.1533 67.1074 87.1465C68.249 87.1533 68.9873 88.2881 68.9805 90.5508C68.9873 92.834 68.2559 93.9414 67.1074 93.9414C65.959 93.9414 65.2207 92.834 65.2344 90.5508ZM84.0879 85.1367H72.5078V86.5996H75.6318C75.5361 89.8125 75.4199 93.4014 72.0156 95.2949C72.3984 95.5752 72.8633 96.0879 73.1094 96.5117C75.584 95.0283 76.5342 92.7178 76.9238 90.25H81.3877C81.2236 93.1621 81.0186 94.4883 80.6836 94.8164C80.4922 94.9736 80.335 94.9941 80.041 94.9805C79.665 94.9873 78.7559 94.9873 77.8262 94.8984C78.127 95.3086 78.3389 95.9512 78.3457 96.375C79.2344 96.4092 80.1367 96.416 80.6836 96.3613C81.2441 96.3203 81.6475 96.1699 82.0234 95.7324C82.5498 95.165 82.7822 93.5586 82.9805 89.4707C83.0078 89.293 83.0078 88.8076 83.0078 88.8145H77.0947C77.1631 88.0762 77.1904 87.3311 77.2178 86.5996H84.0879V85.1367Z" fill="#2DF781"/>
</svg>
