<?xml version="1.0" encoding="utf-8"?>
<!-- Generator: Adobe Illustrator 27.0.0, SVG Export Plug-In . SVG Version: 6.00 Build 0)  -->
<svg version="1.1" id="레이어_1" xmlns="http://www.w3.org/2000/svg" xmlns:xlink="http://www.w3.org/1999/xlink" x="0px"
	 y="0px" viewBox="0 0 44 30" style="enable-background:new 0 0 44 30;" xml:space="preserve">
<style type="text/css">
	.st0{fill:#2DF781;}
	.st1{fill:#8FFFBE;}
</style>
<path class="st0" d="M0.3,26.7h1.2v3.2h0.8v-3.2h1.2V26H0.3V26.7z"/>
<path class="st0" d="M4,29.9h2.6v-0.7H4.8v-0.9h1.7v-0.7H4.8v-0.9h1.8V26H4V29.9z"/>
<path class="st0" d="M7.9,29.9L8.1,29h1.4l0.3,0.9h0.9L9.4,26h-1L7,29.9H7.9z M8.3,28.4l0.5-1.5h0l0.5,1.5H8.3z"/>
<path class="st0" d="M11.2,26v3.9h0.8v-2.6h0l1,2.5h0.5l1-2.5h0v2.5h0.8V26h-1l-1.1,2.6h0L12.2,26H11.2z"/>
<path class="st0" d="M19.4,27.1h0.8c0-0.7-0.6-1.2-1.4-1.2c-0.9,0-1.5,0.5-1.5,1.2c0,0.6,0.4,0.9,1.1,1.1l0.4,0.1
	c0.4,0.1,0.7,0.2,0.7,0.5c0,0.3-0.3,0.5-0.7,0.5c-0.4,0-0.7-0.2-0.8-0.6h-0.8c0,0.8,0.6,1.3,1.6,1.3c0.9,0,1.5-0.5,1.5-1.2
	c0-0.6-0.5-1-1.2-1.1l-0.3-0.1c-0.3-0.1-0.6-0.2-0.6-0.5c0-0.3,0.2-0.4,0.6-0.4C19.1,26.7,19.4,26.8,19.4,27.1z"/>
<path class="st0" d="M20.7,29.9h0.8v-1.3h0.7c0.9,0,1.4-0.5,1.4-1.3c0-0.8-0.5-1.3-1.4-1.3h-1.5V29.9z M21.6,28v-1.3h0.6
	c0.5,0,0.7,0.3,0.7,0.7c0,0.4-0.2,0.7-0.7,0.7H21.6z"/>
<path class="st0" d="M24.4,29.9l0.3-0.9h1.4l0.3,0.9h0.9L25.9,26h-1l-1.3,3.9H24.4z M24.9,28.4l0.5-1.5h0l0.5,1.5H24.9z"/>
<path class="st0" d="M27.7,29.9h0.8v-1.4h0.6l0.7,1.4h0.9l-0.8-1.5c0.4-0.2,0.7-0.6,0.7-1.1c0-0.8-0.5-1.3-1.4-1.3h-1.5V29.9z
	 M28.5,27.9v-1.2h0.6c0.5,0,0.7,0.2,0.7,0.6c0,0.4-0.2,0.6-0.7,0.6H28.5z"/>
<path class="st0" d="M31.2,29.9H32v-1.4h0.6l0.7,1.4h0.9l-0.8-1.5c0.4-0.2,0.7-0.6,0.7-1.1c0-0.8-0.5-1.3-1.4-1.3h-1.5V29.9z
	 M32,27.9v-1.2h0.6c0.5,0,0.7,0.2,0.7,0.6c0,0.4-0.2,0.6-0.7,0.6H32z"/>
<path class="st0" d="M38.2,28c0-1.3-0.8-2-1.8-2c-1,0-1.8,0.7-1.8,2c0,1.3,0.8,2,1.8,2C37.4,30,38.2,29.3,38.2,28z M35.4,28
	c0-0.8,0.4-1.3,1-1.3c0.6,0,1,0.5,1,1.3c0,0.8-0.4,1.3-1,1.3C35.8,29.3,35.4,28.8,35.4,28z"/>
<path class="st0" d="M39.5,29.9h0.8l0.7-2.6h0l0.7,2.6h0.8l1.1-3.9h-0.9l-0.7,2.7h0L41.4,26h-0.8L40,28.8h0L39.3,26h-0.9L39.5,29.9z
	"/>
<g>
	<path class="st0" d="M34.2,7.7V11l-2.4,2.4l-6.7,6.7l-2.9,2.9H8.5l9.9-10c-1.9-4.1-1.9-9,0-13.1l6.5,6.5L29,2.5l0,0L34.2,7.7z"/>
	<rect x="34.2" y="7.7" class="st0" width="1.3" height="3.3"/>
	<path class="st1" d="M25.1,20.1c-1.3-0.7-2.5-1.6-3.6-2.7c0,0,0,0,0,0c-1.3-1.3-2.3-2.7-3-4.3c0,0,0,0,0,0l6.6-6.6l0,0l6.8,6.8
		L25.1,20.1z"/>
</g>
</svg>
