<svg width="272" height="106" viewBox="0 0 272 106" fill="none" xmlns="http://www.w3.org/2000/svg">
<rect width="272" height="106" rx="8" fill="white" fill-opacity="0.1"/>
<path d="M40.3813 17.2857C40.3813 16.0214 41.4027 15 42.667 15H47.2384C48.5027 15 49.5241 16.0214 49.5241 17.2857V21.8571C49.5241 23.1214 48.5027 24.1429 47.2384 24.1429H42.667C41.4027 24.1429 40.3813 23.1214 40.3813 21.8571V17.2857ZM36.5313 25.15C37.6241 24.5786 38.9599 24.9571 39.6527 26.05L41.9384 30.0071C42.567 31.1 42.1956 32.4357 41.1027 33.1286L37.1456 35.4143C36.0527 36.0429 34.6527 35.6714 33.9598 34.5786L31.7384 30.6214C31.1098 29.5286 31.4813 28.1286 32.5741 27.4357L36.5313 25.15ZM51.8099 26.4286C53.0741 26.4286 54.0956 27.45 54.0956 28.7143V33.2857C54.0956 34.55 53.0741 35.5714 51.8099 35.5714H47.2384C45.9741 35.5714 44.9527 34.55 44.9527 33.2857V28.7143C44.9527 27.45 45.9741 26.4286 47.2384 26.4286H51.8099ZM56.3813 37.8571C57.6456 37.8571 58.667 38.8786 58.667 40.1429V44.7143C58.667 45.9786 57.6456 47 56.3813 47H51.8099C50.5456 47 49.5241 45.9786 49.5241 44.7143V40.1429C49.5241 38.8786 50.5456 37.8571 51.8099 37.8571H56.3813ZM38.0956 40.1429C38.0956 38.8786 39.117 37.8571 40.3813 37.8571H44.9527C46.217 37.8571 47.2384 38.8786 47.2384 40.1429V44.7143C47.2384 45.9786 46.217 47 44.9527 47H40.3813C39.117 47 38.0956 45.9786 38.0956 44.7143V40.1429ZM33.5241 37.8571C34.7884 37.8571 35.8098 38.8786 35.8098 40.1429V44.7143C35.8098 45.9786 34.7884 47 33.5241 47H28.9527C27.6884 47 26.667 45.9786 26.667 44.7143V40.1429C26.667 38.8786 27.6884 37.8571 28.9527 37.8571H33.5241Z" fill="white"/>
<path d="M31.4007 64.3359L32.307 63.8516C32.0804 63.4023 31.8304 62.9648 31.5531 62.5469C33.2249 61.7188 34.2913 60.6055 34.6195 59.3281V58.4141H28.2132V59.3281H33.5023C33.0999 60.3203 32.264 61.0977 30.9554 61.6953C30.6312 61.2656 30.2757 60.8516 29.8929 60.4453L29.0413 61.0469C29.9788 62.0234 30.7484 63.1094 31.4007 64.3359ZM35.6351 60.8281L35.7992 61.7734C36.721 61.6406 37.7367 61.3203 38.7132 60.8867V64.4219H39.807V60.3398C40.7406 59.8203 41.5804 59.2109 42.1898 58.5781L41.5335 57.8438C40.2093 59.2578 37.6702 60.5352 35.6351 60.8281ZM43.9242 63.2969L44.2367 64.2266C47.3773 63.8984 49.4632 61.8438 49.4632 59.0703V58.6406H46.0687C46.1742 58.4102 46.2679 58.1719 46.346 57.9297L45.307 57.7578C44.8851 58.8945 43.9593 60.0586 42.8773 60.8203L43.5492 61.5312C44.3773 60.9648 45.0492 60.3008 45.5531 59.5547H48.3851C48.1429 61.5586 46.4163 63.0391 43.9242 63.2969ZM50.8148 64.2188H51.8617V63.6953H55.971V64.2188H57.0257V58.4062H50.8148V64.2188ZM51.8617 62.7734V59.3281H55.971V62.7734H51.8617ZM21.0804 75.25L21.2601 76.1953C24.5609 76.1094 26.4085 74.5078 26.6273 71.5703C27.1859 71.5352 27.6273 71.0742 27.6273 70.5078C27.6273 69.9297 27.1546 69.457 26.5726 69.4531C25.9906 69.457 25.5179 69.9297 25.5179 70.5078V70.5156H20.7367V71.4844H25.5765C25.3968 73.9141 23.9124 75.1445 21.0804 75.25ZM26.1585 70.5078C26.1585 70.2852 26.346 70.0977 26.5726 70.1016C26.7992 70.0977 26.9827 70.2852 26.9867 70.5078C26.9827 70.7383 26.7992 70.9219 26.5726 70.9219C26.346 70.9219 26.1585 70.7383 26.1585 70.5078ZM29.1038 75.3281L29.2679 76.25C32.6937 76.1094 34.4437 74.9023 34.4476 72.6719V72.2422H28.2992V73.1562H33.3617C33.1195 74.543 31.7874 75.2227 29.1038 75.3281ZM28.8304 71.2031H34.0101V70.2891H28.8304V71.2031ZM35.8148 75.2656L36.2757 76.1406C37.3695 75.6445 38.3695 74.9883 39.2171 74.2266C39.9945 74.7656 40.6507 75.3711 41.3538 76.1797L42.0804 75.4766C41.3968 74.6953 40.6937 74.0625 39.9281 73.5273C40.5687 72.8359 41.0882 72.0781 41.4476 71.2969V70.3516H36.2132V71.2969H40.307C39.4202 72.9102 37.8656 74.2852 35.8148 75.2656ZM43.9007 75.4531L44.1351 76.375C46.2484 76.2188 47.1038 75.4883 47.2562 73.5859H49.7445V72.6641H47.2835V71.2344C48.0726 71.125 48.7718 70.9883 49.2835 70.8281L49.0101 69.9297C47.8343 70.2773 45.4437 70.5586 43.7367 70.5625V71.4766C44.5531 71.4766 45.4163 71.4336 46.2367 71.3555V72.6641H43.0882V73.5859H46.2093C46.096 74.9531 45.5452 75.3359 43.9007 75.4531ZM52.057 75.2266L52.221 76.1094C55.3187 75.8281 56.4749 74.5742 56.4867 71.5L55.5413 71.4609C55.5335 74.0742 54.7171 74.957 52.057 75.2266ZM51.3226 71.8125C51.5335 72.4375 51.7249 73.1602 51.8773 73.8828L52.7757 73.6953C52.6077 72.9023 52.4242 72.1797 52.221 71.5938L51.3226 71.8125ZM52.9945 71.6094C53.2132 72.25 53.4007 72.9961 53.5492 73.7578L54.4476 73.5547C54.307 72.8242 54.1038 72.0586 53.8929 71.3984L52.9945 71.6094ZM58.9242 75.2969L59.2367 76.2266C62.3773 75.8984 64.4632 73.8438 64.4632 71.0703V70.6406H61.0687C61.1742 70.4102 61.2679 70.1719 61.346 69.9297L60.307 69.7578C59.8851 70.8945 58.9593 72.0586 57.8773 72.8203L58.5492 73.5312C59.3773 72.9648 60.0492 72.3008 60.5531 71.5547H63.3851C63.1429 73.5586 61.4163 75.0391 58.9242 75.2969Z" fill="#2DF781"/>
<path d="M28.8538 87.8672C29.4359 87.8672 30.1038 87.7852 30.721 87.6406L30.6273 87.125C30.0218 87.25 29.3851 87.3359 28.8538 87.3359C27.7874 87.3359 27.0882 86.9844 27.0882 86.4453C27.0882 86.0977 27.3734 85.7383 27.9554 85.3125L27.557 84.9688C26.8734 85.4766 26.5179 85.9844 26.5179 86.4844C26.5179 87.2969 27.471 87.8672 28.8538 87.8672ZM24.7952 85.1719C24.7913 86.2852 24.9007 87.2305 25.1585 88.2422L25.7406 88.1406C25.4984 87.1758 25.389 86.2422 25.3851 85.1719C25.389 84.1016 25.4984 83.1719 25.7406 82.1797L25.1585 82.1016C24.9007 83.1289 24.7913 84.0625 24.7952 85.1719ZM26.8538 83.2188H30.682V82.6875H26.8538V83.2188ZM35.0492 88.2188C36.1859 88.2227 36.8226 87.707 36.8617 86.7422C37.1898 87.0039 37.5882 87.3516 38.096 87.8203L38.4476 87.4219C37.8187 86.8359 37.3109 86.4141 36.8617 86.125V83.4375C37.4554 83.4453 37.9593 83.4688 38.4632 83.5078L38.4945 82.9844C37.8226 82.9297 37.139 82.9102 36.2913 82.9062V85.8086C35.9007 85.6328 35.5374 85.5625 35.1429 85.5625C33.9867 85.5625 33.3577 86.0352 33.3617 86.8906C33.3577 87.7305 33.9749 88.2227 35.0492 88.2188ZM31.7367 83.4375H33.057C32.7093 84.6289 32.307 85.7969 31.807 87.0391L32.346 87.2188C32.8656 85.9219 33.2796 84.6914 33.639 83.4375H35.4476V82.9062H33.7835C33.8812 82.5547 33.971 82.2031 34.057 81.8438L33.5023 81.7734C33.4085 82.1562 33.3109 82.5352 33.2093 82.9062H31.7367V83.4375ZM33.9163 86.875C33.9124 86.3164 34.3109 86.0352 35.1429 86.0391C35.5492 86.0391 35.8773 86.1055 36.2913 86.3477V86.7031C36.2913 87.3633 35.8656 87.7227 35.0492 87.7266C34.3031 87.7227 33.9124 87.4297 33.9163 86.875ZM40.5335 87.6328L40.5648 88.1797C43.9124 88.1836 45.3577 87.1992 45.3617 84.9297C45.3577 83.2461 44.557 82.3242 43.096 82.3281C42.0765 82.3242 41.221 82.7891 40.7288 83.582V82.1719H40.1585V86.0938H40.7288V85.1484C40.7327 83.832 41.7523 82.8789 43.0413 82.875C44.182 82.8789 44.7601 83.5859 44.7601 84.9297C44.7601 86.8555 43.5609 87.6367 40.5335 87.6328ZM49.1117 88.1875C50.2718 88.1914 50.8577 87.707 50.9124 86.6992C51.4437 86.9922 52.0218 87.418 52.7054 88.0078L53.0804 87.625C52.2679 86.9141 51.5726 86.4219 50.9163 86.1133V84.7188H53.0179V84.2188H50.9163V83.1719H53.0882V82.6641H50.9163V81.8125H50.3617V82.6641H47.2445V83.1719H50.3617V84.2188H47.3148V84.7188H50.3617V85.8945C49.9476 85.7578 49.5374 85.6953 49.1117 85.6953C47.9984 85.6992 47.3851 86.1367 47.3851 86.9453C47.3851 87.7461 48.0062 88.1914 49.1117 88.1875ZM47.9632 86.9297C47.9593 86.4414 48.346 86.1953 49.1117 86.1953C49.5296 86.1953 49.932 86.2695 50.3617 86.4375V86.5391C50.3617 87.3359 49.9788 87.6875 49.1117 87.6875C48.3577 87.6875 47.9593 87.4258 47.9632 86.9297ZM55.9632 87.7422L56.0492 88.2734C57.8187 88.1758 58.9554 87.1172 58.9554 85.5938C58.9554 85.3164 58.9163 85.0781 58.8226 84.8516V83.1875H60.9476V82.7109H58.8226V81.7344H58.2288V82.7109H54.3851V83.1875H58.2288V83.9414C57.9554 83.7539 57.6117 83.6523 57.2054 83.6484C56.2406 83.6523 55.6195 84.2383 55.6195 85.1641C55.6195 86.0664 56.2132 86.6523 57.1351 86.6484C57.5999 86.6523 58.0218 86.5039 58.3109 86.2695C58.0648 87.0938 57.1507 87.6758 55.9632 87.7422ZM56.2288 85.1484C56.2249 84.5352 56.6312 84.1562 57.2679 84.1562C57.9007 84.1562 58.3031 84.543 58.307 85.1484C58.3031 85.8242 57.807 86.1484 57.2367 86.1484C56.6156 86.1484 56.2249 85.75 56.2288 85.1484Z" fill="white"/>
<path d="M93.333 53L87.333 56.4641L87.333 49.5359L93.333 53Z" fill="#D9D9D9"/>
<path d="M119.513 23.0182L116.909 21.5182C117.973 19.8409 119.554 17.9045 121.579 16.1932C124.252 13.9432 127.859 12 132.181 12C136.504 12 140.111 13.9432 142.783 16.1932C143.888 17.1341 144.863 18.1432 145.694 19.1386L151.81 15.5727C152.662 15.075 153.746 15.2114 154.449 15.9068C155.144 16.6023 155.294 17.6795 154.803 18.5386L151.681 24L154.803 29.4614C155.294 30.3205 155.144 31.3977 154.449 32.0932C153.746 32.7886 152.669 32.925 151.81 32.4273L145.694 28.8614C144.863 29.8568 143.888 30.8659 142.783 31.8068C140.111 34.0568 136.504 36 132.181 36C127.859 36 124.252 34.0568 121.579 31.8068C119.561 30.1023 117.979 28.1386 116.923 26.475L119.513 24.9818C120.263 24.5455 120.263 23.4545 119.513 23.0182ZM126.727 26.1818C127.934 26.1818 128.909 25.2068 128.909 24C128.909 22.7932 127.934 21.8182 126.727 21.8182C125.52 21.8182 124.545 22.7932 124.545 24C124.545 25.2068 125.52 26.1818 126.727 26.1818Z" fill="white"/>
<path d="M124.398 55.5625H120.804C120.921 55.293 121.023 55.0156 121.109 54.7344L120.577 54.6094C120.316 55.5 119.87 56.3789 119.32 56.9375C119.452 57.0078 119.687 57.1602 119.796 57.2578C120.077 56.9336 120.343 56.5195 120.577 56.0547H124.398V55.5625ZM117.546 57.0938C118.007 57.2969 118.554 57.6367 118.812 57.8984L119.14 57.4609C118.859 57.207 118.308 56.8906 117.851 56.6953L117.546 57.0938ZM117.726 61.1016L118.202 61.4141C118.57 60.7188 119.011 59.7695 119.327 58.9688L118.898 58.6641C118.55 59.5234 118.066 60.5156 117.726 61.1016ZM117.913 55.0859C118.367 55.3125 118.898 55.6797 119.163 55.9531L119.484 55.5156C119.226 55.25 118.667 54.9141 118.226 54.6953L117.913 55.0859ZM119.382 58.7969H120.085C119.98 59.5273 119.863 60.2266 119.757 60.7344L120.281 60.7891C120.3 60.6836 120.32 60.5664 120.343 60.4453H123.171C123.12 60.7148 123.062 60.8711 122.992 60.9453C122.921 61.043 122.847 61.0508 122.71 61.0547C122.562 61.0508 122.218 61.0508 121.827 61.0156C121.906 61.1484 121.956 61.3438 121.968 61.4844C122.339 61.5039 122.706 61.5117 122.921 61.4922C123.148 61.4688 123.3 61.418 123.445 61.2344C123.546 61.1055 123.624 60.8711 123.691 60.4453H124.484V59.9688H123.753C123.785 59.6523 123.816 59.2656 123.843 58.7969H124.538V58.2969H123.87C123.89 57.9141 123.91 57.4883 123.929 57.0078C123.933 56.9336 123.941 56.75 123.937 56.75H120.343C120.296 57.2148 120.23 57.7539 120.156 58.2969H119.382V58.7969ZM120.421 59.9688C120.476 59.6055 120.538 59.207 120.593 58.7969H121.675C121.632 59.2188 121.581 59.6289 121.538 59.9688H120.421ZM120.663 58.2969C120.71 57.9297 120.757 57.5625 120.796 57.2188H121.824C121.8 57.5586 121.765 57.9258 121.73 58.2969H120.663ZM122.011 59.9688C122.054 59.6289 122.101 59.2227 122.148 58.7969H123.343C123.312 59.2773 123.281 59.6641 123.242 59.9688H122.011ZM122.199 58.2969C122.234 57.9297 122.269 57.5586 122.296 57.2188H123.421C123.406 57.6172 123.39 57.9727 123.37 58.2969H122.199ZM131.945 59.25H129.804V58.125H131.523V57.625H129.804V56.5312H131.765V56.0312H130.57C130.792 55.707 131.074 55.2344 131.296 54.8047L130.726 54.6094C130.574 55.0039 130.273 55.5625 130.038 55.9141L130.374 56.0312H128.589L128.96 55.8516C128.851 55.5156 128.542 55.0039 128.242 54.625L127.765 54.8281C128.038 55.1875 128.312 55.6914 128.437 56.0312H127.367V56.5312H129.249V57.625H127.593V58.125H129.249V59.25H127.171V59.7656H129.249V61.5078H129.804V59.7656H131.945V59.25ZM125.038 57.1016C125.535 57.3164 126.132 57.6641 126.429 57.9219L126.726 57.4766C126.429 57.2266 125.816 56.8906 125.327 56.7031L125.038 57.1016ZM125.288 61.0469L125.749 61.4062C126.16 60.7188 126.663 59.7695 127.031 58.9766L126.624 58.625C126.218 59.4805 125.667 60.4688 125.288 61.0469ZM125.437 55.0703C125.933 55.2969 126.511 55.6641 126.796 55.9531L127.117 55.5C126.824 55.2344 126.222 54.8945 125.742 54.6875L125.437 55.0703ZM139.007 56.0781H136.296V54.625H135.734V56.0781H134.183C134.343 55.6914 134.488 55.2852 134.601 54.8672L134.054 54.7422C133.769 55.8203 133.281 56.8633 132.663 57.5312C132.8 57.6016 133.042 57.7617 133.148 57.8516C133.433 57.5117 133.702 57.0859 133.941 56.6094H135.734V58.2891H133.484V58.8047H135.734V60.7422H132.663V61.2656H139.359V60.7422H136.296V58.8047H138.734V58.2891H136.296V56.6094H139.007V56.0781ZM144.257 54.7109L143.765 54.625C143.515 55.7617 143.062 56.8359 142.429 57.5156C142.554 57.5898 142.761 57.7422 142.851 57.8281C143.179 57.4453 143.468 56.9492 143.714 56.3906H144.386C144.035 57.6055 143.367 58.875 142.562 59.5078C142.706 59.5898 142.878 59.7227 142.992 59.8281C143.816 59.1055 144.503 57.6875 144.855 56.3906H145.48C145.089 58.293 144.273 60.1719 143.038 61.0625C143.187 61.1328 143.382 61.2773 143.492 61.3828C144.738 60.3945 145.574 58.3789 145.964 56.3906H146.339C146.179 59.3984 146.007 60.5234 145.773 60.7969C145.687 60.8945 145.613 60.918 145.484 60.9141C145.343 60.918 145.038 60.9102 144.695 60.8828C144.785 61.0312 144.831 61.2578 144.851 61.4219C145.179 61.4453 145.499 61.4453 145.702 61.4219C145.929 61.3906 146.074 61.3359 146.226 61.1328C146.527 60.7578 146.691 59.5898 146.859 56.1641C146.867 56.0898 146.874 55.8867 146.874 55.8906H143.913C144.05 55.5156 144.163 55.1172 144.257 54.7109ZM139.976 57.5625C140.089 57.6172 140.3 57.7461 140.39 57.8125C140.519 57.5 140.624 57.1133 140.718 56.6875H141.421V58.3945C140.89 58.5508 140.402 58.6914 140.015 58.7891L140.163 59.3047C140.535 59.1914 140.968 59.0586 141.421 58.9141V61.5078H141.929V58.7578C142.245 58.6562 142.57 58.5547 142.882 58.4531L142.812 57.9766C142.519 58.0664 142.222 58.1562 141.929 58.2422V56.6875H142.71V56.1641H141.929V54.625H141.421V56.1641H140.82C140.878 55.8242 140.929 55.4727 140.968 55.125L140.499 55.0547C140.406 55.9844 140.253 56.9336 139.976 57.5625ZM147.765 61.0078L148.296 61.1875C149.027 59.5039 149.48 58.1953 149.835 56.6094H150.82C151.855 56.6094 151.96 56.7578 151.96 58.0547C151.96 59.6211 151.62 60.4844 151.07 60.4844C150.812 60.4844 150.152 60.3125 149.64 60.1172L149.499 60.625C150.077 60.8438 150.847 61.0391 151.21 61.0391C152.077 61.0391 152.538 59.9883 152.538 58.1172C152.538 56.2969 152.367 56.0977 150.765 56.0938H149.949C150.027 55.7148 150.101 55.3164 150.171 54.8906L149.609 54.8125C149.531 55.2734 149.452 55.6953 149.37 56.0938H147.648V56.6094H149.257C148.906 58.1484 148.476 59.3594 147.765 61.0078ZM152.257 55.1875C152.554 55.5898 152.792 55.9844 153.054 56.5391L153.507 56.3203C153.249 55.7891 153.019 55.3555 152.687 54.9297L152.257 55.1875ZM153.077 57.0078C153.452 57.9805 153.773 59.1367 153.929 60.0469L154.492 59.9531C154.32 58.9922 153.992 57.8242 153.617 56.8281L153.077 57.0078ZM153.296 54.7734C153.577 55.168 153.812 55.5703 154.07 56.1328L154.515 55.9297C154.277 55.4023 154.038 54.9648 153.71 54.5312L153.296 54.7734Z" fill="white"/>
<path d="M114.413 72.25L114.593 73.1953C117.894 73.1094 119.742 71.5078 119.96 68.5703C120.519 68.5352 120.96 68.0742 120.96 67.5078C120.96 66.9297 120.488 66.457 119.906 66.4531C119.324 66.457 118.851 66.9297 118.851 67.5078V67.5156H114.07V68.4844H118.91C118.73 70.9141 117.245 72.1445 114.413 72.25ZM119.492 67.5078C119.492 67.2852 119.679 67.0977 119.906 67.1016C120.132 67.0977 120.316 67.2852 120.32 67.5078C120.316 67.7383 120.132 67.9219 119.906 67.9219C119.679 67.9219 119.492 67.7383 119.492 67.5078ZM122.437 72.3281L122.601 73.25C126.027 73.1094 127.777 71.9023 127.781 69.6719V69.2422H121.632V70.1562H126.695C126.452 71.543 125.12 72.2227 122.437 72.3281ZM122.163 68.2031H127.343V67.2891H122.163V68.2031ZM129.148 72.2656L129.609 73.1406C130.702 72.6445 131.702 71.9883 132.55 71.2266C133.327 71.7656 133.984 72.3711 134.687 73.1797L135.413 72.4766C134.73 71.6953 134.027 71.0625 133.261 70.5273C133.902 69.8359 134.421 69.0781 134.781 68.2969V67.3516H129.546V68.2969H133.64C132.753 69.9102 131.199 71.2852 129.148 72.2656ZM137.234 72.4531L137.468 73.375C139.581 73.2188 140.437 72.4883 140.589 70.5859H143.077V69.6641H140.617V68.2344C141.406 68.125 142.105 67.9883 142.617 67.8281L142.343 66.9297C141.167 67.2773 138.777 67.5586 137.07 67.5625V68.4766C137.886 68.4766 138.749 68.4336 139.57 68.3555V69.6641H136.421V70.5859H139.542C139.429 71.9531 138.878 72.3359 137.234 72.4531ZM145.39 72.2266L145.554 73.1094C148.652 72.8281 149.808 71.5742 149.82 68.5L148.874 68.4609C148.867 71.0742 148.05 71.957 145.39 72.2266ZM144.656 68.8125C144.867 69.4375 145.058 70.1602 145.21 70.8828L146.109 70.6953C145.941 69.9023 145.757 69.1797 145.554 68.5938L144.656 68.8125ZM146.327 68.6094C146.546 69.25 146.734 69.9961 146.882 70.7578L147.781 70.5547C147.64 69.8242 147.437 69.0586 147.226 68.3984L146.327 68.6094ZM152.257 72.2969L152.57 73.2266C155.71 72.8984 157.796 70.8438 157.796 68.0703V67.6406H154.402C154.507 67.4102 154.601 67.1719 154.679 66.9297L153.64 66.7578C153.218 67.8945 152.292 69.0586 151.21 69.8203L151.882 70.5312C152.71 69.9648 153.382 69.3008 153.886 68.5547H156.718C156.476 70.5586 154.749 72.0391 152.257 72.2969ZM121.296 83.7734H122.312C122.312 83.2031 122.277 82.7266 122.202 82.3281C122.663 82.1836 123.187 82.0508 123.757 81.9297L123.609 81.0938C122.999 81.2148 122.437 81.3594 121.933 81.5156C121.656 81.0078 121.218 80.7773 120.585 80.7812C120.226 80.7773 119.847 80.8594 119.503 81.0195C119.628 80.7812 119.745 80.5391 119.859 80.2891H123.437V79.4688H120.202C120.273 79.2812 120.343 79.0898 120.413 78.8906L119.398 78.7188C119.312 78.9844 119.226 79.2305 119.136 79.4688H117.437V80.2891H118.8C118.445 81.0742 118.015 81.8008 117.398 82.7344L118.242 83.2188C119.003 81.9805 119.558 81.5195 120.281 81.5156C120.605 81.5156 120.835 81.6133 120.995 81.8555C119.589 82.4453 118.792 83.1875 118.796 83.9766C118.792 84.8398 119.71 85.3398 121.265 85.3438C121.917 85.3398 122.913 85.2461 123.679 85.1094L123.546 84.25C122.624 84.4141 121.867 84.4961 121.273 84.4922C120.324 84.4961 119.816 84.2812 119.82 83.8906C119.816 83.4922 120.335 83.0664 121.242 82.6797C121.281 82.9727 121.296 83.3359 121.296 83.7734ZM128.467 79.024C129.195 79.848 130.571 80.736 131.723 81.232C131.891 80.952 132.107 80.616 132.331 80.376C131.083 79.976 129.803 79.184 128.907 78.184H127.931C127.299 79.008 126.003 79.952 124.683 80.464C124.875 80.664 125.123 81.024 125.235 81.248C126.507 80.704 127.779 79.824 128.467 79.024ZM126.699 81.568V82.256H130.227V81.568H126.699ZM127.979 79.792V80.872H128.971V79.792H127.979ZM125.275 84.76L125.403 85.648C126.323 85.56 127.587 85.448 128.771 85.328L128.763 84.472C127.507 84.592 126.171 84.696 125.275 84.76ZM128.747 83.152L127.931 83.376C128.643 84.688 129.819 85.432 131.595 85.728C131.723 85.472 131.971 85.088 132.179 84.888C130.507 84.696 129.315 84.128 128.747 83.152ZM131.107 82.992C130.627 83.368 129.835 83.856 129.243 84.136L129.819 84.656C130.411 84.4 131.179 83.976 131.803 83.568L131.107 82.992ZM126.699 80.408V81.152H129.899V82.696H126.699V83.44H130.867V80.408H126.699ZM126.107 80.408V84.976L127.059 84.872V80.408H126.107ZM139.101 84.9141L139.827 84.1094C138.894 83.1914 138.042 82.3047 137.124 81.2656C136.359 80.4023 136.117 80.2383 135.554 80.2344C134.984 80.2383 134.71 80.4648 134.054 81.4453C133.702 81.9688 133.269 82.5859 132.671 83.3516L133.46 84.0156C134.035 83.25 134.429 82.6797 134.749 82.1719C135.222 81.4453 135.37 81.2891 135.554 81.2891C135.742 81.2891 135.913 81.4375 136.445 82.0469C137.21 82.9297 137.964 83.7656 139.101 84.9141ZM136.968 79.5078C137.312 80.0039 137.574 80.4492 137.804 80.9766L138.484 80.6328C138.242 80.0938 137.984 79.6406 137.64 79.1484L136.968 79.5078ZM138.202 79.0781C138.531 79.5703 138.781 80.0234 139.007 80.5469L139.679 80.2422C139.452 79.6992 139.199 79.2383 138.867 78.7344L138.202 79.0781ZM142.781 85.2969C143.886 85.2969 144.523 84.8906 144.687 84.0625C145.097 84.332 145.554 84.6953 146.101 85.1719L146.742 84.5156C145.98 83.8359 145.339 83.3594 144.734 83.0469V81.9531H146.679V81.1094H144.734V80.4297H146.757V79.5625H144.734V78.8438H143.765V79.5625H140.749V80.4297H143.765V81.1094H140.82V81.9531H143.765V82.6758C143.445 82.5977 143.12 82.5625 142.781 82.5625C141.546 82.5586 140.874 83.0352 140.874 83.9141C140.874 84.8008 141.562 85.2969 142.781 85.2969ZM141.89 83.8984C141.894 83.5547 142.187 83.3828 142.781 83.3828C143.109 83.3828 143.425 83.4375 143.765 83.5664C143.765 84.1562 143.445 84.4297 142.757 84.4297C142.191 84.4297 141.894 84.2422 141.89 83.8984ZM149.335 84.4766L149.499 85.375C151.542 85.2773 152.71 84.332 152.71 82.8047C152.71 82.4531 152.644 82.1562 152.507 81.8906V80.3828H154.577V79.5703H152.507V78.7422H151.476V79.5703H147.921V80.3828H151.476V80.8516C151.253 80.7383 151.027 80.6836 150.749 80.6797C149.73 80.6836 149.023 81.3047 149.023 82.2266C149.023 83.1523 149.675 83.7617 150.679 83.7656C151.031 83.7617 151.37 83.668 151.628 83.5117C151.39 84.0273 150.48 84.418 149.335 84.4766ZM150.031 82.2266C150.035 81.7578 150.351 81.457 150.827 81.4531C151.3 81.457 151.613 81.7617 151.609 82.2266C151.613 82.7109 151.261 82.9922 150.812 82.9922C150.343 82.9922 150.035 82.6797 150.031 82.2266Z" fill="#2DF781"/>
<path d="M186.667 53L180.667 56.4641L180.667 49.5359L186.667 53Z" fill="#D9D9D9"/>
<path d="M245.334 10.6667V37.3333C245.334 38.8 244.134 40 242.667 40H242.267C240.801 40 239.601 38.8 239.601 37.3333V33.0667H236.534C235.067 33.0667 233.867 31.8667 233.867 30.4V20.4C233.867 17.7333 234.667 15.2 236.134 13.0667C237.601 10.9333 239.734 9.2 242.134 8.26667C242.401 8.13333 242.667 8 242.934 8C244.267 8.13333 245.334 9.33333 245.334 10.6667Z" fill="white"/>
<path d="M229.2 18.6667C229.466 19.6 229.466 20.5333 229.2 21.4667C228.933 22.2667 228.533 23.2 228 24C226.933 25.2 225.733 25.8667 224.133 26.2667V37.3333C224.133 38.8 222.933 40 221.466 40H221.066C219.6 40 218.4 38.8 218.4 37.3333V26.1333C217.066 25.8667 215.733 25.0667 214.666 24C214.666 24 214.666 23.8667 214.533 23.8667C214 23.2 213.6 22.2667 213.333 21.3333C213.333 20.5333 213.333 19.4667 213.466 18.6667L214.666 13.0667L215.6 8.93333C215.6 8.66667 215.866 8.4 216 8.26667C216.266 8 216.533 8 216.8 8H216.933C217.2 8 217.466 8.13333 217.6 8.4C217.733 8.66667 217.866 8.93333 217.866 9.2V19.4667H219.066L220.266 8.93333C220.266 8.66667 220.4 8.53333 220.533 8.26667C220.933 8.13333 221.066 8 221.333 8C221.6 8 221.866 8.13333 222 8.26667C222.133 8.4 222.266 8.66667 222.266 8.93333L223.466 19.4667H224.666V9.2C224.666 8.93333 224.8 8.66667 224.933 8.4C225.2 8.13333 225.466 8 225.733 8H225.866C226.133 8 226.266 8.13333 226.533 8.26667C226.8 8.4 226.933 8.66667 226.933 8.93333L229.2 18.6667Z" fill="white"/>
<path d="M206.901 54.352V55.184H210.773V54.352H206.901ZM206.333 57.816V58.656H212.197V57.816H206.333ZM204.957 56.048V56.904H212.413V56.048H204.957ZM206.589 52.944V53.8H212.061V52.944H206.589ZM210.469 54.352V54.544C210.349 57.504 210.197 58.664 209.973 58.92C209.885 59.024 209.813 59.056 209.661 59.056C209.485 59.056 209.165 59.048 208.773 59.016C208.893 59.216 208.989 59.528 208.997 59.728C209.429 59.744 209.853 59.752 210.117 59.72C210.405 59.68 210.621 59.6 210.821 59.328C211.101 58.968 211.269 57.896 211.405 54.768C211.405 54.648 211.413 54.352 211.413 54.352H210.469ZM206.493 54.352C206.341 55.856 206.045 57.816 205.789 59.04L206.765 59.104C206.989 57.896 207.269 55.92 207.453 54.352H206.493ZM208.453 54.768C208.381 55.904 208.213 57.376 208.061 58.288H208.957C209.093 57.4 209.261 55.928 209.357 54.768H208.453ZM206.749 52.2C206.445 52.976 205.885 53.888 205.029 54.576C205.277 54.696 205.645 54.968 205.829 55.184C206.733 54.352 207.325 53.376 207.781 52.376L206.749 52.2ZM214.669 52.176C214.325 53.216 213.701 54.24 212.981 54.864C213.213 55 213.621 55.32 213.805 55.488C214.517 54.768 215.221 53.616 215.645 52.424L214.669 52.176ZM214.837 53.088L214.373 54.016H219.925V53.088H214.837ZM214.269 54.976V57.552H215.237V55.872H219.741V54.976H214.269ZM213.005 57.08V58.008H220.365V57.08H213.005ZM216.621 53.568V59.72H217.613V53.568H216.621ZM223.208 59.0781C224.482 59.0781 225.349 58.2617 225.349 57.1172C225.349 56.0312 224.576 55.2539 223.536 55.2578C223.04 55.2539 222.611 55.457 222.404 55.7344H222.357L222.513 54.3047H225.029V53.3438H221.544L221.24 56.6016H222.302C222.47 56.2852 222.767 56.125 223.193 56.125C223.786 56.1289 224.212 56.5469 224.208 57.1484C224.212 57.7383 223.794 58.1523 223.208 58.1484C222.716 58.1523 222.314 57.8477 222.286 57.4062H221.146C221.165 58.3828 222.029 59.0781 223.208 59.0781ZM228.341 59.0781C229.755 59.0781 230.615 58.0312 230.615 56.1719C230.615 54.3242 229.751 53.2656 228.341 53.2656C226.931 53.2656 226.068 54.3242 226.068 56.1719C226.068 58.0234 226.923 59.0781 228.341 59.0781ZM227.271 56.1719C227.271 54.8789 227.689 54.2305 228.341 54.2266C228.993 54.2305 229.415 54.8789 229.411 56.1719C229.415 57.4766 228.997 58.1094 228.341 58.1094C227.685 58.1094 227.263 57.4766 227.271 56.1719ZM235.318 53.704V54.608H238.71V53.704H235.318ZM235.582 54.104L234.87 54.592C235.23 56.488 236.006 58.736 238.134 59.744C238.27 59.472 238.598 59.04 238.798 58.84C236.694 58.016 235.918 55.936 235.582 54.104ZM237.246 54.048C236.942 56.232 236.182 58.104 233.886 58.96C234.07 59.152 234.35 59.528 234.478 59.744C236.958 58.736 237.83 56.656 238.278 54.2L237.246 54.048ZM235.47 52.192C235.214 53.464 234.726 54.64 233.982 55.352C234.174 55.568 234.494 56.04 234.606 56.272C235.502 55.368 236.118 53.928 236.47 52.392L235.47 52.192ZM231.334 53.856V54.768H234.326V53.856H231.334ZM232.438 52.208V59.72H233.358V52.208H232.438ZM232.39 54.472C232.182 55.52 231.678 56.784 231.126 57.504C231.27 57.744 231.486 58.128 231.582 58.4C232.198 57.56 232.71 55.984 232.958 54.672L232.39 54.472ZM233.262 55.248L232.838 55.688C233.158 56.144 233.822 57.168 234.094 57.72L234.63 56.952C234.438 56.68 233.518 55.512 233.262 55.248ZM243.326 58.2422L243.615 59.1406C245.087 58.957 246.087 57.7539 246.091 56.1562C246.087 54.3477 244.771 53.2695 242.943 53.2734C240.865 53.2695 239.376 54.6406 239.38 56.5547C239.376 57.9219 240.13 58.9609 241.122 58.9609C242.251 58.9609 242.892 57.6094 243.353 54.2227C244.392 54.375 245.087 55.0859 245.091 56.1562C245.087 57.2656 244.376 58.1094 243.326 58.2422ZM240.318 56.5547C240.322 55.4336 241.181 54.5 242.341 54.2578C242.025 56.5859 241.564 57.9414 241.068 57.9375C240.701 57.9414 240.322 57.2344 240.318 56.5547ZM247.74 58.2969L248.052 59.2266C251.193 58.8984 253.279 56.8438 253.279 54.0703V53.6406H249.884C249.99 53.4102 250.083 53.1719 250.161 52.9297L249.122 52.7578C248.701 53.8945 247.775 55.0586 246.693 55.8203L247.365 56.5312C248.193 55.9648 248.865 55.3008 249.368 54.5547H252.201C251.958 56.5586 250.232 58.0391 247.74 58.2969ZM207.904 71.1094H208.333C211.22 71.1094 213.072 69.9492 213.982 67.5547L213.107 67.1797C212.337 69.0586 211.076 69.9688 208.997 70.1133V65.0703H207.904V71.1094ZM215.177 70.2422L215.333 71.2109C218.849 71.0859 220.685 69.6914 221.224 66.7031L220.224 66.5469C219.767 69.043 218.247 70.1484 215.177 70.2422ZM214.872 67.8359C215.759 67.9531 216.521 68.0898 217.474 68.3125L217.685 67.4219C216.74 67.1953 215.974 67.0586 215.083 66.9453L214.872 67.8359ZM215.224 66.0391C216.146 66.1523 216.935 66.293 217.896 66.5156L218.115 65.6172C217.154 65.3945 216.357 65.2617 215.435 65.1484L215.224 66.0391ZM219.13 64.9375C219.454 65.3594 219.704 65.7656 219.974 66.3047L220.599 65.9609C220.337 65.4297 220.079 64.9922 219.74 64.5703L219.13 64.9375ZM220.396 64.7812C220.689 65.2148 220.919 65.6328 221.161 66.1797L221.794 65.8906C221.56 65.3438 221.326 64.9023 221.013 64.4531L220.396 64.7812ZM223.724 70.2266L223.888 71.1094C226.986 70.8281 228.142 69.5742 228.154 66.5L227.208 66.4609C227.201 69.0742 226.384 69.957 223.724 70.2266ZM222.99 66.8125C223.201 67.4375 223.392 68.1602 223.544 68.8828L224.443 68.6953C224.275 67.9023 224.091 67.1797 223.888 66.5938L222.99 66.8125ZM224.661 66.6094C224.88 67.25 225.068 67.9961 225.216 68.7578L226.115 68.5547C225.974 67.8242 225.771 67.0586 225.56 66.3984L224.661 66.6094ZM236.005 69.375L236.326 68.4062C234.911 67.9258 233.353 67.4766 231.951 67.1602V64.9141H230.88V71.4219H231.951V68.1914C233.201 68.4922 234.603 68.8945 236.005 69.375ZM242.263 71.0859C243.435 71.082 243.615 70.457 243.615 66.4141V65.9219H240.236C240.247 65.5508 240.255 65.1523 240.255 64.7266H239.255C239.255 65.1602 239.251 65.5586 239.24 65.9219H237.372V66.8438H239.189C239.029 68.793 238.54 69.6094 237.318 70.5078L237.997 71.2266C239.388 70.2422 239.986 69.1367 240.181 66.8438H242.583C242.536 69.9297 242.474 70.1094 241.951 70.1094C241.654 70.1094 240.911 70.0625 240.497 70.0156L240.411 70.9609C241.072 71.0312 241.814 71.082 242.263 71.0859ZM245.208 68.6328H250.958V67.7109H245.208V68.6328ZM211.826 78.9453L212.505 78.6016C212.263 78.0625 212.005 77.6094 211.661 77.1172L210.99 77.4766C211.333 77.9727 211.595 78.418 211.826 78.9453ZM208.302 83.4219H209.372V80.1914C210.622 80.4922 212.025 80.8945 213.427 81.375L213.747 80.4062C212.333 79.9258 210.775 79.4766 209.372 79.1602V76.9141H208.302V83.4219ZM212.224 77.0469C212.552 77.5391 212.802 77.9922 213.029 78.5156L213.701 78.2109C213.474 77.668 213.22 77.207 212.888 76.7031L212.224 77.0469ZM221.801 89.024C222.529 89.848 223.905 90.736 225.057 91.232C225.225 90.952 225.441 90.616 225.665 90.376C224.417 89.976 223.137 89.184 222.241 88.184H221.265C220.633 89.008 219.337 89.952 218.017 90.464C218.209 90.664 218.457 91.024 218.569 91.248C219.841 90.704 221.113 89.824 221.801 89.024ZM220.033 91.568V92.256H223.561V91.568H220.033ZM221.313 89.792V90.872H222.305V89.792H221.313ZM218.609 94.76L218.737 95.648C219.657 95.56 220.921 95.448 222.105 95.328L222.097 94.472C220.841 94.592 219.505 94.696 218.609 94.76ZM222.081 93.152L221.265 93.376C221.977 94.688 223.153 95.432 224.929 95.728C225.057 95.472 225.305 95.088 225.513 94.888C223.841 94.696 222.649 94.128 222.081 93.152ZM224.441 92.992C223.961 93.368 223.169 93.856 222.577 94.136L223.153 94.656C223.745 94.4 224.513 93.976 225.137 93.568L224.441 92.992ZM220.033 90.408V91.152H223.233V92.696H220.033V93.44H224.201V90.408H220.033ZM219.441 90.408V94.976L220.393 94.872V90.408H219.441ZM232.435 94.9141L233.161 94.1094C232.228 93.1914 231.376 92.3047 230.458 91.2656C229.693 90.4023 229.451 90.2383 228.888 90.2344C228.318 90.2383 228.044 90.4648 227.388 91.4453C227.036 91.9688 226.603 92.5859 226.005 93.3516L226.794 94.0156C227.368 93.25 227.763 92.6797 228.083 92.1719C228.556 91.4453 228.704 91.2891 228.888 91.2891C229.076 91.2891 229.247 91.4375 229.779 92.0469C230.544 92.9297 231.298 93.7656 232.435 94.9141ZM230.302 89.5078C230.646 90.0039 230.908 90.4492 231.138 90.9766L231.818 90.6328C231.576 90.0938 231.318 89.6406 230.974 89.1484L230.302 89.5078ZM231.536 89.0781C231.865 89.5703 232.115 90.0234 232.341 90.5469L233.013 90.2422C232.786 89.6992 232.533 89.2383 232.201 88.7344L231.536 89.0781ZM236.115 95.2969C237.22 95.2969 237.857 94.8906 238.021 94.0625C238.431 94.332 238.888 94.6953 239.435 95.1719L240.076 94.5156C239.314 93.8359 238.673 93.3594 238.068 93.0469V91.9531H240.013V91.1094H238.068V90.4297H240.091V89.5625H238.068V88.8438H237.099V89.5625H234.083V90.4297H237.099V91.1094H234.154V91.9531H237.099V92.6758C236.779 92.5977 236.454 92.5625 236.115 92.5625C234.88 92.5586 234.208 93.0352 234.208 93.9141C234.208 94.8008 234.896 95.2969 236.115 95.2969ZM235.224 93.8984C235.228 93.5547 235.521 93.3828 236.115 93.3828C236.443 93.3828 236.759 93.4375 237.099 93.5664C237.099 94.1562 236.779 94.4297 236.091 94.4297C235.525 94.4297 235.228 94.2422 235.224 93.8984ZM242.669 94.4766L242.833 95.375C244.876 95.2773 246.044 94.332 246.044 92.8047C246.044 92.4531 245.978 92.1562 245.841 91.8906V90.3828H247.911V89.5703H245.841V88.7422H244.81V89.5703H241.255V90.3828H244.81V90.8516C244.587 90.7383 244.361 90.6836 244.083 90.6797C243.064 90.6836 242.357 91.3047 242.357 92.2266C242.357 93.1523 243.009 93.7617 244.013 93.7656C244.365 93.7617 244.704 93.668 244.962 93.5117C244.724 94.0273 243.814 94.418 242.669 94.4766ZM243.365 92.2266C243.368 91.7578 243.685 91.457 244.161 91.4531C244.634 91.457 244.947 91.7617 244.943 92.2266C244.947 92.7109 244.595 92.9922 244.146 92.9922C243.677 92.9922 243.368 92.6797 243.365 92.2266Z" fill="#2DF781"/>
<path d="M218.802 82.5L218.951 83.0234C220.333 82.875 221.337 81.668 221.341 80.1406C221.337 78.457 220.091 77.3828 218.326 77.3828C216.314 77.3828 214.837 78.7344 214.833 80.5625C214.837 81.8086 215.509 82.8242 216.357 82.8203C217.408 82.8242 218.083 81.2227 218.474 77.918C219.849 77.9805 220.767 78.8477 220.771 80.1406C220.767 81.3906 219.935 82.3789 218.802 82.5ZM215.372 80.5625C215.376 79.2109 216.451 78.125 217.896 77.9414C217.583 80.6445 217.001 82.2383 216.326 82.2344C215.833 82.2383 215.376 81.4336 215.372 80.5625ZM223.685 78.3516V77.9297H227.458V78.3516H223.685ZM222.185 83.3203H228.997V82.9062H225.833V82.4531H228.38V82.0703H225.833V81.6484H228.216V79.7734H223.029V81.6484H225.31V82.0703H222.81V82.4531H225.31V82.9062H222.185V83.3203ZM222.232 79.4219H228.943V79.0078H222.232V79.4219ZM223.161 78.6797H227.997V76.8594H223.161V78.6797ZM223.544 81.3125V80.8672H225.31V81.3125H223.544ZM223.544 80.5469V80.1094H225.31V80.5469H223.544ZM223.685 77.6094V77.1875H227.458V77.6094H223.685ZM225.833 81.3125V80.8672H227.685V81.3125H225.833ZM225.833 80.5469V80.1094H227.685V80.5469H225.833ZM233.771 81.8125H234.349C234.349 81.1172 234.298 80.5508 234.189 80.1094C234.716 79.9141 235.31 79.7383 235.958 79.5859L235.865 79.0938C235.197 79.2461 234.579 79.4258 234.029 79.6289C233.763 79.0391 233.318 78.7773 232.661 78.7812C232.236 78.7773 231.833 78.8945 231.454 79.1211C231.634 78.7773 231.794 78.4375 231.951 78.0859H235.724V77.6016H232.154C232.247 77.3672 232.337 77.125 232.427 76.8672L231.849 76.7656C231.747 77.0625 231.65 77.3359 231.544 77.6016H229.794V78.0859H231.341C230.943 78.9922 230.474 79.8164 229.794 80.9062L230.286 81.1797C231.138 79.7773 231.743 79.2578 232.513 79.2578C232.962 79.2578 233.279 79.4375 233.478 79.8477C232.021 80.4688 231.15 81.2461 231.146 82C231.15 82.7852 232.056 83.2422 233.583 83.2422C234.263 83.2422 235.177 83.1523 235.904 83.0078L235.818 82.5078C235.029 82.6641 234.232 82.7461 233.591 82.7422C232.408 82.7461 231.736 82.457 231.732 81.9531C231.736 81.4336 232.454 80.8398 233.642 80.3242C233.732 80.707 233.771 81.1953 233.771 81.8125ZM240.818 76.8594H240.208C240.165 77.8477 240.158 81.4688 237.091 83.0312C237.259 83.1406 237.431 83.3047 237.521 83.4453C239.454 82.4023 240.232 80.5586 240.56 79.0352C240.923 80.5586 241.755 82.5117 243.708 83.4453C243.794 83.3008 243.962 83.1133 244.122 82.9922C241.279 81.6914 240.865 78.1914 240.798 77.1953C240.806 77.0703 240.814 76.957 240.818 76.8594ZM249.466 80.0859H246.677V83.1953H247.161V82.8125H249.466V80.0859ZM245.013 83.5156H245.552V79.5078H247.724V76.9453H245.013V83.5156ZM245.552 79.0938V78.4062H247.224V79.0938H245.552ZM245.552 78.0078V77.3672H247.224V78.0078H245.552ZM247.161 82.3828V81.6406H248.966V82.3828H247.161ZM247.161 81.2188V80.5156H248.966V81.2188H247.161ZM248.419 79.5234H250.654V82.7812C250.654 82.918 250.607 82.957 250.482 82.9609C250.345 82.9648 249.884 82.9688 249.427 82.9609C249.501 83.1094 249.583 83.3633 249.615 83.5078C250.236 83.5117 250.638 83.5039 250.872 83.4141C251.115 83.3164 251.197 83.1406 251.201 82.7891V76.9453H248.419V79.5234ZM248.927 79.1016V78.4062H250.654V79.1016H248.927ZM248.927 78.0078V77.3672H250.654V78.0078H248.927ZM210.849 95.0078L211.38 95.1875C212.111 93.5039 212.564 92.1953 212.919 90.6094H213.904C214.939 90.6094 215.044 90.7578 215.044 92.0547C215.044 93.6211 214.704 94.4844 214.154 94.4844C213.896 94.4844 213.236 94.3125 212.724 94.1172L212.583 94.625C213.161 94.8438 213.931 95.0391 214.294 95.0391C215.161 95.0391 215.622 93.9883 215.622 92.1172C215.622 90.2969 215.451 90.0977 213.849 90.0938H213.033C213.111 89.7148 213.185 89.3164 213.255 88.8906L212.693 88.8125C212.615 89.2734 212.536 89.6953 212.454 90.0938H210.732V90.6094H212.341C211.99 92.1484 211.56 93.3594 210.849 95.0078ZM215.341 89.1875C215.638 89.5898 215.876 89.9844 216.138 90.5391L216.591 90.3203C216.333 89.7891 216.103 89.3555 215.771 88.9297L215.341 89.1875ZM216.161 91.0078C216.536 91.9805 216.857 93.1367 217.013 94.0469L217.576 93.9531C217.404 92.9922 217.076 91.8242 216.701 90.8281L216.161 91.0078ZM216.38 88.7734C216.661 89.168 216.896 89.5703 217.154 90.1328L217.599 89.9297C217.361 89.4023 217.122 88.9648 216.794 88.5312L216.38 88.7734Z" fill="white"/>
</svg>
