<?xml version="1.0" encoding="utf-8"?>
<!-- Generator: Adobe Illustrator 27.0.0, SVG Export Plug-In . SVG Version: 6.00 Build 0)  -->
<svg version="1.1" id="레이어_1" xmlns="http://www.w3.org/2000/svg" xmlns:xlink="http://www.w3.org/1999/xlink" x="0px"
	 y="0px" viewBox="0 0 272 106" style="enable-background:new 0 0 272 106;" xml:space="preserve">
<style type="text/css">
	.st0{fill:#FFFFFF;fill-opacity:0.1;}
	.st1{fill:#FFFFFF;}
	.st2{fill:#2DF781;}
	.st3{fill:#D9D9D9;}
</style>
<path class="st0" d="M8,0h256c4.4,0,8,3.6,8,8v90c0,4.4-3.6,8-8,8H8c-4.4,0-8-3.6-8-8V8C0,3.6,3.6,0,8,0z"/>
<path class="st1" d="M40.4,16.9c0-1.3,1-2.3,2.3-2.3h4.6c1.3,0,2.3,1,2.3,2.3v4.6c0,1.3-1,2.3-2.3,2.3h-4.6c-1.3,0-2.3-1-2.3-2.3
	V16.9z M36.5,24.7c1.1-0.6,2.4-0.2,3.1,0.9l2.3,4c0.6,1.1,0.3,2.4-0.8,3.1l-4,2.3c-1.1,0.6-2.5,0.3-3.2-0.8l-2.2-4
	c-0.6-1.1-0.3-2.5,0.8-3.2L36.5,24.7z M51.8,26c1.3,0,2.3,1,2.3,2.3v4.6c0,1.3-1,2.3-2.3,2.3h-4.6c-1.3,0-2.3-1-2.3-2.3v-4.6
	c0-1.3,1-2.3,2.3-2.3H51.8z M56.4,37.5c1.3,0,2.3,1,2.3,2.3v4.6c0,1.3-1,2.3-2.3,2.3h-4.6c-1.3,0-2.3-1-2.3-2.3v-4.6
	c0-1.3,1-2.3,2.3-2.3H56.4z M38.1,39.7c0-1.3,1-2.3,2.3-2.3H45c1.3,0,2.3,1,2.3,2.3v4.6c0,1.3-1,2.3-2.3,2.3h-4.6
	c-1.3,0-2.3-1-2.3-2.3V39.7z M33.5,37.5c1.3,0,2.3,1,2.3,2.3v4.6c0,1.3-1,2.3-2.3,2.3H29c-1.3,0-2.3-1-2.3-2.3v-4.6
	c0-1.3,1-2.3,2.3-2.3H33.5z"/>
<path class="st2" d="M31.4,64.3l0.9-0.5c-0.2-0.4-0.5-0.9-0.8-1.3c1.7-0.8,2.7-1.9,3.1-3.2v-0.9h-6.4v0.9h5.3
	c-0.4,1-1.2,1.8-2.5,2.4c-0.3-0.4-0.7-0.8-1.1-1.2L29,61C30,62,30.7,63.1,31.4,64.3z M35.6,60.8l0.2,0.9c0.9-0.1,1.9-0.5,2.9-0.9
	v3.5h1.1v-4.1c0.9-0.5,1.8-1.1,2.4-1.8l-0.7-0.7C40.2,59.3,37.7,60.5,35.6,60.8z M43.9,63.3l0.3,0.9c3.1-0.3,5.2-2.4,5.2-5.2v-0.4
	h-3.4c0.1-0.2,0.2-0.5,0.3-0.7l-1-0.2c-0.4,1.1-1.3,2.3-2.4,3.1l0.7,0.7c0.8-0.6,1.5-1.2,2-2h2.8C48.1,61.6,46.4,63,43.9,63.3z
	 M50.8,64.2h1v-0.5H56v0.5H57v-5.8h-6.2V64.2z M51.9,62.8v-3.4H56v3.4H51.9z M21.1,75.2l0.2,0.9c3.3-0.1,5.1-1.7,5.4-4.6
	c0.6,0,1-0.5,1-1.1c0-0.6-0.5-1.1-1.1-1.1c-0.6,0-1.1,0.5-1.1,1.1v0h-4.8v1h4.8C25.4,73.9,23.9,75.1,21.1,75.2z M26.2,70.5
	c0-0.2,0.2-0.4,0.4-0.4c0.2,0,0.4,0.2,0.4,0.4c0,0.2-0.2,0.4-0.4,0.4C26.3,70.9,26.2,70.7,26.2,70.5z M29.1,75.3l0.2,0.9
	c3.4-0.1,5.2-1.3,5.2-3.6v-0.4h-6.1v0.9h5.1C33.1,74.5,31.8,75.2,29.1,75.3z M28.8,71.2H34v-0.9h-5.2V71.2z M35.8,75.3l0.5,0.9
	c1.1-0.5,2.1-1.2,2.9-1.9c0.8,0.5,1.4,1.1,2.1,2l0.7-0.7c-0.7-0.8-1.4-1.4-2.2-1.9c0.6-0.7,1.2-1.4,1.5-2.2v-0.9h-5.2v0.9h4.1
	C39.4,72.9,37.9,74.3,35.8,75.3z M43.9,75.5l0.2,0.9c2.1-0.2,3-0.9,3.1-2.8h2.5v-0.9h-2.5v-1.4c0.8-0.1,1.5-0.2,2-0.4L49,69.9
	c-1.2,0.3-3.6,0.6-5.3,0.6v0.9c0.8,0,1.7,0,2.5-0.1v1.3h-3.1v0.9h3.1C46.1,75,45.5,75.3,43.9,75.5z M52.1,75.2l0.2,0.9
	c3.1-0.3,4.3-1.5,4.3-4.6l-0.9,0C55.5,74.1,54.7,75,52.1,75.2z M51.3,71.8c0.2,0.6,0.4,1.3,0.6,2.1l0.9-0.2
	c-0.2-0.8-0.4-1.5-0.6-2.1L51.3,71.8z M53,71.6c0.2,0.6,0.4,1.4,0.6,2.1l0.9-0.2c-0.1-0.7-0.3-1.5-0.6-2.2L53,71.6z M58.9,75.3
	l0.3,0.9c3.1-0.3,5.2-2.4,5.2-5.2v-0.4h-3.4c0.1-0.2,0.2-0.5,0.3-0.7l-1-0.2c-0.4,1.1-1.3,2.3-2.4,3.1l0.7,0.7c0.8-0.6,1.5-1.2,2-2
	h2.8C63.1,73.6,61.4,75,58.9,75.3z"/>
<path class="st1" d="M28.9,87.9c0.6,0,1.2-0.1,1.9-0.2l-0.1-0.5c-0.6,0.1-1.2,0.2-1.8,0.2c-1.1,0-1.8-0.4-1.8-0.9
	c0-0.3,0.3-0.7,0.9-1.1L27.6,85c-0.7,0.5-1,1-1,1.5C26.5,87.3,27.5,87.9,28.9,87.9z M24.8,85.2c0,1.1,0.1,2.1,0.4,3.1l0.6-0.1
	c-0.2-1-0.4-1.9-0.4-3c0-1.1,0.1-2,0.4-3l-0.6-0.1C24.9,83.1,24.8,84.1,24.8,85.2z M26.9,83.2h3.8v-0.5h-3.8V83.2z M35,88.2
	c1.1,0,1.8-0.5,1.8-1.5c0.3,0.3,0.7,0.6,1.2,1.1l0.4-0.4c-0.6-0.6-1.1-1-1.6-1.3v-2.7c0.6,0,1.1,0,1.6,0.1l0-0.5
	c-0.7-0.1-1.4-0.1-2.2-0.1v2.9c-0.4-0.2-0.8-0.2-1.1-0.2c-1.2,0-1.8,0.5-1.8,1.3C33.4,87.7,34,88.2,35,88.2z M31.7,83.4h1.3
	c-0.3,1.2-0.8,2.4-1.2,3.6l0.5,0.2c0.5-1.3,0.9-2.5,1.3-3.8h1.8v-0.5h-1.7c0.1-0.4,0.2-0.7,0.3-1.1l-0.6-0.1
	c-0.1,0.4-0.2,0.8-0.3,1.1h-1.5V83.4z M33.9,86.9c0-0.6,0.4-0.8,1.2-0.8c0.4,0,0.7,0.1,1.1,0.3v0.4c0,0.7-0.4,1-1.2,1
	C34.3,87.7,33.9,87.4,33.9,86.9z M40.5,87.6l0,0.5c3.3,0,4.8-1,4.8-3.2c0-1.7-0.8-2.6-2.3-2.6c-1,0-1.9,0.5-2.4,1.3v-1.4h-0.6v3.9
	h0.6v-0.9c0-1.3,1-2.3,2.3-2.3c1.1,0,1.7,0.7,1.7,2.1C44.8,86.9,43.6,87.6,40.5,87.6z M49.1,88.2c1.2,0,1.7-0.5,1.8-1.5
	c0.5,0.3,1.1,0.7,1.8,1.3l0.4-0.4c-0.8-0.7-1.5-1.2-2.2-1.5v-1.4H53v-0.5h-2.1v-1h2.2v-0.5h-2.2v-0.9h-0.6v0.9h-3.1v0.5h3.1v1h-3
	v0.5h3v1.2c-0.4-0.1-0.8-0.2-1.2-0.2c-1.1,0-1.7,0.4-1.7,1.2C47.4,87.7,48,88.2,49.1,88.2z M48,86.9c0-0.5,0.4-0.7,1.1-0.7
	c0.4,0,0.8,0.1,1.2,0.2v0.1c0,0.8-0.4,1.1-1.2,1.1C48.4,87.7,48,87.4,48,86.9z M56,87.7l0.1,0.5c1.8-0.1,2.9-1.2,2.9-2.7
	c0-0.3,0-0.5-0.1-0.7v-1.7h2.1v-0.5h-2.1v-1h-0.6v1h-3.8v0.5h3.8v0.8c-0.3-0.2-0.6-0.3-1-0.3c-1,0-1.6,0.6-1.6,1.5
	c0,0.9,0.6,1.5,1.5,1.5c0.5,0,0.9-0.1,1.2-0.4C58.1,87.1,57.2,87.7,56,87.7z M56.2,85.1c0-0.6,0.4-1,1-1c0.6,0,1,0.4,1,1
	c0,0.7-0.5,1-1.1,1C56.6,86.1,56.2,85.7,56.2,85.1z"/>
<path class="st3" d="M93.3,53l-6,3.5v-6.9L93.3,53z"/>
<path class="st1" d="M119.5,29.6l-2.6-1.5c1.1-1.7,2.6-3.6,4.7-5.3c2.7-2.2,6.3-4.2,10.6-4.2c4.3,0,7.9,1.9,10.6,4.2
	c1.1,0.9,2.1,2,2.9,2.9l6.1-3.6c0.9-0.5,1.9-0.4,2.6,0.3c0.7,0.7,0.8,1.8,0.4,2.6l-3.1,5.5l3.1,5.5c0.5,0.9,0.3,1.9-0.4,2.6
	c-0.7,0.7-1.8,0.8-2.6,0.3l-6.1-3.6c-0.8,1-1.8,2-2.9,2.9c-2.7,2.2-6.3,4.2-10.6,4.2c-4.3,0-7.9-1.9-10.6-4.2
	c-2-1.7-3.6-3.7-4.7-5.3l2.6-1.5C120.3,31.1,120.3,30.1,119.5,29.6z M126.7,32.8c1.2,0,2.2-1,2.2-2.2s-1-2.2-2.2-2.2s-2.2,1-2.2,2.2
	S125.5,32.8,126.7,32.8z"/>
<path class="st1" d="M124.4,55.6h-3.6c0.1-0.3,0.2-0.5,0.3-0.8l-0.5-0.1c-0.3,0.9-0.7,1.8-1.3,2.3c0.1,0.1,0.4,0.2,0.5,0.3
	c0.3-0.3,0.5-0.7,0.8-1.2h3.8V55.6z M117.5,57.1c0.5,0.2,1,0.5,1.3,0.8l0.3-0.4c-0.3-0.3-0.8-0.6-1.3-0.8L117.5,57.1z M117.7,61.1
	l0.5,0.3c0.4-0.7,0.8-1.6,1.1-2.4l-0.4-0.3C118.6,59.5,118.1,60.5,117.7,61.1z M117.9,55.1c0.5,0.2,1,0.6,1.2,0.9l0.3-0.4
	c-0.3-0.3-0.8-0.6-1.3-0.8L117.9,55.1z M119.4,58.8h0.7c-0.1,0.7-0.2,1.4-0.3,1.9l0.5,0.1c0-0.1,0-0.2,0.1-0.3h2.8
	c-0.1,0.3-0.1,0.4-0.2,0.5c-0.1,0.1-0.1,0.1-0.3,0.1c-0.1,0-0.5,0-0.9,0c0.1,0.1,0.1,0.3,0.1,0.5c0.4,0,0.7,0,1,0
	c0.2,0,0.4-0.1,0.5-0.3c0.1-0.1,0.2-0.4,0.2-0.8h0.8V60h-0.7c0-0.3,0.1-0.7,0.1-1.2h0.7v-0.5h-0.7c0-0.4,0-0.8,0.1-1.3
	c0-0.1,0-0.3,0-0.3h-3.6c0,0.5-0.1,1-0.2,1.5h-0.8V58.8z M120.4,60c0.1-0.4,0.1-0.8,0.2-1.2h1.1c0,0.4-0.1,0.8-0.1,1.2H120.4z
	 M120.7,58.3c0-0.4,0.1-0.7,0.1-1.1h1c0,0.3-0.1,0.7-0.1,1.1H120.7z M122,60c0-0.3,0.1-0.7,0.1-1.2h1.2c0,0.5-0.1,0.9-0.1,1.2H122z
	 M122.2,58.3c0-0.4,0.1-0.7,0.1-1.1h1.1c0,0.4,0,0.8-0.1,1.1H122.2z M131.9,59.2h-2.1v-1.1h1.7v-0.5h-1.7v-1.1h2V56h-1.2
	c0.2-0.3,0.5-0.8,0.7-1.2l-0.6-0.2c-0.2,0.4-0.5,1-0.7,1.3l0.3,0.1h-1.8l0.4-0.2c-0.1-0.3-0.4-0.8-0.7-1.2l-0.5,0.2
	c0.3,0.4,0.5,0.9,0.7,1.2h-1.1v0.5h1.9v1.1h-1.7v0.5h1.7v1.1h-2.1v0.5h2.1v1.7h0.6v-1.7h2.1V59.2z M125,57.1
	c0.5,0.2,1.1,0.6,1.4,0.8l0.3-0.4c-0.3-0.2-0.9-0.6-1.4-0.8L125,57.1z M125.3,61l0.5,0.4c0.4-0.7,0.9-1.6,1.3-2.4l-0.4-0.4
	C126.2,59.5,125.7,60.5,125.3,61z M125.4,55.1c0.5,0.2,1.1,0.6,1.4,0.9l0.3-0.5c-0.3-0.3-0.9-0.6-1.4-0.8L125.4,55.1z M139,56.1
	h-2.7v-1.5h-0.6v1.5h-1.6c0.2-0.4,0.3-0.8,0.4-1.2l-0.5-0.1c-0.3,1.1-0.8,2.1-1.4,2.8c0.1,0.1,0.4,0.2,0.5,0.3
	c0.3-0.3,0.6-0.8,0.8-1.2h1.8v1.7h-2.2v0.5h2.2v1.9h-3.1v0.5h6.7v-0.5h-3.1v-1.9h2.4v-0.5h-2.4v-1.7h2.7V56.1z M144.3,54.7l-0.5-0.1
	c-0.2,1.1-0.7,2.2-1.3,2.9c0.1,0.1,0.3,0.2,0.4,0.3c0.3-0.4,0.6-0.9,0.9-1.4h0.7c-0.4,1.2-1,2.5-1.8,3.1c0.1,0.1,0.3,0.2,0.4,0.3
	c0.8-0.7,1.5-2.1,1.9-3.4h0.6c-0.4,1.9-1.2,3.8-2.4,4.7c0.1,0.1,0.3,0.2,0.5,0.3c1.2-1,2.1-3,2.5-5h0.4c-0.2,3-0.3,4.1-0.6,4.4
	c-0.1,0.1-0.2,0.1-0.3,0.1c-0.1,0-0.4,0-0.8,0c0.1,0.1,0.1,0.4,0.2,0.5c0.3,0,0.6,0,0.9,0c0.2,0,0.4-0.1,0.5-0.3
	c0.3-0.4,0.5-1.5,0.6-5c0-0.1,0-0.3,0-0.3h-3C144.1,55.5,144.2,55.1,144.3,54.7z M140,57.6c0.1,0.1,0.3,0.2,0.4,0.2
	c0.1-0.3,0.2-0.7,0.3-1.1h0.7v1.7c-0.5,0.2-1,0.3-1.4,0.4l0.1,0.5c0.4-0.1,0.8-0.2,1.3-0.4v2.6h0.5v-2.8c0.3-0.1,0.6-0.2,1-0.3
	l-0.1-0.5c-0.3,0.1-0.6,0.2-0.9,0.3v-1.6h0.8v-0.5h-0.8v-1.5h-0.5v1.5h-0.6c0.1-0.3,0.1-0.7,0.1-1l-0.5-0.1
	C140.4,56,140.3,56.9,140,57.6z M147.8,61l0.5,0.2c0.7-1.7,1.2-3,1.5-4.6h1c1,0,1.1,0.1,1.1,1.4c0,1.6-0.3,2.4-0.9,2.4
	c-0.3,0-0.9-0.2-1.4-0.4l-0.1,0.5c0.6,0.2,1.3,0.4,1.7,0.4c0.9,0,1.3-1.1,1.3-2.9c0-1.8-0.2-2-1.8-2h-0.8c0.1-0.4,0.2-0.8,0.2-1.2
	l-0.6-0.1c-0.1,0.5-0.2,0.9-0.2,1.3h-1.7v0.5h1.6C148.9,58.1,148.5,59.4,147.8,61z M152.3,55.2c0.3,0.4,0.5,0.8,0.8,1.4l0.5-0.2
	c-0.3-0.5-0.5-1-0.8-1.4L152.3,55.2z M153.1,57c0.4,1,0.7,2.1,0.9,3l0.6-0.1c-0.2-1-0.5-2.1-0.9-3.1L153.1,57z M153.3,54.8
	c0.3,0.4,0.5,0.8,0.8,1.4l0.4-0.2c-0.2-0.5-0.5-1-0.8-1.4L153.3,54.8z"/>
<path class="st2" d="M114.4,72.2l0.2,0.9c3.3-0.1,5.1-1.7,5.4-4.6c0.6,0,1-0.5,1-1.1c0-0.6-0.5-1.1-1.1-1.1c-0.6,0-1.1,0.5-1.1,1.1
	v0h-4.8v1h4.8C118.7,70.9,117.2,72.1,114.4,72.2z M119.5,67.5c0-0.2,0.2-0.4,0.4-0.4c0.2,0,0.4,0.2,0.4,0.4c0,0.2-0.2,0.4-0.4,0.4
	C119.7,67.9,119.5,67.7,119.5,67.5z M122.4,72.3l0.2,0.9c3.4-0.1,5.2-1.3,5.2-3.6v-0.4h-6.1v0.9h5.1
	C126.5,71.5,125.1,72.2,122.4,72.3z M122.2,68.2h5.2v-0.9h-5.2V68.2z M129.1,72.3l0.5,0.9c1.1-0.5,2.1-1.2,2.9-1.9
	c0.8,0.5,1.4,1.1,2.1,2l0.7-0.7c-0.7-0.8-1.4-1.4-2.2-1.9c0.6-0.7,1.2-1.4,1.5-2.2v-0.9h-5.2v0.9h4.1
	C132.8,69.9,131.2,71.3,129.1,72.3z M137.2,72.5l0.2,0.9c2.1-0.2,3-0.9,3.1-2.8h2.5v-0.9h-2.5v-1.4c0.8-0.1,1.5-0.2,2-0.4l-0.3-0.9
	c-1.2,0.3-3.6,0.6-5.3,0.6v0.9c0.8,0,1.7,0,2.5-0.1v1.3h-3.1v0.9h3.1C139.4,72,138.9,72.3,137.2,72.5z M145.4,72.2l0.2,0.9
	c3.1-0.3,4.3-1.5,4.3-4.6l-0.9,0C148.9,71.1,148.1,72,145.4,72.2z M144.7,68.8c0.2,0.6,0.4,1.3,0.6,2.1l0.9-0.2
	c-0.2-0.8-0.4-1.5-0.6-2.1L144.7,68.8z M146.3,68.6c0.2,0.6,0.4,1.4,0.6,2.1l0.9-0.2c-0.1-0.7-0.3-1.5-0.6-2.2L146.3,68.6z
	 M152.3,72.3l0.3,0.9c3.1-0.3,5.2-2.4,5.2-5.2v-0.4h-3.4c0.1-0.2,0.2-0.5,0.3-0.7l-1-0.2c-0.4,1.1-1.3,2.3-2.4,3.1l0.7,0.7
	c0.8-0.6,1.5-1.2,2-2h2.8C156.5,70.6,154.7,72,152.3,72.3z M121.3,83.8h1c0-0.6,0-1-0.1-1.4c0.5-0.1,1-0.3,1.6-0.4l-0.1-0.8
	c-0.6,0.1-1.2,0.3-1.7,0.4c-0.3-0.5-0.7-0.7-1.3-0.7c-0.4,0-0.7,0.1-1.1,0.2c0.1-0.2,0.2-0.5,0.4-0.7h3.6v-0.8h-3.2
	c0.1-0.2,0.1-0.4,0.2-0.6l-1-0.2c-0.1,0.3-0.2,0.5-0.3,0.8h-1.7v0.8h1.4c-0.4,0.8-0.8,1.5-1.4,2.4l0.8,0.5c0.8-1.2,1.3-1.7,2-1.7
	c0.3,0,0.6,0.1,0.7,0.3c-1.4,0.6-2.2,1.3-2.2,2.1c0,0.9,0.9,1.4,2.5,1.4c0.7,0,1.6-0.1,2.4-0.2l-0.1-0.9c-0.9,0.2-1.7,0.2-2.3,0.2
	c-0.9,0-1.5-0.2-1.5-0.6c0-0.4,0.5-0.8,1.4-1.2C121.3,83,121.3,83.3,121.3,83.8z M128.5,79c0.7,0.8,2.1,1.7,3.3,2.2
	c0.2-0.3,0.4-0.6,0.6-0.9c-1.2-0.4-2.5-1.2-3.4-2.2h-1c-0.6,0.8-1.9,1.8-3.2,2.3c0.2,0.2,0.4,0.6,0.6,0.8
	C126.5,80.7,127.8,79.8,128.5,79z M126.7,81.6v0.7h3.5v-0.7H126.7z M128,79.8v1.1h1v-1.1H128z M125.3,84.8l0.1,0.9
	c0.9-0.1,2.2-0.2,3.4-0.3l0-0.9C127.5,84.6,126.2,84.7,125.3,84.8z M128.7,83.2l-0.8,0.2c0.7,1.3,1.9,2.1,3.7,2.4
	c0.1-0.3,0.4-0.6,0.6-0.8C130.5,84.7,129.3,84.1,128.7,83.2z M131.1,83c-0.5,0.4-1.3,0.9-1.9,1.1l0.6,0.5c0.6-0.3,1.4-0.7,2-1.1
	L131.1,83z M126.7,80.4v0.7h3.2v1.5h-3.2v0.7h4.2v-3H126.7z M126.1,80.4V85l1-0.1v-4.5H126.1z M139.1,84.9l0.7-0.8
	c-0.9-0.9-1.8-1.8-2.7-2.8c-0.8-0.9-1-1-1.6-1c-0.6,0-0.8,0.2-1.5,1.2c-0.4,0.5-0.8,1.1-1.4,1.9l0.8,0.7c0.6-0.8,1-1.3,1.3-1.8
	c0.5-0.7,0.6-0.9,0.8-0.9c0.2,0,0.4,0.1,0.9,0.8C137.2,82.9,138,83.8,139.1,84.9z M137,79.5c0.3,0.5,0.6,0.9,0.8,1.5l0.7-0.3
	c-0.2-0.5-0.5-1-0.8-1.5L137,79.5z M138.2,79.1c0.3,0.5,0.6,0.9,0.8,1.5l0.7-0.3c-0.2-0.5-0.5-1-0.8-1.5L138.2,79.1z M142.8,85.3
	c1.1,0,1.7-0.4,1.9-1.2c0.4,0.3,0.9,0.6,1.4,1.1l0.6-0.7c-0.8-0.7-1.4-1.2-2-1.5V82h1.9v-0.8h-1.9v-0.7h2v-0.9h-2v-0.7h-1v0.7h-3
	v0.9h3v0.7h-2.9V82h2.9v0.7c-0.3-0.1-0.6-0.1-1-0.1c-1.2,0-1.9,0.5-1.9,1.4C140.9,84.8,141.6,85.3,142.8,85.3z M141.9,83.9
	c0-0.3,0.3-0.5,0.9-0.5c0.3,0,0.6,0.1,1,0.2c0,0.6-0.3,0.9-1,0.9C142.2,84.4,141.9,84.2,141.9,83.9z M149.3,84.5l0.2,0.9
	c2-0.1,3.2-1,3.2-2.6c0-0.4-0.1-0.6-0.2-0.9v-1.5h2.1v-0.8h-2.1v-0.8h-1v0.8h-3.6v0.8h3.6v0.5c-0.2-0.1-0.4-0.2-0.7-0.2
	c-1,0-1.7,0.6-1.7,1.5c0,0.9,0.7,1.5,1.7,1.5c0.4,0,0.7-0.1,0.9-0.3C151.4,84,150.5,84.4,149.3,84.5z M150,82.2
	c0-0.5,0.3-0.8,0.8-0.8c0.5,0,0.8,0.3,0.8,0.8c0,0.5-0.3,0.8-0.8,0.8C150.3,83,150,82.7,150,82.2z"/>
<path class="st3" d="M186.7,53l-6,3.5v-6.9L186.7,53z"/>
<path class="st1" d="M245.3,17.3v26.7c0,1.5-1.2,2.7-2.7,2.7h-0.4c-1.5,0-2.7-1.2-2.7-2.7v-4.3h-3.1c-1.5,0-2.7-1.2-2.7-2.7V27
	c0-2.7,0.8-5.2,2.3-7.3c1.5-2.1,3.6-3.9,6-4.8c0.3-0.1,0.5-0.3,0.8-0.3C244.3,14.7,245.3,15.9,245.3,17.3z"/>
<path class="st1" d="M229.2,25.3c0.3,0.9,0.3,1.9,0,2.8c-0.3,0.8-0.7,1.7-1.2,2.5c-1.1,1.2-2.3,1.9-3.9,2.3v11.1
	c0,1.5-1.2,2.7-2.7,2.7h-0.4c-1.5,0-2.7-1.2-2.7-2.7V32.7c-1.3-0.3-2.7-1.1-3.7-2.1c0,0,0-0.1-0.1-0.1c-0.5-0.7-0.9-1.6-1.2-2.5
	c0-0.8,0-1.9,0.1-2.7l1.2-5.6l0.9-4.1c0-0.3,0.3-0.5,0.4-0.7c0.3-0.3,0.5-0.3,0.8-0.3h0.1c0.3,0,0.5,0.1,0.7,0.4
	c0.1,0.3,0.3,0.5,0.3,0.8v10.3h1.2l1.2-10.5c0-0.3,0.1-0.4,0.3-0.7c0.4-0.1,0.5-0.3,0.8-0.3c0.3,0,0.5,0.1,0.7,0.3
	c0.1,0.1,0.3,0.4,0.3,0.7l1.2,10.5h1.2V15.8c0-0.3,0.1-0.5,0.3-0.8c0.3-0.3,0.5-0.4,0.8-0.4h0.1c0.3,0,0.4,0.1,0.7,0.3
	c0.3,0.1,0.4,0.4,0.4,0.7L229.2,25.3z"/>
<path class="st2" d="M206.9,54.4v0.8h3.9v-0.8H206.9z M206.3,57.8v0.8h5.9v-0.8H206.3z M205,56v0.9h7.5V56H205z M206.6,52.9v0.9h5.5
	v-0.9H206.6z M210.5,54.4v0.2c-0.1,3-0.3,4.1-0.5,4.4c-0.1,0.1-0.2,0.1-0.3,0.1c-0.2,0-0.5,0-0.9,0c0.1,0.2,0.2,0.5,0.2,0.7
	c0.4,0,0.9,0,1.1,0c0.3,0,0.5-0.1,0.7-0.4c0.3-0.4,0.4-1.4,0.6-4.6c0-0.1,0-0.4,0-0.4H210.5z M206.5,54.4c-0.2,1.5-0.4,3.5-0.7,4.7
	l1,0.1c0.2-1.2,0.5-3.2,0.7-4.8H206.5z M208.5,54.8c-0.1,1.1-0.2,2.6-0.4,3.5h0.9c0.1-0.9,0.3-2.4,0.4-3.5H208.5z M206.7,52.2
	c-0.3,0.8-0.9,1.7-1.7,2.4c0.2,0.1,0.6,0.4,0.8,0.6c0.9-0.8,1.5-1.8,2-2.8L206.7,52.2z M214.7,52.2c-0.3,1-1,2.1-1.7,2.7
	c0.2,0.1,0.6,0.5,0.8,0.6c0.7-0.7,1.4-1.9,1.8-3.1L214.7,52.2z M214.8,53.1l-0.5,0.9h5.6v-0.9H214.8z M214.3,55v2.6h1v-1.7h4.5V55
	H214.3z M213,57.1V58h7.4v-0.9H213z M216.6,53.6v6.2h1v-6.2H216.6z M223.2,59.1c1.3,0,2.1-0.8,2.1-2c0-1.1-0.8-1.9-1.8-1.9
	c-0.5,0-0.9,0.2-1.1,0.5h0l0.2-1.4h2.5v-1h-3.5l-0.3,3.3h1.1c0.2-0.3,0.5-0.5,0.9-0.5c0.6,0,1,0.4,1,1c0,0.6-0.4,1-1,1
	c-0.5,0-0.9-0.3-0.9-0.7h-1.1C221.2,58.4,222,59.1,223.2,59.1z M228.3,59.1c1.4,0,2.3-1,2.3-2.9c0-1.8-0.9-2.9-2.3-2.9
	s-2.3,1.1-2.3,2.9C226.1,58,226.9,59.1,228.3,59.1z M227.3,56.2c0-1.3,0.4-1.9,1.1-1.9c0.7,0,1.1,0.7,1.1,1.9c0,1.3-0.4,1.9-1.1,1.9
	C227.7,58.1,227.3,57.5,227.3,56.2z M235.3,53.7v0.9h3.4v-0.9H235.3z M235.6,54.1l-0.7,0.5c0.4,1.9,1.1,4.1,3.3,5.2
	c0.1-0.3,0.5-0.7,0.7-0.9C236.7,58,235.9,55.9,235.6,54.1z M237.2,54c-0.3,2.2-1.1,4.1-3.4,4.9c0.2,0.2,0.5,0.6,0.6,0.8
	c2.5-1,3.4-3.1,3.8-5.5L237.2,54z M235.5,52.2c-0.3,1.3-0.7,2.4-1.5,3.2c0.2,0.2,0.5,0.7,0.6,0.9c0.9-0.9,1.5-2.3,1.9-3.9
	L235.5,52.2z M231.3,53.9v0.9h3v-0.9H231.3z M232.4,52.2v7.5h0.9v-7.5H232.4z M232.4,54.5c-0.2,1-0.7,2.3-1.3,3
	c0.1,0.2,0.4,0.6,0.5,0.9c0.6-0.8,1.1-2.4,1.4-3.7L232.4,54.5z M233.3,55.2l-0.4,0.4c0.3,0.5,1,1.5,1.3,2l0.5-0.8
	C234.4,56.7,233.5,55.5,233.3,55.2z M243.3,58.2l0.3,0.9c1.5-0.2,2.5-1.4,2.5-3c0-1.8-1.3-2.9-3.1-2.9c-2.1,0-3.6,1.4-3.6,3.3
	c0,1.4,0.8,2.4,1.7,2.4c1.1,0,1.8-1.4,2.2-4.7c1,0.2,1.7,0.9,1.7,1.9C245.1,57.3,244.4,58.1,243.3,58.2z M240.3,56.6
	c0-1.1,0.9-2.1,2-2.3c-0.3,2.3-0.8,3.7-1.3,3.7C240.7,57.9,240.3,57.2,240.3,56.6z M247.7,58.3l0.3,0.9c3.1-0.3,5.2-2.4,5.2-5.2
	v-0.4h-3.4c0.1-0.2,0.2-0.5,0.3-0.7l-1-0.2c-0.4,1.1-1.3,2.3-2.4,3.1l0.7,0.7c0.8-0.6,1.5-1.2,2-2h2.8C252,56.6,250.2,58,247.7,58.3
	z M207.9,71.1h0.4c2.9,0,4.7-1.2,5.6-3.6l-0.9-0.4c-0.8,1.9-2,2.8-4.1,2.9v-5h-1.1V71.1z M215.2,70.2l0.2,1c3.5-0.1,5.4-1.5,5.9-4.5
	l-1-0.2C219.8,69,218.2,70.1,215.2,70.2z M214.9,67.8c0.9,0.1,1.6,0.3,2.6,0.5l0.2-0.9c-0.9-0.2-1.7-0.4-2.6-0.5L214.9,67.8z
	 M215.2,66c0.9,0.1,1.7,0.3,2.7,0.5l0.2-0.9c-1-0.2-1.8-0.4-2.7-0.5L215.2,66z M219.1,64.9c0.3,0.4,0.6,0.8,0.8,1.4l0.6-0.3
	c-0.3-0.5-0.5-1-0.9-1.4L219.1,64.9z M220.4,64.8c0.3,0.4,0.5,0.9,0.8,1.4l0.6-0.3c-0.2-0.5-0.5-1-0.8-1.4L220.4,64.8z M223.7,70.2
	l0.2,0.9c3.1-0.3,4.3-1.5,4.3-4.6l-0.9,0C227.2,69.1,226.4,70,223.7,70.2z M223,66.8c0.2,0.6,0.4,1.3,0.6,2.1l0.9-0.2
	c-0.2-0.8-0.4-1.5-0.6-2.1L223,66.8z M224.7,66.6c0.2,0.6,0.4,1.4,0.6,2.1l0.9-0.2c-0.1-0.7-0.3-1.5-0.6-2.2L224.7,66.6z M236,69.4
	l0.3-1c-1.4-0.5-3-0.9-4.4-1.2v-2.2h-1.1v6.5h1.1v-3.2C233.2,68.5,234.6,68.9,236,69.4z M242.3,71.1c1.2,0,1.4-0.6,1.4-4.7v-0.5
	h-3.4c0-0.4,0-0.8,0-1.2h-1c0,0.4,0,0.8,0,1.2h-1.9v0.9h1.8c-0.2,1.9-0.6,2.8-1.9,3.7l0.7,0.7c1.4-1,2-2.1,2.2-4.4h2.4
	c0,3.1-0.1,3.3-0.6,3.3c-0.3,0-1,0-1.5-0.1l-0.1,0.9C241.1,71,241.8,71.1,242.3,71.1z M245.2,68.6h5.8v-0.9h-5.8V68.6z M211.8,78.9
	l0.7-0.3c-0.2-0.5-0.5-1-0.8-1.5l-0.7,0.4C211.3,78,211.6,78.4,211.8,78.9z M208.3,83.4h1.1v-3.2c1.2,0.3,2.7,0.7,4.1,1.2l0.3-1
	c-1.4-0.5-3-0.9-4.4-1.2v-2.2h-1.1V83.4z M212.2,77c0.3,0.5,0.6,0.9,0.8,1.5l0.7-0.3c-0.2-0.5-0.5-1-0.8-1.5L212.2,77z M221.8,89
	c0.7,0.8,2.1,1.7,3.3,2.2c0.2-0.3,0.4-0.6,0.6-0.9c-1.2-0.4-2.5-1.2-3.4-2.2h-1c-0.6,0.8-1.9,1.8-3.2,2.3c0.2,0.2,0.4,0.6,0.6,0.8
	C219.8,90.7,221.1,89.8,221.8,89z M220,91.6v0.7h3.5v-0.7H220z M221.3,89.8v1.1h1v-1.1H221.3z M218.6,94.8l0.1,0.9
	c0.9-0.1,2.2-0.2,3.4-0.3l0-0.9C220.8,94.6,219.5,94.7,218.6,94.8z M222.1,93.2l-0.8,0.2c0.7,1.3,1.9,2.1,3.7,2.4
	c0.1-0.3,0.4-0.6,0.6-0.8C223.8,94.7,222.6,94.1,222.1,93.2z M224.4,93c-0.5,0.4-1.3,0.9-1.9,1.1l0.6,0.5c0.6-0.3,1.4-0.7,2-1.1
	L224.4,93z M220,90.4v0.7h3.2v1.5H220v0.7h4.2v-3H220z M219.4,90.4V95l1-0.1v-4.5H219.4z M232.4,94.9l0.7-0.8
	c-0.9-0.9-1.8-1.8-2.7-2.8c-0.8-0.9-1-1-1.6-1c-0.6,0-0.8,0.2-1.5,1.2c-0.4,0.5-0.8,1.1-1.4,1.9l0.8,0.7c0.6-0.8,1-1.3,1.3-1.8
	c0.5-0.7,0.6-0.9,0.8-0.9c0.2,0,0.4,0.1,0.9,0.8C230.5,92.9,231.3,93.8,232.4,94.9z M230.3,89.5c0.3,0.5,0.6,0.9,0.8,1.5l0.7-0.3
	c-0.2-0.5-0.5-1-0.8-1.5L230.3,89.5z M231.5,89.1c0.3,0.5,0.6,0.9,0.8,1.5l0.7-0.3c-0.2-0.5-0.5-1-0.8-1.5L231.5,89.1z M236.1,95.3
	c1.1,0,1.7-0.4,1.9-1.2c0.4,0.3,0.9,0.6,1.4,1.1l0.6-0.7c-0.8-0.7-1.4-1.2-2-1.5V92h1.9v-0.8h-1.9v-0.7h2v-0.9h-2v-0.7h-1v0.7h-3
	v0.9h3v0.7h-2.9V92h2.9v0.7c-0.3-0.1-0.6-0.1-1-0.1c-1.2,0-1.9,0.5-1.9,1.4C234.2,94.8,234.9,95.3,236.1,95.3z M235.2,93.9
	c0-0.3,0.3-0.5,0.9-0.5c0.3,0,0.6,0.1,1,0.2c0,0.6-0.3,0.9-1,0.9C235.5,94.4,235.2,94.2,235.2,93.9z M242.7,94.5l0.2,0.9
	c2-0.1,3.2-1,3.2-2.6c0-0.4-0.1-0.6-0.2-0.9v-1.5h2.1v-0.8h-2.1v-0.8h-1v0.8h-3.6v0.8h3.6v0.5c-0.2-0.1-0.4-0.2-0.7-0.2
	c-1,0-1.7,0.6-1.7,1.5c0,0.9,0.7,1.5,1.7,1.5c0.4,0,0.7-0.1,0.9-0.3C244.7,94,243.8,94.4,242.7,94.5z M243.4,92.2
	c0-0.5,0.3-0.8,0.8-0.8c0.5,0,0.8,0.3,0.8,0.8c0,0.5-0.3,0.8-0.8,0.8C243.7,93,243.4,92.7,243.4,92.2z"/>
<path class="st1" d="M218.8,82.5L219,83c1.4-0.1,2.4-1.4,2.4-2.9c0-1.7-1.2-2.8-3-2.8c-2,0-3.5,1.4-3.5,3.2c0,1.2,0.7,2.3,1.5,2.3
	c1.1,0,1.7-1.6,2.1-4.9c1.4,0.1,2.3,0.9,2.3,2.2C220.8,81.4,219.9,82.4,218.8,82.5z M215.4,80.6c0-1.4,1.1-2.4,2.5-2.6
	c-0.3,2.7-0.9,4.3-1.6,4.3C215.8,82.2,215.4,81.4,215.4,80.6z M223.7,78.4v-0.4h3.8v0.4H223.7z M222.2,83.3h6.8v-0.4h-3.2v-0.5h2.5
	v-0.4h-2.5v-0.4h2.4v-1.9H223v1.9h2.3v0.4h-2.5v0.4h2.5v0.5h-3.1V83.3z M222.2,79.4h6.7V79h-6.7V79.4z M223.2,78.7h4.8v-1.8h-4.8
	V78.7z M223.5,81.3v-0.4h1.8v0.4H223.5z M223.5,80.5v-0.4h1.8v0.4H223.5z M223.7,77.6v-0.4h3.8v0.4H223.7z M225.8,81.3v-0.4h1.9v0.4
	H225.8z M225.8,80.5v-0.4h1.9v0.4H225.8z M233.8,81.8h0.6c0-0.7-0.1-1.3-0.2-1.7c0.5-0.2,1.1-0.4,1.8-0.5l-0.1-0.5
	c-0.7,0.2-1.3,0.3-1.8,0.5c-0.3-0.6-0.7-0.9-1.4-0.8c-0.4,0-0.8,0.1-1.2,0.3c0.2-0.3,0.3-0.7,0.5-1h3.8v-0.5h-3.6
	c0.1-0.2,0.2-0.5,0.3-0.7l-0.6-0.1c-0.1,0.3-0.2,0.6-0.3,0.8h-1.8v0.5h1.5c-0.4,0.9-0.9,1.7-1.5,2.8l0.5,0.3
	c0.9-1.4,1.5-1.9,2.2-1.9c0.4,0,0.8,0.2,1,0.6c-1.5,0.6-2.3,1.4-2.3,2.2c0,0.8,0.9,1.2,2.4,1.2c0.7,0,1.6-0.1,2.3-0.2l-0.1-0.5
	c-0.8,0.2-1.6,0.2-2.2,0.2c-1.2,0-1.9-0.3-1.9-0.8c0-0.5,0.7-1.1,1.9-1.6C233.7,80.7,233.8,81.2,233.8,81.8z M240.8,76.9h-0.6
	c0,1,0,4.6-3.1,6.2c0.2,0.1,0.3,0.3,0.4,0.4c1.9-1,2.7-2.9,3-4.4c0.4,1.5,1.2,3.5,3.1,4.4c0.1-0.1,0.3-0.3,0.4-0.5
	c-2.8-1.3-3.3-4.8-3.3-5.8C240.8,77.1,240.8,77,240.8,76.9z M249.5,80.1h-2.8v3.1h0.5v-0.4h2.3V80.1z M245,83.5h0.5v-4h2.2v-2.6H245
	V83.5z M245.6,79.1v-0.7h1.7v0.7H245.6z M245.6,78v-0.6h1.7V78H245.6z M247.2,82.4v-0.7h1.8v0.7H247.2z M247.2,81.2v-0.7h1.8v0.7
	H247.2z M248.4,79.5h2.2v3.3c0,0.1,0,0.2-0.2,0.2c-0.1,0-0.6,0-1.1,0c0.1,0.1,0.2,0.4,0.2,0.5c0.6,0,1,0,1.3-0.1
	c0.2-0.1,0.3-0.3,0.3-0.6v-5.8h-2.8V79.5z M248.9,79.1v-0.7h1.7v0.7H248.9z M248.9,78v-0.6h1.7V78H248.9z M210.8,95l0.5,0.2
	c0.7-1.7,1.2-3,1.5-4.6h1c1,0,1.1,0.1,1.1,1.4c0,1.6-0.3,2.4-0.9,2.4c-0.3,0-0.9-0.2-1.4-0.4l-0.1,0.5c0.6,0.2,1.3,0.4,1.7,0.4
	c0.9,0,1.3-1.1,1.3-2.9c0-1.8-0.2-2-1.8-2H213c0.1-0.4,0.2-0.8,0.2-1.2l-0.6-0.1c-0.1,0.5-0.2,0.9-0.2,1.3h-1.7v0.5h1.6
	C212,92.1,211.6,93.4,210.8,95z M215.3,89.2c0.3,0.4,0.5,0.8,0.8,1.4l0.5-0.2c-0.3-0.5-0.5-1-0.8-1.4L215.3,89.2z M216.2,91
	c0.4,1,0.7,2.1,0.9,3l0.6-0.1c-0.2-1-0.5-2.1-0.9-3.1L216.2,91z M216.4,88.8c0.3,0.4,0.5,0.8,0.8,1.4l0.4-0.2
	c-0.2-0.5-0.5-1-0.8-1.4L216.4,88.8z"/>
</svg>
