<svg width="20" height="16" viewBox="0 0 20 16" fill="none" xmlns="http://www.w3.org/2000/svg">
<path d="M14.5455 3.45188H17.2727L20 7.13915V12.5428H18.15C18.0419 13.3012 17.6638 13.9952 17.0852 14.4973C16.5065 14.9993 15.7661 15.2758 15 15.2758C14.2339 15.2758 13.4935 14.9993 12.9148 14.4973C12.3362 13.9952 11.9581 13.3012 11.85 12.5428H7.24091C7.13284 13.3012 6.75474 13.9952 6.17607 14.4973C5.5974 14.9993 4.85702 15.2758 4.09091 15.2758C3.3248 15.2758 2.58442 14.9993 2.00575 14.4973C1.42708 13.9952 1.04898 13.3012 0.940909 12.5428H0V1.6337C0 1.39259 0.0957789 1.16136 0.266267 0.990876C0.436754 0.820388 0.667985 0.724609 0.909091 0.724609H13.6364C13.8775 0.724609 14.1087 0.820388 14.2792 0.990876C14.4497 1.16136 14.5455 1.39259 14.5455 1.6337V3.45188ZM14.5455 5.27006V7.99734H18.1818V7.73825L16.3564 5.27006H14.5455Z" fill="white"/>
</svg>
