<svg width="53" height="101" viewBox="0 0 53 101" fill="none" xmlns="http://www.w3.org/2000/svg">
<path d="M34.789 8.41873H18.3754C17.924 8.41873 17.5547 8.04942 17.5547 7.59804V1.85328C17.5547 0.950527 18.2933 0.211914 19.196 0.211914H33.9683C34.8711 0.211914 35.6097 0.950527 35.6097 1.85328V7.59804C35.6097 8.04942 35.2404 8.41873 34.789 8.41873Z" fill="#FF8989"/>
<path d="M52.7619 27.992V47.6883H0.238281V27.992L18.1702 13.2197H35.1993L52.7619 27.992Z" fill="#FF8989"/>
<path d="M45.9502 100.212H7.04993C3.2748 100.212 0.238281 97.1758 0.238281 93.4007V49.3301H52.7619V93.4007C52.7619 97.1348 49.7254 100.212 45.9502 100.212Z" fill="#FF8989"/>
</svg>
