<svg width="94" height="101" viewBox="0 0 94 101" fill="none" xmlns="http://www.w3.org/2000/svg">
<path d="M93.3351 32.816V33.0506L79.0271 98.7269V98.8051C78.8707 99.587 78.167 100.212 77.2288 100.212H16.7128C15.7745 100.212 15.1491 99.587 14.9145 98.8051V98.7269L0.606445 32.816C0.606445 32.816 0.606445 32.7379 0.606445 32.6597C0.606445 32.5815 0.606445 32.5033 0.684631 32.4251L5.06305 28.3594C5.14124 28.2812 5.21942 28.2813 5.29761 28.2813H88.7222C88.8003 28.2813 88.8785 28.2812 88.9567 28.3594L93.3351 32.4251C93.4133 32.5033 93.4133 32.6597 93.3351 32.816Z" fill="#21B860"/>
<path d="M87.6277 25.2315H26.6426C19.7622 25.2315 14.1328 19.6021 14.1328 12.7217C14.1328 5.84131 19.7622 0.211914 26.6426 0.211914H78.7927C79.6527 0.211914 80.3564 0.915589 80.3564 1.77564C80.3564 2.24475 80.2001 2.5575 79.8873 2.87024C79.8091 2.94843 79.6527 3.02661 79.5746 3.1048C76.838 5.3722 75.0398 8.89057 75.0398 12.7217C75.118 19.6021 80.7474 25.2315 87.6277 25.2315Z" fill="#21B860"/>
</svg>
