<svg width="101" height="62" viewBox="0 0 101 62" fill="none" xmlns="http://www.w3.org/2000/svg">
<path d="M6.7631 39.4509H1.00944C0.709769 39.4509 0.5 39.2111 0.5 38.9414V23.029C0.5 22.7293 0.739736 22.5195 1.00944 22.5195H6.73313C7.0328 22.5195 7.24257 22.7593 7.24257 23.029V38.9414C7.27254 39.2411 7.0328 39.4509 6.7631 39.4509Z" fill="#FF8989"/>
<path d="M12.3668 25.0664H7.27246V36.9333H12.3668V25.0664Z" fill="#FF8989"/>
<path d="M69.0944 30.9996L38.9476 61.1464C38.2883 61.8057 37.2095 61.8057 36.5502 61.1464L12.3369 36.9331H12.3669V25.0662H12.3369L36.5502 0.852854C37.2095 0.19358 38.2883 0.19358 38.9476 0.852854L69.0944 30.9996Z" fill="#FF8989"/>
<path d="M100.5 3.72976V58.2397C100.5 59.7381 98.6724 60.5172 97.5936 59.4384L69.125 30.9698L97.5936 2.50111C98.6724 1.48224 100.5 2.23141 100.5 3.72976Z" fill="#FF8989"/>
<path d="M23.0658 26.2491C24.2077 26.2491 25.1335 24.8404 25.1335 23.1026C25.1335 21.3648 24.2077 19.9561 23.0658 19.9561C21.9238 19.9561 20.998 21.3648 20.998 23.1026C20.998 24.8404 21.9238 26.2491 23.0658 26.2491Z" fill="white"/>
<path d="M69.0944 30.9995L38.9476 61.1463C38.2883 61.8056 37.2095 61.8056 36.5502 61.1463L12.3369 36.933H12.3669V30.1305C19.8287 27.7331 34.6024 24.8263 50.0054 32.1083C50.0054 32.1083 56.748 36.9929 64.0899 32.1083C64.0899 32.1083 65.5583 31.0595 67.9257 29.8308L69.0944 30.9995Z" fill="#FFD9D9" fill-opacity="0.4"/>
<path d="M100.5 38.791V58.2396C100.5 59.7379 98.6724 60.5171 97.5936 59.4383L69.125 30.9996L72.2116 27.913C78.7744 25.5156 87.8544 24.4968 93.7279 33.4869C95.9754 36.8731 98.2529 38.4314 100.5 38.791Z" fill="#FFD9D9" fill-opacity="0.4"/>
<path d="M12.3668 30.1304V36.9329H7.27246V30.5199C8.02164 33.8463 12.3668 30.1304 12.3668 30.1304Z" fill="#FFD9D9" fill-opacity="0.4"/>
</svg>
