<svg width="99" height="100" viewBox="0 0 99 100" fill="none" xmlns="http://www.w3.org/2000/svg">
<path d="M72.4511 50.8473C71.9311 46.7482 70.3098 42.9856 67.8932 39.8959C66.7002 38.3664 65.3542 36.9899 63.8247 35.8274C60.7045 33.4108 56.9724 31.8201 52.8733 31.2695C51.925 31.1471 50.9767 31.0859 49.9979 31.0859C49.019 31.0859 48.0707 31.1471 47.1224 31.2695C43.0233 31.7895 39.2606 33.4108 36.171 35.8274C34.6415 37.0205 33.2649 38.3664 32.1025 39.8959C29.6859 43.0162 28.0646 46.7482 27.5751 50.8473C27.4528 51.7956 27.3916 52.7439 27.3916 53.7228C27.3916 54.7017 27.4528 55.65 27.5751 56.5983C28.0952 60.6974 29.7165 64.46 32.1025 67.5496C33.2649 69.0791 34.6415 70.4557 36.171 71.6181C39.2912 74.0347 43.0233 75.656 47.1224 76.1761C48.0707 76.2984 49.019 76.3596 49.9979 76.3596C50.9767 76.3596 51.925 76.2984 52.8733 76.1761C56.9724 75.656 60.7351 74.0347 63.8247 71.6181C65.3542 70.4251 66.7308 69.0791 67.8932 67.5496C70.3098 64.4294 71.9005 60.6974 72.4511 56.5983C72.5735 55.65 72.6347 54.7017 72.6347 53.7228C72.6347 52.7439 72.5735 51.765 72.4511 50.8473ZM53.0569 54.1204C52.9651 54.6711 52.751 55.1911 52.4145 55.6194C52.2615 55.8335 52.078 56.017 51.8639 56.17C51.4356 56.5065 50.9156 56.7206 50.3649 56.7818C50.2426 56.7818 50.1202 56.8124 49.9673 56.8124C49.8449 56.8124 49.6919 56.8124 49.5696 56.7818C49.019 56.7206 48.4989 56.4759 48.0707 56.17C47.8565 56.017 47.673 55.8335 47.52 55.6194C47.1835 55.1911 46.9694 54.6711 46.9082 54.1204C46.8776 53.9981 46.8776 53.8451 46.8776 53.7228C46.8776 53.6004 46.8776 53.4475 46.9082 53.3251C46.9694 52.7745 47.1835 52.2544 47.52 51.8262C47.673 51.612 47.8565 51.4285 48.0707 51.2755C48.4989 50.9391 49.019 50.7249 49.5696 50.6637C49.6919 50.6637 49.8449 50.6332 49.9673 50.6332C50.0896 50.6332 50.2426 50.6332 50.3649 50.6637C50.9156 50.7249 51.4356 50.9696 51.8639 51.2755C52.078 51.4285 52.2615 51.612 52.4145 51.8262C52.751 52.2544 52.9651 52.7745 53.0569 53.3251C53.0569 53.4475 53.0875 53.5698 53.0875 53.7228C53.0875 53.8757 53.0875 53.9675 53.0569 54.1204Z" fill="#FEB700"/>
<path d="M85.758 20.9297C73.0936 20.9297 73.736 27.0172 73.736 27.0172C73.736 29.8009 72.6653 31.208 71.3805 31.881C70.524 31.0551 69.6368 30.2598 68.6886 29.5256C65.2624 26.8948 61.2857 24.937 56.9113 23.9276C56.7277 23.8664 56.5442 23.8358 56.3301 23.8052C56.7889 21.6639 57.676 18.9107 59.2973 15.607C63.3964 7.25583 56.636 -0.177615 49.9673 -0.330566H49.9367C43.268 -0.177615 36.5075 7.25583 40.6066 15.607C42.2279 18.9107 43.115 21.6639 43.5739 23.8052C43.3904 23.8358 43.2068 23.897 42.9927 23.9276C38.6488 24.937 34.6415 26.8642 31.2154 29.5256C30.2671 30.2598 29.3494 31.0551 28.4929 31.9116C27.1469 31.2692 26.0456 29.8621 26.0456 27.0172C26.0456 27.0172 26.688 20.9297 14.0236 20.9297C14.0236 20.9297 0.900391 20.7768 0.900391 40.1404C0.900391 40.1404 0.900391 48.7363 11.6682 40.1404C11.6682 40.1404 20.2947 33.1046 24.3938 36.8673C21.8548 40.691 20.1723 45.0961 19.5605 49.8376C19.4075 51.1223 19.3158 52.4071 19.3158 53.7225C19.3158 55.0379 19.4075 56.3227 19.5605 57.6075C20.2641 63.1443 22.436 68.2223 25.7091 72.4132C25.9845 72.7497 26.2598 73.1168 26.5351 73.4533C20.0193 79.969 20.3252 85.2306 20.3252 85.2306C20.3252 99.8833 32.2861 99.6386 32.2861 99.6386C44.7057 99.6386 34.2744 88.3814 34.2744 88.3814C32.3778 86.0565 33.2344 82.7527 34.458 80.0914C34.5192 80.122 34.5803 80.1832 34.6721 80.2137C34.6721 80.2137 34.6721 80.2137 34.6721 80.2443C38.0982 82.2327 41.9526 83.5481 46.0517 84.0681C46.5412 84.1293 47.0306 84.1905 47.52 84.2211C48.0095 84.2517 48.4989 84.2822 48.9884 84.3128C49.2943 84.3128 49.6308 84.3128 49.9367 84.3128C50.2732 84.3128 50.5791 84.3128 50.9156 84.3128C51.405 84.3128 51.8945 84.2822 52.3839 84.2211C52.8734 84.1905 53.3628 84.1293 53.8522 84.0681C57.9513 83.5481 61.8057 82.2327 65.2318 80.2443C65.3236 80.2137 65.3848 80.1526 65.4766 80.122C66.7002 82.7833 67.5261 86.0871 65.6601 88.4119C65.6601 88.4119 55.2288 99.6692 67.6485 99.6692C67.6485 99.6692 79.6093 99.9139 79.6093 85.2611C79.6093 85.2611 79.9152 80.0302 73.3689 73.4839C73.6442 73.1474 73.9195 72.8109 74.1948 72.4744C77.4374 68.2835 79.6093 63.2055 80.3435 57.6687C80.4964 56.3839 80.5882 55.0991 80.5882 53.7837C80.5882 52.4683 80.4964 51.1835 80.3435 49.8987C79.7317 45.1266 78.0186 40.691 75.4796 36.8673C79.6093 33.2576 88.144 40.2322 88.144 40.2322C98.9118 48.8281 98.9118 40.2322 98.9118 40.2322C98.8812 20.7768 85.758 20.9297 85.758 20.9297ZM27.0551 73.9121C27.2387 74.1263 27.4528 74.3404 27.6363 74.5545C27.4528 74.3404 27.2387 74.1263 27.0551 73.9121ZM72.2982 74.5545C72.5123 74.3404 72.6959 74.1263 72.8794 73.9121C72.6959 74.1263 72.5123 74.3404 72.2982 74.5545ZM74.7148 56.8733C74.1336 61.4007 72.3594 65.5304 69.7286 68.9565C68.4438 70.639 66.9143 72.1379 65.2318 73.4533C61.8057 76.084 57.676 77.8889 53.1793 78.4395C52.7816 78.5007 52.3839 78.5313 51.9862 78.5619C51.5886 78.5924 51.2215 78.623 50.8238 78.623C50.5485 78.623 50.2732 78.623 49.9979 78.623C49.7225 78.623 49.4472 78.623 49.2025 78.623C48.8048 78.623 48.4072 78.5924 48.0401 78.5619C47.6424 78.5313 47.2447 78.5007 46.8471 78.4395C42.3503 77.8583 38.19 76.084 34.7945 73.4533C33.112 72.1379 31.6131 70.639 30.2977 68.9565C27.6363 65.5304 25.8621 61.4007 25.3115 56.8733C25.1891 55.8333 25.0973 54.7932 25.0973 53.6919C25.0973 52.5907 25.1585 51.5506 25.3115 50.5105C25.8927 46.0138 27.6669 41.8535 30.2977 38.458C31.5825 36.7755 33.112 35.2766 34.7945 33.9612C38.2206 31.3304 42.3503 29.5256 46.8471 28.975C47.2447 28.9138 47.6424 28.8832 48.0707 28.8526C48.4683 28.822 48.866 28.7914 49.2637 28.7914C49.5084 28.7914 49.7837 28.7914 50.0285 28.7914H50.059C50.3038 28.7914 50.5791 28.7914 50.8238 28.7914C51.2215 28.7914 51.6191 28.822 52.0168 28.8526C52.4145 28.8832 52.8428 28.9138 53.2404 28.975C57.7372 29.5562 61.8975 31.3304 65.293 33.9612C66.9755 35.2766 68.4744 36.7755 69.7898 38.458C72.4512 41.8841 74.2254 46.0138 74.776 50.5105C74.8984 51.5506 74.9902 52.5907 74.9902 53.6919C74.9902 54.7932 74.8372 55.8333 74.7148 56.8733Z" fill="#FEB700"/>
</svg>
