<svg width="100" height="88" viewBox="0 0 100 88" fill="none" xmlns="http://www.w3.org/2000/svg">
<path d="M26.1957 36.9298H22.5068C22.5068 35.3794 23.3355 34.123 24.3513 34.123C25.367 34.123 26.1957 35.3794 26.1957 36.9298Z" fill="#2DF781"/>
<path d="M7.51138 43.5323V58.555C7.51138 58.9827 7.16388 59.3035 6.76292 59.3035H1.49693C0.668272 59.3035 0 58.6352 0 57.8066V44.3075C0 43.4788 0.668272 42.8105 1.49693 42.8105H6.76292C7.16388 42.7838 7.51138 43.1313 7.51138 43.5323Z" fill="#2DF781"/>
<path d="M96.3647 14.0748C95.9904 13.9412 95.6429 13.9679 95.536 13.9679C95.5093 13.9679 95.5093 13.9679 95.5093 13.9679C86.6614 15.4381 81.9034 21.2654 79.3907 27.0659H66.9876V6.64367C66.9876 4.02407 65.4907 1.80542 63.3523 0.869847C63.0048 0.736194 62.6305 0.762924 62.5236 0.762924C62.4969 0.762924 62.4969 0.762924 62.4969 0.762924C44.1596 3.83695 43.4914 25.5423 43.4646 27.0659H23.3632L9.00879 43.4786V58.715L23.3632 75.1277H79.8451C82.4647 80.5807 87.1693 85.8467 95.5093 87.2367C95.5093 87.2367 95.5093 87.2367 95.536 87.2367C95.6429 87.2367 96.0172 87.2634 96.3647 87.1298C98.5031 86.1942 100 83.9755 100 81.3559V19.8754C100 17.229 98.5031 15.0104 96.3647 14.0748ZM43.625 35.887C43.625 36.2345 43.5181 36.5553 43.3043 36.7959C43.2775 36.8493 43.2241 36.9028 43.1973 36.9295L43.0369 37.1167L31.516 50.2682C31.4626 50.3483 31.4091 50.4285 31.3556 50.482C31.2754 50.5622 31.1953 50.6691 31.0883 50.7226C30.8478 50.9097 30.527 51.0166 30.1795 51.0166H12.858C12.564 51.0166 12.2699 50.9364 12.0294 50.776C11.6284 50.5087 11.3611 50.0543 11.3611 49.5197V44.7616C11.3611 44.4676 11.4413 44.1736 11.6017 43.9597C11.6819 43.8528 11.762 43.7459 11.869 43.6389L11.9759 43.532L23.7107 30.1399C23.978 29.7924 24.4057 29.6053 24.8601 29.6053H42.1014C42.93 29.6053 43.5983 30.2736 43.5983 31.1022V35.887H43.625Z" fill="#2DF781"/>
<path d="M26.1957 36.9292C26.1957 38.4796 25.367 39.7359 24.3513 39.7359C23.3355 39.7359 22.5068 38.4796 22.5068 36.9292H26.1957Z" fill="#2DF781"/>
<path d="M27.0249 36.9292H21.6787" stroke="#2DF781" stroke-width="2" stroke-miterlimit="10" stroke-linecap="round"/>
</svg>
