<svg width="96" height="100" viewBox="0 0 96 100" fill="none" xmlns="http://www.w3.org/2000/svg">
<path d="M1.89257 29.6162H7.41598C7.83681 29.6162 8.20504 29.9844 8.20504 30.4053V46.239C8.20504 46.6599 7.83681 47.0281 7.41598 47.0281H1.89257C0.998304 47.0281 0.314453 46.3443 0.314453 45.45V31.1943C0.314453 30.3001 0.998304 29.6162 1.89257 29.6162Z" fill="#10C4C1"/>
<path d="M95.58 41.5571C95.58 18.6218 76.9582 0 54.0229 0C31.0876 0 12.4658 18.6218 12.4658 41.5571C12.4658 41.6097 12.4658 41.7149 12.4658 41.7675V95.7391C12.4658 96.7386 12.834 97.6854 13.4127 98.4219C13.5179 98.5271 13.5705 98.6323 13.6757 98.7375C14.4122 99.474 15.4642 99.9474 16.6741 99.9474H18.7783C21.0929 99.9474 22.9866 98.0536 22.9866 95.7391V52.4987C22.9866 49.5003 25.459 47.0279 28.4574 47.0279H31.1928C32.6131 47.0279 33.9282 47.5539 34.9277 48.5008C35.0329 48.606 35.1381 48.7112 35.2433 48.8164C36.1376 49.7633 36.6636 51.0784 36.6636 52.4987V95.7391C36.6636 96.6859 36.9792 97.5802 37.5579 98.3167C37.6631 98.4219 37.7157 98.5271 37.8209 98.6323C37.9261 98.7375 37.9787 98.7901 38.0839 98.8953C38.8204 99.5792 39.8198 100 40.9245 100H43.0287C45.3432 100 47.237 98.1063 47.237 95.7917V52.4987C47.237 49.5003 49.7094 47.0279 52.7078 47.0279H55.4958C58.4942 47.0279 60.9666 49.5003 60.9666 52.4987V95.7391C60.9666 98.0536 62.8603 99.9474 65.1749 99.9474H67.2791C68.3838 99.9474 69.3832 99.5266 70.1197 98.8427C70.2249 98.7375 70.2775 98.6849 70.3827 98.5797C70.4879 98.4745 70.5405 98.3693 70.6457 98.2641C70.8035 98.1063 70.9087 97.8958 71.0139 97.738C71.3296 97.1594 71.54 96.4229 71.54 95.6865V52.4987C71.54 51.0784 72.066 49.8159 72.9603 48.8164C73.0655 48.7112 73.1707 48.606 73.2759 48.5008C74.2754 47.6065 75.5379 47.0279 77.0108 47.0279H79.7462C82.7446 47.0279 85.217 49.5003 85.217 52.4987V95.7391C85.217 98.0536 87.1107 99.9474 89.4253 99.9474H91.5295C92.6867 99.9474 93.7388 99.474 94.4753 98.7375C94.5805 98.6323 94.6857 98.5271 94.7383 98.4219C95.3169 97.6854 95.6852 96.7386 95.6852 95.7391V41.7675C95.58 41.7149 95.58 41.6623 95.58 41.5571ZM38.6626 35.1394C36.6636 35.1394 35.0329 32.667 35.0329 29.616C35.0329 26.565 36.6636 24.0926 38.6626 24.0926C40.6615 24.0926 42.2922 26.565 42.2922 29.616C42.2922 32.667 40.6615 35.1394 38.6626 35.1394Z" fill="#10C4C1"/>
</svg>
