<svg width="79" height="100" viewBox="0 0 79 100" fill="none" xmlns="http://www.w3.org/2000/svg">
<path d="M78.3037 37.3965C78.3037 37.3102 78.3037 37.224 78.3037 37.1377C78.3037 36.922 78.3037 36.7495 78.2606 36.5338C78.2606 36.4044 78.2606 36.275 78.2606 36.1888C78.2606 36.0162 78.2606 35.8868 78.2174 35.7143C78.2174 35.4986 78.1743 35.283 78.1743 35.0673C78.1743 34.981 78.1743 34.8948 78.1312 34.8085C78.1312 34.5928 78.088 34.4203 78.088 34.2046C78.0449 33.9458 78.0449 33.687 78.0018 33.4283C78.0018 33.2126 77.9586 33.04 77.9155 32.8675C77.8724 32.6519 77.8292 32.4362 77.7861 32.1774C77.743 31.8755 77.6998 31.6167 77.6136 31.3147C77.5704 31.0991 77.5273 30.8834 77.4842 30.6246C77.441 30.4089 77.3979 30.1933 77.3548 29.9776C77.3116 29.8051 77.2685 29.6757 77.2254 29.5031C77.1391 29.2443 77.096 28.9855 77.0097 28.7267C76.9234 28.4248 76.8372 28.166 76.7509 27.8641C76.6646 27.5621 76.5784 27.2171 76.449 26.9151C76.2333 26.2681 76.0176 25.6643 75.802 25.0604C75.5863 24.4134 75.3275 23.8095 75.0256 23.2057C74.7668 22.6018 74.4648 21.9979 74.206 21.3941C74.0766 21.1353 73.9472 20.8765 73.8178 20.6177C73.7747 20.5314 73.7316 20.4451 73.6453 20.3157C73.559 20.1432 73.4296 19.9707 73.3434 19.755C73.2571 19.6256 73.1708 19.4531 73.0846 19.3237C72.9552 19.108 72.8258 18.8492 72.6964 18.6336C72.567 18.461 72.4807 18.2454 72.3513 18.0728C72.2219 17.8572 72.0494 17.6415 71.92 17.3827C71.7906 17.167 71.618 16.9514 71.4886 16.7357C71.3592 16.52 71.1867 16.3044 71.0142 16.0456C70.9711 16.0024 70.9279 15.9162 70.8848 15.873C70.7123 15.6574 70.5397 15.4417 70.3672 15.1829C70.1947 14.9241 70.0221 14.7084 69.8065 14.4928C69.8065 14.4496 69.7633 14.4065 69.7202 14.4065C69.5908 14.234 69.4614 14.0614 69.332 13.932C69.2457 13.8026 69.1163 13.6732 69.0301 13.587C68.9007 13.4144 68.7713 13.285 68.6419 13.1125C68.5987 13.0694 68.5556 13.0262 68.5125 12.9831C68.3831 12.8106 68.2105 12.638 68.0811 12.5086C67.9949 12.3792 67.8655 12.293 67.7792 12.1636C67.6498 12.0342 67.5635 11.9479 67.4773 11.8185C67.3479 11.6891 67.2616 11.5597 67.1322 11.4734C67.0459 11.3872 66.9165 11.2578 66.8303 11.1715C66.7009 11.0421 66.5715 10.9127 66.3989 10.7402C66.3558 10.697 66.2695 10.6108 66.2264 10.5676C66.0107 10.352 65.7951 10.1794 65.5794 10.0069C65.3637 9.79124 65.1049 9.57558 64.8893 9.40304C64.6736 9.18738 64.4148 9.01484 64.1991 8.79918C64.1991 8.79918 64.1991 8.79918 64.156 8.79918C63.9403 8.58351 63.6815 8.41098 63.4227 8.23845C63.2071 8.06591 62.9914 7.89338 62.7326 7.72085C62.6895 7.67771 62.6463 7.63458 62.6032 7.63458C62.3875 7.46205 62.1719 7.33265 61.9562 7.16012C61.9131 7.11698 61.8699 7.07385 61.8268 7.07385C61.6543 6.94445 61.4386 6.81505 61.2661 6.68565C61.1798 6.64252 61.0935 6.55625 61.0073 6.51312C60.7916 6.38372 60.5759 6.21118 60.3603 6.08179C60.1015 5.90925 59.8427 5.73672 59.5839 5.60732C59.3251 5.43479 59.0663 5.30539 58.8075 5.13285L58.7643 5.08972C58.5055 4.96032 58.2467 4.78779 57.9879 4.65839C57.7291 4.52899 57.4272 4.35646 57.1684 4.22706C56.9528 4.09766 56.6939 4.01139 56.4783 3.88199C56.1764 3.75259 55.8744 3.58006 55.5725 3.45066C54.6236 3.01933 53.6315 2.58799 52.6394 2.24293C52.3806 2.15666 52.165 2.07039 51.9062 1.98413C51.3454 1.8116 50.7847 1.63906 50.224 1.46653C49.9652 1.38026 49.7495 1.33713 49.4907 1.25086C49.4044 1.25086 49.3613 1.20773 49.275 1.20773C49.1025 1.1646 48.93 1.12146 48.7143 1.07833C48.5849 1.0352 48.4124 0.992064 48.283 0.948931C48.0242 0.905798 47.7654 0.819531 47.5497 0.776398C47.2478 0.733265 46.9458 0.646998 46.6439 0.603865C46.3851 0.560732 46.0832 0.517599 45.7812 0.474465C45.5224 0.431332 45.2637 0.388199 45.048 0.345066C44.8755 0.301933 44.7029 0.301933 44.5304 0.258799C44.2716 0.215666 43.9697 0.172533 43.7109 0.172533C43.5383 0.1294 43.3227 0.1294 43.1501 0.1294C42.9345 0.1294 42.7619 0.0862665 42.5894 0.0862665C42.5463 0.0862665 42.46 0.0862665 42.3737 0.0862665C42.0718 0.0862665 41.7699 0.0431332 41.4679 0.0431332C41.166 0.0431332 40.8641 0 40.5621 0H40.519C40.2171 0 39.9151 0 39.6132 0C39.3113 0 38.9662 0 38.6643 0C38.3623 0 38.1035 -3.21368e-09 37.8016 0.0431332C37.7585 0.0431332 37.6722 0.0431332 37.6291 0.0431332C37.3271 0.0431332 37.0683 0.0862665 36.7664 0.0862665C35.5155 0.172533 34.2647 0.345066 33.0569 0.517599C32.4531 0.646998 31.8492 0.733265 31.2022 0.862665C29.6926 1.20773 28.1829 1.63906 26.7164 2.11353C25.5518 2.54486 24.3872 2.97619 23.2657 3.49379C20.1601 4.91719 17.2271 6.77192 14.5959 8.97171C14.3371 9.18738 14.1215 9.35991 13.8627 9.57558C13.647 9.79124 13.3882 10.0069 13.1725 10.2226C12.9569 10.4382 12.6981 10.6539 12.4824 10.8696C12.2667 11.0852 12.0079 11.3009 11.7923 11.5166C11.5766 11.7322 11.3609 11.9479 11.1453 12.2067C10.9296 12.4224 10.7571 12.638 10.5414 12.8537C10.4983 12.8968 10.4551 12.94 10.412 12.9831C10.2826 13.1125 10.1532 13.285 10.0238 13.4144C9.89441 13.5438 9.76501 13.7164 9.63561 13.8458C9.46308 14.0614 9.29054 14.2771 9.11801 14.4928C8.98861 14.6653 8.81608 14.8378 8.68668 15.0535C8.55728 15.226 8.42788 15.3986 8.29848 15.5711C8.12595 15.7868 7.99655 16.0024 7.82401 16.2181C7.65148 16.4338 7.52208 16.6494 7.34955 16.8651C7.22015 17.0808 7.09075 17.2964 6.91822 17.469C6.78882 17.6415 6.65942 17.8572 6.57315 18.0297C6.48688 18.1591 6.40062 18.2885 6.35748 18.4179C6.01242 18.9355 5.71048 19.4962 5.40855 20.0138C5.27915 20.2295 5.14975 20.4883 5.02035 20.7039C5.02035 20.7471 4.97722 20.7902 4.97722 20.8333C4.84782 21.1353 4.67529 21.3941 4.54589 21.696C4.41649 21.9979 4.24396 22.2999 4.11456 22.6018L4.07142 22.6449C3.94202 22.9469 3.81262 23.2057 3.68322 23.5076C3.55382 23.8095 3.42442 24.1115 3.29502 24.4134C3.16562 24.7153 3.03623 25.0173 2.94996 25.3623C2.73429 25.9231 2.51863 26.5269 2.34609 27.0877C2.25983 27.3465 2.17356 27.6053 2.13043 27.8641C2.04416 28.1229 1.95789 28.3817 1.91476 28.6405C1.91476 28.6836 1.87163 28.7699 1.87163 28.813C1.78536 29.1149 1.74223 29.3737 1.65596 29.6757C1.65596 29.9345 1.61283 30.1933 1.52656 30.4521C1.52656 30.4952 1.52656 30.5815 1.48343 30.6246C1.4403 30.9265 1.35403 31.1853 1.3109 31.4873C1.26776 31.7892 1.1815 32.0911 1.13836 32.3931C1.13836 32.7381 1.09523 33.04 1.0521 33.342C0.965831 33.9458 0.879564 34.5928 0.836431 35.1967C0.793298 35.4986 0.793298 35.8006 0.750164 36.1456C0.750164 36.4044 0.707031 36.6632 0.707031 36.922C0.707031 37.0514 0.707031 37.1808 0.707031 37.3102C0.707031 37.569 0.707031 37.7847 0.707031 38.0435C0.707031 38.2592 0.707031 38.4748 0.707031 38.7336C0.707031 38.9493 0.707031 39.2081 0.707031 39.4238C0.707031 39.51 0.707031 39.5532 0.707031 39.6394C0.707031 39.7257 0.707031 39.8551 0.707031 39.9414C0.707031 40.0276 0.707031 40.0708 0.707031 40.157C0.707031 40.3296 0.707031 40.5021 0.707031 40.6746C0.707031 40.9334 0.750164 41.2354 0.750164 41.4942C0.750164 41.753 0.793298 42.0118 0.793298 42.2706C0.793298 42.3137 0.793298 42.3568 0.793298 42.4C0.793298 42.6156 0.836431 42.8744 0.879564 43.0901C0.879564 43.2195 0.922697 43.3058 0.922697 43.392C0.965831 43.6077 0.965831 43.8665 1.00896 44.0822C1.0521 44.341 1.09523 44.5998 1.13836 44.8154C1.13836 44.988 1.1815 45.1174 1.22463 45.2899C1.26776 45.5487 1.3109 45.7644 1.35403 46.0232C1.39716 46.282 1.4403 46.5408 1.52656 46.7996C1.5697 46.9289 1.5697 47.0152 1.61283 47.1446C1.65596 47.3603 1.74223 47.6191 1.78536 47.8347C1.87163 48.1367 1.91476 48.4386 2.00103 48.7405V48.7837C2.08729 49.0856 2.17356 49.3444 2.25983 49.6463C2.34609 49.9483 2.43236 50.2071 2.51863 50.509C2.60489 50.7678 2.69116 51.0266 2.77743 51.3285C2.86369 51.5442 2.90683 51.7599 2.99309 51.9324C3.03623 52.0618 3.07936 52.1912 3.12249 52.3206C3.25189 52.6225 3.33816 52.8813 3.46756 53.1833C3.81262 54.0459 4.20082 54.8655 4.58902 55.685C4.71842 55.9438 4.84782 56.2457 5.02035 56.5045C5.27915 57.0653 5.58109 57.5829 5.88302 58.1005C6.18495 58.6181 6.48688 59.1357 6.83195 59.6533C6.91822 59.7827 7.00448 59.9121 7.09075 60.0415C7.17701 60.1709 7.26328 60.3003 7.34955 60.4297C7.47895 60.6453 7.60835 60.8178 7.73775 61.0335C7.95341 61.3354 8.16908 61.6374 8.38474 61.9393C8.51414 62.1118 8.64354 62.2844 8.77294 62.4138C8.85921 62.5432 8.94548 62.6294 9.03174 62.7588C9.20428 62.9745 9.37681 63.1902 9.54934 63.4058C9.54934 63.4058 9.54934 63.4058 9.59248 63.449C0.836431 65.1312 2.21669 71.8168 2.21669 71.8168C2.21669 79.969 13.7764 80.4003 13.7764 80.4003C17.6584 80.4003 21.3678 80.2709 24.7754 80.0121C27.7947 79.7965 30.6415 79.4945 33.3157 79.1063C35.3861 78.8044 37.3271 78.4593 39.1819 78.1143C41.2091 77.6829 43.1501 77.2516 44.9617 76.734C46.8596 76.2164 48.6712 75.6557 50.3534 75.0087C50.7416 74.8793 51.0866 74.7499 51.4317 74.5774C59.3251 71.558 64.9324 67.5898 68.9007 63.449C70.0221 62.2844 71.0142 61.0766 71.8768 59.8689C72.0062 59.6964 72.1356 59.5239 72.2219 59.3082C72.2219 59.3082 72.2219 59.3082 72.265 59.2651C72.3944 59.0494 72.567 58.7906 72.6964 58.5749C72.912 58.2299 73.1277 57.8417 73.3434 57.4966C73.4728 57.3241 73.559 57.1515 73.6453 56.9359C73.9041 56.4183 74.1629 55.9007 74.4217 55.3831C74.5511 55.1674 74.6374 54.9086 74.7236 54.6929C74.7668 54.6498 74.7668 54.6067 74.7668 54.5635C74.853 54.3479 74.9393 54.1322 75.0687 53.9165C75.5 52.9245 75.8882 51.9324 76.2333 50.9403C76.449 50.3796 76.6215 49.7757 76.794 49.1719C76.794 49.1287 76.8372 49.0856 76.8372 49.0425C77.0097 48.4817 77.1391 47.921 77.2685 47.3603C77.3548 47.1015 77.3979 46.7996 77.441 46.5408C77.441 46.4976 77.4842 46.4545 77.4842 46.4114C77.5273 46.1094 77.6136 45.8506 77.6567 45.5487C77.6998 45.2468 77.7861 44.9448 77.8292 44.6429C77.9155 44.039 78.0018 43.392 78.088 42.7882C78.1743 42.1843 78.2174 41.5373 78.2606 40.9334C78.2606 40.6746 78.3037 40.3727 78.3037 40.1139C78.3037 40.0276 78.3037 39.9845 78.3037 39.8982C78.3037 39.6394 78.3037 39.3806 78.3037 39.1218V38.9924C78.3037 38.7336 78.3037 38.518 78.3037 38.2592C78.3037 38.1729 78.3037 38.0866 78.3037 38.0004C78.3037 37.871 78.3037 37.6553 78.3037 37.3965ZM38.3623 66.8996C36.4213 66.8996 34.6097 66.684 33.4451 66.5114C32.5825 66.382 32.0649 66.2526 32.0649 66.2526C31.5904 66.1232 31.1591 65.9938 30.7278 65.8644C30.3827 65.7782 30.0808 65.6919 29.7357 65.6056C24.9479 64.3116 20.9796 63.5784 17.7015 63.2764C16.5369 63.147 15.4586 63.1039 14.4665 63.1039C13.4745 59.4807 13.647 55.5125 15.2429 51.7599C18.9524 43.0038 29.0887 38.9062 37.8879 42.6156C38.4486 42.8744 39.0093 43.1332 39.5269 43.4352C43.7971 45.8075 46.7302 49.7757 47.8516 54.3047C49.4476 58.8337 49.0594 61.8099 47.5928 63.7078C45.5656 66.2526 41.7267 66.8996 38.3623 66.8996Z" fill="white"/>
<path opacity="0.8" d="M30.2966 58.316C30.124 59.9119 30.2534 61.2059 30.6848 62.2843C30.9004 63.2332 31.2024 64.1821 31.5474 65.131C31.72 65.5192 31.8925 65.9074 32.065 66.2525C31.5906 66.1231 31.1592 65.9937 30.7279 65.8643C25.4657 64.3978 21.1955 63.6214 17.7017 63.2763C16.5371 63.1469 15.4587 63.1038 14.4667 63.1038C13.4746 59.4806 13.6472 55.5123 15.2431 51.7598C18.9525 43.0037 29.0888 38.906 37.888 42.6155C38.4488 42.8743 39.0095 43.1331 39.5271 43.3919C33.8335 46.4112 30.426 52.1911 30.2966 58.316Z" fill="#FDFDFD"/>
<path opacity="0.8" d="M76.7945 71.9465C76.7945 80.0986 65.2348 80.53 65.2348 80.53C61.3528 80.53 57.6864 80.4006 54.2358 80.1418C51.2165 79.9261 48.3265 79.6242 45.6523 79.236C43.4093 78.934 41.2958 78.5458 39.2686 78.1145C40.8214 77.8126 42.331 77.4675 43.7544 77.0793C44.1857 76.9499 44.6171 76.8637 45.0484 76.7343C45.2641 76.6911 45.5229 76.6049 45.7385 76.5186C46.213 76.3892 46.6875 76.2598 47.1188 76.0873C47.2913 76.0441 47.4639 75.9579 47.6795 75.9147C48.6285 75.6128 49.5343 75.3109 50.4401 75.0089C50.8283 74.8795 51.1733 74.7501 51.5184 74.5776C53.33 73.8875 55.0122 73.1542 56.565 72.3778C56.9532 72.2053 57.2982 71.9896 57.6433 71.8171C57.859 71.6877 58.0746 71.6014 58.2903 71.472C58.6785 71.2563 59.0667 71.0407 59.4549 70.825C59.6706 70.6956 59.8431 70.6093 60.0588 70.4799C60.6195 70.1349 61.1802 69.7898 61.741 69.4447C61.9135 69.3153 62.086 69.2291 62.2586 69.0997C62.4311 68.9703 62.6468 68.8409 62.8193 68.7115C62.9918 68.5821 63.1644 68.4958 63.2938 68.3664C64.0702 67.8057 64.8466 67.2449 65.5367 66.6411C65.7092 66.5117 65.8386 66.3823 66.0112 66.2529C67.0895 65.3471 68.0815 64.3981 68.9873 63.4492C78.2179 65.0451 76.7945 71.9465 76.7945 71.9465Z" fill="white"/>
<path d="M9.63574 63.449C9.63574 63.449 11.1885 62.8883 14.4235 63.0608Z" fill="white"/>
<path opacity="0.8" d="M74.4214 98.5595C71.9628 99.9829 68.9866 100.242 66.1398 99.8104C59.1954 98.8183 53.0704 94.1168 49.4041 88.1213C47.6788 85.3608 46.4711 82.3414 45.6084 79.2358C48.3258 79.624 51.1726 79.926 54.1919 80.1416C54.235 80.2279 54.2782 80.271 54.3213 80.3573C55.184 81.8238 56.2192 83.2472 57.6426 84.153C61.0932 86.3097 65.5791 84.8432 69.6336 85.0157C73.5156 85.1882 77.6995 87.6468 78.2171 91.4857C78.6485 94.2893 76.88 97.093 74.4214 98.5595Z" fill="white"/>
<path opacity="0.8" d="M33.4017 79.1064C32.539 82.2552 31.3313 85.3176 29.6059 88.1213C25.8965 94.1168 19.8147 98.7752 12.8703 99.8104C10.0666 100.199 7.04727 99.9829 4.58867 98.5595C2.13008 97.1361 0.361618 94.2893 0.749817 91.4857C1.26742 87.6468 5.45134 85.1882 9.33333 85.0157C13.3879 84.8432 17.8737 86.3097 21.3244 84.153C22.7478 83.2472 23.783 81.8238 24.6456 80.3573C24.6888 80.271 24.775 80.1416 24.8182 80.0554C27.8375 79.7966 30.6843 79.4946 33.4017 79.1064Z" fill="white"/>
</svg>
