<svg width="101" height="56" viewBox="0 0 101 56" fill="none" xmlns="http://www.w3.org/2000/svg">
<path d="M68.7704 23.0832L68.1477 22.7718C67.6548 22.5643 67.084 22.4346 66.5133 22.4346H30.6591L21.3193 33.5385V44.3051L30.6591 55.6425H66.4873C67.0581 55.6425 67.6288 55.5387 68.1218 55.3052L68.7444 54.9939L86.5937 45.9655V32.0597L68.7704 23.0832ZM32.9681 36.081C31.9822 36.081 31.1779 34.8616 31.1779 33.3569C31.1779 31.8521 31.9822 30.6328 32.9681 30.6328C33.9539 30.6328 34.7582 31.8521 34.7582 33.3569C34.7582 34.8616 33.9799 36.081 32.9681 36.081ZM59.3787 28.4795C59.3787 29.0502 58.9118 29.5172 58.341 29.5172H43.112C42.5413 29.5172 42.0743 29.0502 42.0743 28.4795V24.3285H59.3787V28.4795V28.4795Z" fill="#FF8989"/>
<path d="M59.3796 4.689V19.7104H42.0752C42.1011 18.5948 42.5681 2.6135 56.0848 0.356398C56.0848 0.356398 56.0848 0.356398 56.1107 0.356398C56.1886 0.356398 56.448 0.330455 56.7074 0.434229C58.29 1.13471 59.3796 2.76916 59.3796 4.689Z" fill="#FF8989"/>
<path d="M10.0603 38.2081V40.8024H5.7536C5.72766 40.8024 5.70171 40.8024 5.67577 40.8024C5.52011 40.8024 5.3385 40.8803 5.23473 41.01L2.53658 43.6822C2.27714 43.9416 1.8361 43.9416 1.57666 43.6822L0.694578 42.8001C0.435141 42.5407 0.435141 42.0996 0.694578 41.8402L4.14509 38.3897C4.19698 38.3378 4.24887 38.2859 4.3267 38.26C4.40453 38.2081 4.5083 38.1821 4.61208 38.1821H10.0603V38.2081Z" fill="#FF8989"/>
<path d="M20.2044 33.8494V44.2269C20.2044 44.5123 19.9709 44.7458 19.6855 44.7458H16.0534C15.4826 44.7458 15.0156 44.2788 15.0156 43.708V34.3683C15.0156 33.7976 15.4826 33.3306 16.0534 33.3306H19.6855C19.9709 33.3306 20.2044 33.5641 20.2044 33.8494Z" fill="#FF8989"/>
<path d="M68.1484 22.7715L68.7711 23.0828C68.5635 22.9531 68.356 22.8493 68.1484 22.7715ZM68.1484 55.3308C68.356 55.253 68.5635 55.1492 68.7711 55.0195L68.1484 55.3308Z" fill="#FF8989"/>
<path d="M13.9783 35.8992V42.2036C13.9783 42.4889 13.7448 42.7224 13.4594 42.7224H12.1881C11.6174 42.7224 11.1504 42.2555 11.1504 41.6847V36.4181C11.1504 35.8474 11.6174 35.3804 12.1881 35.3804H13.4594C13.7448 35.3804 13.9783 35.6139 13.9783 35.8992Z" fill="#FF8989"/>
<path d="M98.3208 22.4865C98.0873 22.4346 97.8797 22.4346 97.8278 22.4346H97.8019C92.7688 23.0572 89.941 25.444 88.3584 27.9087V50.1684C89.941 52.633 92.7688 55.0199 97.8019 55.6425C97.8019 55.6425 97.8019 55.6425 97.8278 55.6425C97.8797 55.6425 98.1132 55.6685 98.3208 55.5906C99.592 55.1755 100.5 54.1637 100.5 52.9703V25.1068C100.5 23.9134 99.592 22.9016 98.3208 22.4865Z" fill="#FF8989"/>
</svg>
