<svg width="100" height="48" viewBox="0 0 100 48" fill="none" xmlns="http://www.w3.org/2000/svg">
<path d="M65.6495 17.4561C65.5185 17.3579 65.3549 17.2925 65.1912 17.2925H1.23573C0.744774 17.2925 0.417469 17.7507 0.48293 18.1762C0.48293 18.2089 0.48293 18.2089 0.48293 18.2417L6.669 46.7827V46.8154C6.73446 47.1427 7.02904 47.4046 7.42181 47.4046H58.9397C59.1033 47.4046 59.267 47.3391 59.3979 47.2737L59.4306 47.2409C59.5616 47.1427 59.6598 46.9791 59.6925 46.8154V46.7827L65.8786 18.2417C65.8786 18.2089 65.8786 18.2089 65.8786 18.1762C65.9768 17.9144 65.8786 17.6198 65.6495 17.4561ZM9.7784 27.8644C9.15652 27.8644 8.63284 26.8171 8.63284 25.4751C8.63284 24.1659 9.12379 23.0858 9.7784 23.0858C10.4003 23.0858 10.8912 24.1659 10.8912 25.4751C10.8912 26.8171 10.4003 27.8644 9.7784 27.8644Z" fill="#FEB700"/>
<path d="M65.9441 16.1798H14.2625C9.94209 16.1798 6.47266 12.6777 6.47266 8.38997C6.47266 4.06954 9.97482 0.600098 14.2625 0.600098H60.4453C61.0017 0.600098 61.4272 1.02559 61.4272 1.58201C61.4272 1.84386 61.329 2.07297 61.1654 2.26936C61.0999 2.30209 61.0345 2.36755 61.0017 2.40028C59.267 3.84042 58.1869 6.00064 58.1869 8.38997C58.1542 12.6777 61.6236 16.1798 65.9441 16.1798Z" fill="#FEB700"/>
<path d="M100.474 17.2601V43.4118C100.474 44.1318 99.5908 44.4919 99.0998 44.0009L85.4512 30.3523L99.0998 16.7036C99.5908 16.18 100.474 16.54 100.474 17.2601Z" fill="#FEB700"/>
<path d="M85.4187 30.3519L60.5762 47.2409C60.7071 47.1427 60.8053 46.979 60.838 46.8154V46.7826L67.0241 18.2416C67.0241 18.2089 67.0241 18.2089 67.0241 18.1761C67.0895 17.8816 66.9586 17.587 66.7295 17.4233L85.4187 30.3519Z" fill="#FEB700"/>
</svg>
