<svg width="100" height="66" viewBox="0 0 100 66" fill="none" xmlns="http://www.w3.org/2000/svg">
<path d="M99.9998 25.4563V57.2003C99.9998 58.0744 98.1325 58.5114 97.0201 57.9155L83.79 50.0887V32.6076L97.0201 24.7411C98.0928 24.1452 99.9998 24.5822 99.9998 25.4563Z" fill="#2DF781"/>
<path d="M81.4858 32.4884L35.28 17.55L35.1608 17.5103C35.0417 17.4705 34.8827 17.4705 34.7636 17.5103C34.7238 17.5103 34.7238 17.5103 34.6841 17.5103L0.0397298 25.0192H0L14.0643 41.3084L0 57.5579H0.0397298L34.6841 65.0668C34.7238 65.0668 34.7238 65.0668 34.7636 65.0668C34.8827 65.1065 35.0417 65.1065 35.1608 65.0668L35.28 65.0271L81.4858 50.0887L81.7639 50.0092V32.5281L81.4858 32.4884ZM22.9638 32.8062C22.2089 32.8062 21.5733 31.5349 21.5733 29.906C21.5733 28.3168 22.1692 27.0057 22.9638 27.0057C23.7187 27.0057 24.3146 28.3168 24.3146 29.906C24.3544 31.5349 23.7187 32.8062 22.9638 32.8062ZM37.2268 51.6779L36.6309 52.5519C36.3527 52.989 35.8363 52.6711 35.8363 52.0752V30.5416C35.8363 29.9457 36.3527 29.6278 36.6309 30.0649L37.2268 30.9389V51.6779ZM40.0476 47.6254L38.6571 49.6517V32.9651L40.0476 34.9914V47.6254ZM42.8287 43.5333L41.4382 45.5595V37.0176L42.8287 39.0438V43.5333Z" fill="#2DF781"/>
<path d="M35.8359 15.7225L61.263 0.90332V23.9069L35.8359 15.7225Z" fill="#2DF781"/>
</svg>
