<svg width="100" height="92" viewBox="0 0 100 92" fill="none" xmlns="http://www.w3.org/2000/svg">
<path d="M99.9998 24.3994V68.6248C99.9998 69.8425 98.5053 70.4513 97.6751 69.6211L74.5938 46.5398L97.6751 23.4584C98.5053 22.5728 99.9998 23.1817 99.9998 24.3994Z" fill="#10C4C1"/>
<path d="M13.4869 30.7646L1.42043 42.8865C-0.406153 44.7131 -0.461504 47.536 1.19902 49.1965L13.2102 61.2076L28.5977 45.8201L13.4869 30.7646ZM12.3799 39.8422C13.2102 39.8422 13.819 40.285 13.819 40.7832C13.819 41.2813 13.1548 41.7241 12.3799 41.7241C11.605 41.7241 10.9408 41.2813 10.9408 40.7832C10.9408 40.285 11.605 39.8422 12.3799 39.8422ZM12.3799 50.4696C11.5496 50.4696 10.9408 50.0268 10.9408 49.5286C10.9408 48.9751 11.605 48.5876 12.3799 48.5876C13.1548 48.5876 13.819 49.0304 13.819 49.5286C13.819 50.0268 13.2102 50.4696 12.3799 50.4696Z" fill="#10C4C1"/>
<path d="M52.9514 22.7388L73.3206 43.1079C74.9811 44.7684 74.9257 47.5913 73.0992 49.4179L53.3389 69.2335L29.8701 45.8201L52.9514 22.7388Z" fill="#10C4C1"/>
<path d="M48.3025 2.09291L60.3136 14.104L29.2065 45.1559L14.2617 30.2112L41.9925 2.25896C43.8191 0.487732 46.642 0.37703 48.3025 2.09291Z" fill="#10C4C1"/>
<path d="M29.2069 46.4844L13.8193 61.8719L21.0703 69.1229L36.4578 53.7353L29.2069 46.4844Z" fill="#10C4C1"/>
<path d="M37.1219 54.3994L21.7344 69.787L28.9853 76.9826L44.3729 61.595L37.1219 54.3994Z" fill="#10C4C1"/>
<path d="M45.037 62.3145L60.3138 77.5913L48.192 89.7131C46.3654 91.5397 43.5978 91.5951 41.882 89.9345L29.6494 77.702L45.037 62.3145Z" fill="#10C4C1"/>
</svg>
