<svg width="52" height="101" viewBox="0 0 52 101" fill="none" xmlns="http://www.w3.org/2000/svg">
<path d="M34.6045 8.82147H17.3854C16.9118 8.82147 16.5244 8.43404 16.5244 7.96051V1.93383C16.5244 0.986774 17.2993 0.211914 18.2463 0.211914H33.7435C34.6906 0.211914 35.4654 0.986774 35.4654 1.93383V7.96051C35.4654 8.43404 35.078 8.82147 34.6045 8.82147Z" fill="#21B860"/>
<path d="M51.8233 61.8133C51.8233 61.8564 51.8233 61.8564 51.8233 61.8994L43.6443 99.394V99.4371C43.5582 99.8675 43.1707 100.212 42.6542 100.212H9.33517C8.8186 100.212 8.47422 99.8675 8.34507 99.4371V99.394L0.209044 61.8994C0.209044 61.8564 0.209044 61.8564 0.209044 61.8133C0.165996 61.6842 0.165996 61.512 0.209044 61.3828L0.252091 61.2537L16.5242 10.8447H35.4652L51.7372 61.2537L51.7803 61.3828C51.8233 61.512 51.8233 61.6411 51.8233 61.8133Z" fill="#21B860"/>
</svg>
