<svg width="101" height="80" viewBox="0 0 101 80" fill="none" xmlns="http://www.w3.org/2000/svg">
<path d="M17.6803 8.52832H4.75706C2.47649 8.52832 0.5 10.5048 0.5 12.9374C0.5 15.37 2.47649 17.1945 4.75706 17.1945H17.6803V8.52832ZM17.6803 34.3748H4.75706C2.32446 34.3748 0.5 36.3513 0.5 38.6318C0.5 41.0645 2.47649 42.8889 4.75706 42.8889H17.6803V34.3748Z" fill="white"/>
<path d="M30.4507 4.27122V47.1459C30.4507 49.5786 28.4742 51.403 26.1936 51.403C23.913 51.403 21.9365 49.4265 21.9365 47.1459V4.27122C21.9365 1.83862 23.913 0.0141602 26.1936 0.0141602C28.4742 0.0141602 30.4507 1.99065 30.4507 4.27122Z" fill="white"/>
<path d="M60.0994 65.2381V79.9858H45.0477C42.311 79.9858 40.0304 77.7052 40.0304 74.9685C40.0304 72.3839 42.0069 70.4074 44.4395 70.1033L43.0712 69.4952C40.4865 68.4309 39.1182 65.5422 40.1825 62.9575C41.2467 60.2208 44.1354 59.0045 46.7201 60.0688L60.0994 65.2381Z" fill="white"/>
<path d="M87.3132 71.1676C81.6878 76.0329 74.542 79.0736 66.7881 79.8338V65.9983C68.1564 65.5422 69.5248 64.782 70.437 63.7178L87.3132 71.1676Z" fill="white"/>
<path d="M92.3312 65.9989L73.4785 57.6368C73.4785 57.3327 73.6306 56.8766 73.6306 56.5725C73.6306 56.1164 73.4785 55.5082 73.4785 55.0521L99.629 36.0474C99.9331 37.2637 100.237 38.3279 100.389 39.5442C101.149 49.4267 97.9566 58.8531 92.3312 65.9989Z" fill="white"/>
<path d="M97.3489 29.2055L70.1341 48.9704C68.3097 47.45 66.0291 46.3858 63.4444 46.3858H60.0996V6.0957H61.9241C77.4319 6.0957 91.5715 15.5221 97.3489 29.2055Z" fill="white"/>
<path d="M53.4099 4.271H30.4521V47.1457H53.4099V4.271Z" fill="white"/>
</svg>
