<svg width="101" height="76" viewBox="0 0 101 76" fill="none" xmlns="http://www.w3.org/2000/svg">
<path d="M100.5 15.1741V60.8834C100.5 62.1419 98.9551 62.7712 98.097 61.9131L74.2412 38.0573L98.097 14.2015C99.0123 13.2862 100.5 13.9155 100.5 15.1741Z" fill="#FF8989"/>
<path d="M42.7194 1.5587V5.96372H39.8018V1.5587C39.8018 0.757786 40.4311 0.0712891 41.2892 0.0712891C42.0901 0.0712891 42.7194 0.700578 42.7194 1.5587Z" fill="#FF8989"/>
<path d="M16.2327 64.6019L19.3219 61.5126L17.2624 59.4531L14.1732 62.5424C13.6011 63.1144 13.6011 64.0298 14.1732 64.6019C14.7453 65.1739 15.6606 65.1739 16.2327 64.6019Z" fill="#FF8989"/>
<path d="M66.0609 64.6019L62.9717 61.5126L65.0312 59.4531L68.1204 62.5424C68.6925 63.1144 68.6925 64.0298 68.1204 64.6019C67.5483 65.1739 66.633 65.1739 66.0609 64.6019Z" fill="#FF8989"/>
<path d="M70.5228 34.2817C69.8363 28.9614 67.7196 24.0415 64.6304 19.9797C63.0858 17.9774 61.3123 16.204 59.31 14.6594C55.2483 11.5129 50.3856 9.39621 45.008 8.76692C43.7494 8.59529 42.5481 8.53809 41.2323 8.53809C39.9165 8.53809 38.7151 8.59529 37.4565 8.76692C32.1362 9.45342 27.2163 11.5701 23.1545 14.6594C21.1522 16.204 19.3788 17.9774 17.8342 19.9797C14.6877 24.0415 12.571 28.9042 11.9417 34.2817C11.7701 35.5403 11.7129 36.7417 11.7129 38.0575C11.7129 39.3733 11.7701 40.5746 11.9417 41.8332C12.6282 47.1536 14.7449 52.0735 17.8342 56.1352C19.3788 58.1375 21.1522 59.911 23.1545 61.4556C27.2163 64.602 32.079 66.7187 37.4565 67.348C38.7151 67.5196 39.9737 67.5769 41.2323 67.5769C42.4909 67.5769 43.7494 67.5196 45.008 67.348C50.3284 66.6615 55.2483 64.5448 59.31 61.4556C61.3123 59.911 63.0858 58.1375 64.6304 56.1352C67.7768 52.0735 69.8935 47.2108 70.5228 41.8332C70.6945 40.5746 70.7517 39.3733 70.7517 38.0575C70.7517 36.7417 70.6945 35.4831 70.5228 34.2817ZM24.9852 36.8561C23.8982 36.8561 22.9829 35.0254 22.9829 32.6799C22.9829 30.3916 23.841 28.5037 24.9852 28.5037C26.0721 28.5037 26.9302 30.3916 26.9302 32.6799C26.9302 35.0254 26.0721 36.8561 24.9852 36.8561Z" fill="#FF8989"/>
<path d="M2.21624 28.561H8.22309C8.68076 28.561 9.08122 28.9615 9.08122 29.4192V46.6388C9.08122 47.0965 8.68076 47.4969 8.22309 47.4969H2.21624C1.24371 47.4969 0.5 46.7532 0.5 45.7807V30.2773C0.5 29.3047 1.24371 28.561 2.21624 28.561Z" fill="#FF8989"/>
<path d="M39.8018 74.4416V70.0366H42.7194V74.4416C42.7194 75.2426 42.0901 75.9291 41.232 75.9291C40.431 75.8718 39.8018 75.2426 39.8018 74.4416Z" fill="#FF8989"/>
<path d="M66.0609 11.3412L62.9717 14.4304L65.0312 16.4899L68.1204 13.4007C68.6925 12.8286 68.6925 11.9133 68.1204 11.3412C67.5483 10.7691 66.633 10.7691 66.0609 11.3412Z" fill="#FF8989"/>
<path d="M16.2327 11.3412L19.3219 14.4304L17.2624 16.4899L14.1732 13.4007C13.6011 12.8286 13.6011 11.9133 14.1732 11.3412C14.7453 10.7691 15.6606 10.7691 16.2327 11.3412Z" fill="#FF8989"/>
</svg>
