<svg width="74" height="100" viewBox="0 0 74 100" fill="none" xmlns="http://www.w3.org/2000/svg">
<path d="M66.07 59.0845V97.0206C66.07 97.7473 65.852 98.4014 65.416 98.9101C65.3433 98.9828 65.2706 99.0554 65.1979 99.1281C64.6892 99.6368 63.9625 100 63.0904 100H61.6369C60.038 100 58.6572 98.6921 58.6572 97.0206V66.7153C58.6572 64.6077 56.913 62.8635 54.8055 62.8635H52.9886C51.9712 62.8635 51.0264 63.2269 50.3723 63.881C50.2997 63.9537 50.227 64.0263 50.1543 64.099C49.5002 64.7531 49.1369 65.6978 49.1369 66.6426V96.8752C49.1369 97.3839 48.9915 97.8926 48.7735 98.256C48.7008 98.4014 48.6281 98.5467 48.5555 98.6194C48.4828 98.6921 48.4101 98.7647 48.4101 98.8374C48.3374 98.9101 48.3374 98.9828 48.2648 98.9828C47.7561 99.4188 47.0293 99.7822 46.3026 99.7822H44.8491C43.2502 99.7822 41.9421 98.474 41.9421 96.8025V66.7153C41.9421 64.6077 40.1979 62.8635 38.0903 62.8635H36.1281C34.0206 62.8635 32.2764 64.6077 32.2764 66.7153V96.9479C32.2764 98.5467 30.9682 99.9275 29.3694 99.9275H27.9159C27.1165 99.9275 26.4624 99.6368 25.9537 99.1281C25.881 99.0554 25.8083 99.0554 25.8083 98.9828C25.7357 98.9101 25.663 98.8374 25.663 98.7647C25.2996 98.256 25.0816 97.6746 25.0816 96.9479V66.7153C25.0816 65.6978 24.7182 64.8257 24.0642 64.1717C23.9915 64.099 23.9188 64.0263 23.8461 63.9536C23.1921 63.2996 22.2473 62.9362 21.2299 62.9362H19.3403C17.2328 62.9362 15.4886 64.6804 15.4886 66.788V97.0206C15.4886 98.6194 14.1804 100 12.5816 100H11.1281C10.3287 100 9.60193 99.6368 9.02053 99.1281C8.94786 99.0554 8.87518 98.9828 8.80251 98.9101C8.36646 98.4014 8.14844 97.7473 8.14844 97.0206V59.0845C8.14844 43.0234 21.1572 30.0146 37.2182 30.0146C53.2793 30.0146 66.07 43.0234 66.07 59.0845Z" fill="#FEB700"/>
<path d="M37.0003 0C20.2125 0 5.96833 10.8285 0.663086 25.9448H73.3376C68.0324 10.8285 53.7882 0 37.0003 0ZM28.3521 17.6599C27.262 17.6599 26.3172 16.2791 26.3172 14.5349C26.3172 12.7907 27.262 11.4099 28.3521 11.4099C29.5149 11.4099 30.387 12.7907 30.387 14.5349C30.387 16.2791 29.4422 17.6599 28.3521 17.6599ZM44.9945 17.6599C43.9044 17.6599 42.9597 16.2791 42.9597 14.5349C42.9597 12.7907 43.9044 11.4099 44.9945 11.4099C46.1573 11.4099 47.0294 12.7907 47.0294 14.5349C47.1021 16.2791 46.1573 17.6599 44.9945 17.6599Z" fill="#FEB700"/>
</svg>
