<svg width="100" height="40" viewBox="0 0 100 40" fill="none" xmlns="http://www.w3.org/2000/svg">
<path d="M36.5686 17.8781V32.6383C36.5686 33.0442 36.2365 33.3763 35.8305 33.3763H30.6645C29.8527 33.3763 29.1885 32.7121 29.1885 31.9003V18.6162C29.1885 17.8043 29.8527 17.1401 30.6645 17.1401H35.8305C36.2365 17.1401 36.5686 17.4722 36.5686 17.8781Z" fill="#2DF781"/>
<path d="M27.7126 20.7566V29.7234C27.7126 30.1293 27.3805 30.4614 26.9746 30.4614H25.1664C24.3546 30.4614 23.6904 29.7972 23.6904 28.9853V21.4946C23.6904 20.6828 24.3546 20.0186 25.1664 20.0186H26.9746C27.3805 20.0186 27.7126 20.3507 27.7126 20.7566Z" fill="#2DF781"/>
<path d="M22.1402 24.5205H0V25.9965H22.1402V24.5205Z" fill="#2DF781"/>
<path d="M60.222 11.1622L60.1482 11.1253C60.0744 11.0884 60.0006 11.0884 59.9268 11.1253H59.8899L39.3733 15.5903C39.3733 15.5903 39.3733 15.5903 39.3364 15.5903C39.115 15.6272 38.8936 15.8486 38.8936 16.1069V34.3357C38.8936 34.594 39.0781 34.8154 39.3364 34.8523C39.3364 34.8523 39.3364 34.8523 39.3733 34.8523L59.8899 39.3172H59.9268C60.0006 39.3172 60.0744 39.3172 60.1482 39.3172L60.222 39.2803L87.7866 30.3873V20.0552L60.222 11.1622ZM51.1076 20.7932C50.6279 20.7932 50.222 19.9814 50.222 18.9482C50.222 17.9519 50.591 17.1032 51.1076 17.1032C51.5873 17.1032 51.9563 17.915 51.9563 18.9482C51.9932 19.9814 51.5873 20.7932 51.1076 20.7932Z" fill="#2DF781"/>
<path d="M99.9997 15.2582V35.2583C99.9997 35.8118 98.8189 36.0701 98.1178 35.7011L89.7783 30.7564V19.7601L98.1547 14.7785C98.8189 14.4095 99.9997 14.7047 99.9997 15.2582Z" fill="#2DF781"/>
<path d="M60.5166 10.0184L76.5314 0.682617V15.1845L60.5166 10.0184Z" fill="#2DF781"/>
</svg>
