<svg width="100" height="62" viewBox="0 0 100 62" fill="none" xmlns="http://www.w3.org/2000/svg">
<path d="M85.6555 26.8369V30.8605C85.6555 35.2433 82.3863 38.8717 78.1831 39.4106C77.8238 39.4465 77.4287 39.4825 77.0335 39.4825H22.9304C22.5352 39.4825 22.176 39.4465 21.7808 39.4106C20.3797 39.231 19.0505 38.6921 17.9368 37.9018C15.7095 36.357 14.2725 33.7704 14.2725 30.8605V26.8369C14.2725 22.0588 18.1164 18.2148 22.8945 18.2148H76.9976C81.8115 18.2148 85.6555 22.0588 85.6555 26.8369Z" fill="#10C4C1"/>
<path d="M78.1829 40.9194H21.7806L18.7988 61.3967H81.2006L78.1829 40.9194ZM34.4621 57.6246C34.4262 57.7683 34.3184 57.876 34.1388 57.876H34.067C33.9233 57.876 33.8155 57.7323 33.8155 57.5527L35.8273 43.1827C35.8632 43.039 36.0069 42.9312 36.1506 42.9312H36.2225C36.3662 42.9672 36.4739 43.1109 36.4739 43.2546L34.4621 57.6246ZM50.3051 57.6964C50.3051 57.8401 50.1973 57.9838 50.0177 57.9838H49.9458C49.8021 57.9838 49.6584 57.8401 49.6584 57.6964V43.1827C49.6584 43.039 49.7662 42.8953 49.9458 42.8953H50.0177C50.1614 42.8953 50.3051 43.0031 50.3051 43.1827V57.6964ZM65.8965 57.8401H65.8247C65.681 57.8401 65.5373 57.7683 65.5014 57.5887L63.4896 43.2186C63.4536 43.0749 63.5614 42.9312 63.741 42.8953H63.8129C63.9566 42.8594 64.1003 42.9672 64.1362 43.1468L66.148 57.5168C66.148 57.6964 66.0402 57.8401 65.8965 57.8401Z" fill="#10C4C1"/>
<path d="M14.3085 27.6273V31.3994H7.41088C6.0098 31.3994 4.89612 30.2858 4.89612 28.8847V16.2032C4.68057 16.1672 4.50095 16.0954 4.32132 16.0595C2.23767 15.4487 0.72882 14.0836 0.29772 12.467C0.22587 12.2873 0.189945 12.0718 0.118095 11.8922C-0.0615305 11.1377 -0.0256054 10.3474 0.15402 9.55703L1.95027 1.36612C2.02212 1.15057 2.16582 0.935019 2.34545 0.791319C2.561 0.647619 2.77655 0.575769 3.02802 0.611694C3.24357 0.647619 3.45912 0.755394 3.63875 0.935019C3.74652 1.04279 3.81837 1.18649 3.8543 1.33019C3.89022 1.40204 3.89022 1.50982 3.89022 1.58167V10.2396H4.93205L5.32722 6.71895L5.93795 1.33019C5.97387 1.15057 6.04572 0.935019 6.22535 0.827244C6.36905 0.683544 6.54868 0.611694 6.69238 0.611694C6.94385 0.611694 7.12348 0.683544 7.26718 0.827244C7.4468 0.970944 7.48273 1.15057 7.55458 1.33019L8.1653 6.71895L8.56048 10.2396H9.56638V1.58167C9.56638 1.47389 9.6023 1.40204 9.6023 1.29427C9.63823 1.15057 9.746 1.04279 9.78193 0.935019C9.99748 0.755394 10.213 0.647619 10.4286 0.611694C10.6801 0.575769 10.8597 0.647619 11.1112 0.791319C11.2908 0.935019 11.4345 1.15057 11.5063 1.36612L13.3026 9.55703C13.4822 10.3115 13.4822 11.1018 13.3385 11.8562C13.3026 11.9999 13.2667 12.1436 13.1948 12.3233C12.7996 14.0477 11.2189 15.4847 9.06343 16.0954C8.91973 16.1313 8.7401 16.2032 8.56048 16.2032V21.9512H8.5964V26.3699C8.5964 27.0525 9.1712 27.6273 9.85378 27.6273H14.3085Z" fill="#10C4C1"/>
<path d="M85.6553 27.6273V31.3994H92.5888C93.9899 31.3994 95.1036 30.2858 95.1036 28.8847V16.2032C95.3191 16.1672 95.4987 16.0954 95.6784 16.0595C97.7261 15.4487 99.2349 14.1195 99.702 12.467C99.7738 12.2873 99.8097 12.0718 99.8816 11.8922C100.061 11.1377 100.025 10.3474 99.8457 9.55703L98.0494 1.36612C98.0135 1.15057 97.8698 0.935019 97.6542 0.791319C97.4746 0.647619 97.2231 0.575769 96.9717 0.611694C96.7202 0.647619 96.5046 0.755394 96.3609 0.935019C96.2532 1.04279 96.1813 1.18649 96.1454 1.33019C96.1095 1.40204 96.1095 1.50982 96.1095 1.58167V10.2396H95.0676L94.6725 6.71895L94.0617 1.33019C94.0258 1.15057 93.954 0.935019 93.7743 0.827244C93.6306 0.683544 93.4151 0.611694 93.2714 0.611694C93.0199 0.611694 92.8403 0.683544 92.6966 0.827244C92.5529 0.970944 92.517 1.15057 92.4092 1.33019L91.7985 6.71895L91.4033 10.2396H90.3974V1.58167C90.3974 1.47389 90.3615 1.40204 90.3615 1.29427C90.3255 1.15057 90.2178 1.04279 90.1818 0.935019C89.9663 0.755394 89.7507 0.647619 89.5352 0.611694C89.2837 0.575769 89.1041 0.647619 88.8526 0.791319C88.673 0.935019 88.5293 1.15057 88.4574 1.36612L86.6612 9.55703C86.4816 10.3115 86.4816 11.1018 86.6253 11.8562C86.6612 11.9999 86.6971 12.1436 86.769 12.3233C87.1641 14.0477 88.7448 15.4847 90.9003 16.0954C91.044 16.1313 91.2237 16.2032 91.4033 16.2032V21.9512H91.3674V26.3699C91.3674 27.0525 90.7926 27.6273 90.11 27.6273H85.6553Z" fill="#10C4C1"/>
<path d="M55.8135 6.91071C55.8135 8.7632 56.3748 10.335 57.2169 10.8402V18.8677H58.3396V10.8402C59.1255 10.335 59.6869 8.7632 59.6869 6.96685C59.6869 4.72141 58.8448 2.86892 57.7221 2.86892C56.6555 2.81278 55.8135 4.66527 55.8135 6.91071Z" fill="#10C4C1"/>
<path d="M40.3135 6.91071C40.3135 8.7632 40.8748 10.335 41.7169 10.8402V18.8677H42.8396V10.8402C43.6255 10.335 44.1869 8.7632 44.1869 6.96685C44.1869 4.72141 43.3448 2.86892 42.2221 2.86892C41.1555 2.81278 40.3135 4.66527 40.3135 6.91071Z" fill="#10C4C1"/>
</svg>
