<svg width="101" height="54" viewBox="0 0 101 54" fill="none" xmlns="http://www.w3.org/2000/svg">
<path d="M99.3727 36.4497C99.2401 36.4497 99.1738 36.4497 99.1074 36.4497C96.5212 36.7813 95.0624 37.9749 94.2666 39.2348V50.6407C95.0624 51.9006 96.5212 53.1605 99.1074 53.4258C99.1074 53.4258 99.2401 53.4258 99.3727 53.4258C100.036 53.2269 100.5 52.6963 100.5 52.0995V37.8423C100.5 37.1791 100.036 36.715 99.3727 36.4497Z" fill="white"/>
<path d="M42.6751 5.94556V9.2612C42.6751 10.3885 41.813 11.2506 40.752 11.118L25.1022 9.46014L9.45237 11.118C8.39136 11.2506 7.5293 10.3885 7.5293 9.2612V5.94556C7.5293 4.81824 8.39136 3.95617 9.45237 4.0888L21.5876 5.34874V2.29835C21.5876 1.36997 22.3834 0.574219 23.3118 0.574219H26.8263C27.821 0.574219 28.6168 1.36997 28.6168 2.29835V5.34874L40.752 4.0888C41.7467 3.95617 42.6751 4.81824 42.6751 5.94556Z" fill="white"/>
<path d="M48.7094 22.7226C48.4442 22.1258 47.8474 21.6616 47.1179 21.6616H34.9164C34.7837 21.529 34.6511 21.3963 34.4522 21.33C32.7943 20.0038 30.805 19.0754 28.5503 18.6112V13.3725L25.0357 12.9746L24.6379 13.0409L24.24 12.9746L20.7254 13.3725V18.6112C18.4708 19.0754 16.4814 20.0038 14.8236 21.33C14.6246 21.3963 14.492 21.529 14.3594 21.6616H2.22413C1.49469 21.6616 0.897877 22.1258 0.632626 22.7226C0.566313 22.9215 0.5 23.1205 0.5 23.3857V33.9295C0.5 34.9242 1.29575 35.7199 2.22413 35.7199H11.4416C14.0941 39.3671 19.2665 42.7491 24.24 42.7491C24.3726 42.7491 24.4389 42.7491 24.5716 42.7491H24.7705C24.9031 42.7491 24.9694 42.7491 25.1021 42.7491C30.0755 42.7491 35.2479 39.4334 37.9004 35.7199H47.1179C48.1126 35.7199 48.8421 34.9242 48.8421 33.9958V23.3857C48.8421 23.1205 48.842 22.9215 48.7094 22.7226ZM19.8633 27.8287C19.0013 27.8287 18.2718 26.3035 18.2718 24.4467C18.2718 22.59 19.0013 21.0648 19.8633 21.0648C20.7254 21.0648 21.4549 22.59 21.4549 24.4467C21.4549 26.3698 20.7254 27.8287 19.8633 27.8287Z" fill="white"/>
<path d="M92.9407 39.4334V50.1098H73.3784C69.466 50.1098 66.283 46.9268 66.283 43.0143V37.643C66.283 35.6536 64.6915 34.0621 62.7021 34.0621H50.1689V23.3857H69.7312C73.6437 23.3857 76.8267 26.5688 76.8267 30.4812V35.8526C76.8267 37.8419 78.4182 39.4334 80.4076 39.4334H92.9407V39.4334Z" fill="white"/>
</svg>
