<svg width="66" height="101" viewBox="0 0 66 101" fill="none" xmlns="http://www.w3.org/2000/svg">
<path d="M65.0104 40.3311V92.4437C65.0104 96.7117 61.2972 100.212 56.6877 100.212H22.3301V40.3311H65.0104Z" fill="#21B860"/>
<path d="M40.2561 0.211914V38.6242H0.990234V7.97973C0.990234 3.7117 4.70342 0.211914 9.31289 0.211914H40.2561Z" fill="#21B860"/>
<path d="M65.0103 7.97973V38.6242H41.9629V0.211914H56.6876C61.2544 0.211914 65.0103 3.7117 65.0103 7.97973Z" fill="#21B860"/>
<path d="M20.6232 40.3311H0.990234V58.8116H20.6232V40.3311Z" fill="#21B860"/>
<path d="M20.6232 60.5195H0.990234V79.0001H20.6232V60.5195Z" fill="#21B860"/>
<path d="M20.6232 80.707V100.212H9.31289C4.70342 100.212 0.990234 96.7548 0.990234 92.4441V80.707H20.6232Z" fill="#21B860"/>
</svg>
