<svg width="140" height="101" viewBox="0 0 140 101" fill="none" xmlns="http://www.w3.org/2000/svg">
<path d="M139.856 37.878C139.856 37.9479 139.856 37.9479 139.856 38.0178L126.578 98.8843V98.9542C126.438 99.653 125.81 100.212 125.041 100.212H14.978C14.1394 100.212 13.5804 99.653 13.4406 98.9542V98.8843L0.163169 38.0178C0.163169 37.9479 0.163169 37.9479 0.163169 37.878C-0.0464745 36.8997 0.652337 35.9912 1.70056 35.9912H138.248C139.297 35.9912 139.995 36.8997 139.856 37.878Z" fill="#10C4C1"/>
<path d="M139.855 33.5452H29.5131C20.2888 33.5452 12.8813 26.068 12.8813 16.9135C12.8115 7.6892 20.2888 0.211914 29.5131 0.211914H128.115C129.303 0.211914 130.212 1.12037 130.212 2.30835C130.212 2.8674 130.002 3.35657 129.653 3.77586C129.513 3.84574 129.373 3.9855 129.303 4.05538C125.6 7.13015 123.294 11.7423 123.294 16.8436C123.224 26.068 130.631 33.5452 139.855 33.5452Z" fill="#10C4C1"/>
</svg>
