<svg width="90" height="101" viewBox="0 0 90 101" fill="none" xmlns="http://www.w3.org/2000/svg">
<path d="M37.0093 35.3304C35.9279 38.0595 34.0742 40.5827 31.757 42.5394C29.9032 43.8783 27.689 44.7536 25.4233 45.0626V97.5858C25.4233 99.0276 24.2904 100.16 22.8486 100.16H15.4336C14.3007 100.16 13.3739 99.2336 13.3739 98.1007V94.4962C13.3739 94.3932 13.3739 94.2387 13.3739 94.1357V56.1337V45.1141C11.0567 44.8051 8.89394 43.9297 7.04018 42.5394C4.67148 40.5827 2.86922 38.0595 1.68487 35.2274C0.500524 32.3952 0.0370836 29.3571 0.29455 26.319C0.29455 11.9009 8.84244 0.211914 19.3471 0.211914C29.8517 0.211914 38.3996 11.9009 38.3996 26.319C38.7086 29.3571 38.2451 32.4467 37.0093 35.3304Z" fill="#10C4C1"/>
<path d="M89.3999 37.4417C89.2969 37.9052 89.1424 38.4201 88.9879 38.8835C87.7521 44.4448 82.6028 48.9762 75.7027 50.9845C75.1877 51.139 74.6728 51.2419 74.1579 51.3964V97.6374C74.1579 99.0792 73.025 100.212 71.5832 100.212H64.2196C63.0868 100.212 62.1599 99.2852 62.1599 98.1524V94.5478C62.1599 94.4448 62.1599 94.2904 62.1599 94.1874V56.1853V51.3964C61.4905 51.2419 60.8726 51.0875 60.2547 50.8815C53.715 48.9247 48.7716 44.5993 47.3813 39.347C47.1754 38.7291 46.9694 38.1111 46.8664 37.4932C46.3515 35.0215 46.3515 32.4469 46.9694 30.0267L52.7881 3.66211C52.9426 2.9412 53.406 2.27179 54.024 1.80835C54.6419 1.34491 55.4143 1.13894 56.1867 1.24192C56.9591 1.34491 57.6285 1.70536 58.1434 2.27179C58.4524 2.63224 58.7099 3.04419 58.8128 3.50763C58.8643 3.7651 58.9158 4.02256 58.9158 4.33152V32.1379H62.2629L63.5502 20.8609L65.5585 3.50763C65.61 2.88971 65.9189 2.27179 66.4339 1.85984C66.8973 1.4479 67.5152 1.19043 67.9787 1.19043C68.8025 1.19043 69.4205 1.4479 69.8839 1.85984C70.3474 2.27179 70.5018 2.88971 70.7593 3.50763L72.7675 20.8609L74.0549 32.1379H77.2475V4.33152C77.2475 4.02256 77.2989 3.7651 77.4019 3.45614C77.5564 2.9927 77.8139 2.58075 78.0199 2.27179C78.6893 1.70536 79.4102 1.34491 80.1311 1.24192C80.9035 1.13894 81.4699 1.34491 82.2938 1.80835C82.9117 2.27179 83.3237 2.9412 83.5296 3.66211L89.2969 30.0267C89.9148 32.4469 89.9148 34.9701 89.3999 37.4417Z" fill="#10C4C1"/>
</svg>
