<svg width="111" height="101" viewBox="0 0 111 101" fill="none" xmlns="http://www.w3.org/2000/svg">
<path d="M102.406 75.0146V81.2014C102.406 82.3262 103.362 83.2824 104.487 83.2824C105.612 83.2824 106.568 82.3262 106.568 81.2014V75.0146H102.406ZM89.9766 75.0146V81.2014C89.9766 82.3262 90.8765 83.2824 92.0576 83.2824C93.1824 83.2824 94.1385 82.3262 94.1385 81.2014V75.0146H89.9766Z" fill="white"/>
<path d="M110.674 70.9093C110.674 72.0342 109.774 72.9903 108.593 72.9903H87.8955C86.7706 72.9903 85.8145 72.0342 85.8145 70.9093C85.8145 69.7845 86.7706 68.8283 87.8955 68.8283V66.7473C87.8955 61.9104 91.2138 57.9172 95.7133 56.7361C95.882 56.6799 95.9945 56.6799 96.1632 56.6236V50.2119C96.1632 24.9026 75.6345 4.31765 50.269 4.31765C24.9596 4.31765 4.37469 24.8463 4.37469 50.2119C4.37469 75.5212 24.9034 96.1062 50.269 96.1062H50.3814C51.5063 96.1062 52.4624 97.0061 52.4624 98.1872C52.4624 99.312 51.5625 100.268 50.3814 100.268H50.3252C22.7099 100.212 0.325195 77.8272 0.325195 50.2119C0.325195 22.5966 22.7099 0.211914 50.3252 0.211914C77.9405 0.211914 100.325 22.5966 100.325 50.2119V56.6236C105.05 57.636 108.593 61.7417 108.593 66.7473V68.8283C109.718 68.8283 110.674 69.7282 110.674 70.9093Z" fill="white"/>
</svg>
