<svg width="107" height="101" viewBox="0 0 107 101" fill="none" xmlns="http://www.w3.org/2000/svg">
<path d="M2.06601 44.9814H3.02214C3.3596 44.9814 3.58457 45.2627 3.58457 45.5439L3.07839 50.1558L3.58457 54.7677C3.64082 55.0489 3.3596 55.3302 3.02214 55.3302H2.06601C1.72856 55.3302 1.50358 55.0489 1.50358 54.7677L1.89729 51.1682H0.997398C0.716183 51.1682 0.491211 50.9432 0.491211 50.662V49.6496C0.491211 49.3684 0.716183 49.1434 0.997398 49.1434H1.89729L1.50358 45.5439C1.50358 45.2064 1.72856 44.9814 2.06601 44.9814Z" fill="white"/>
<path d="M106.51 50.2686C106.51 77.8838 84.125 100.269 56.5097 100.269H49.5918C48.4669 100.269 47.5108 99.3687 47.5108 98.1876C47.5108 97.0627 48.4107 96.1066 49.5918 96.1066H56.5097C81.819 96.1066 102.404 75.5779 102.404 50.2123C102.404 24.8467 81.8752 4.31805 56.5097 4.31805C34.4062 4.31805 15.9585 19.9536 11.6278 40.7635C11.2903 42.4508 11.0091 44.1943 10.8404 45.9378C10.8404 46.0503 10.8404 46.1628 10.8404 46.2753C11.9652 47.0627 12.9776 48.5813 12.9776 50.0998C12.9776 51.7309 12.134 53.1932 10.8966 53.8681V56.849C10.8966 57.1302 10.6716 57.3552 10.3904 57.3552H7.24082C6.95961 57.3552 6.73464 57.1302 6.73464 56.849V53.0245C6.28469 52.5183 6.00348 51.8434 5.83475 51.1684H4.25995L4.14746 50.1561L4.25995 49.1437H5.83475C6.00348 48.4688 6.22845 47.9063 6.62215 47.4002C6.62215 47.3439 6.67839 47.2877 6.73464 47.2877V45.9378C6.73464 45.7129 6.79088 45.4879 6.79088 45.2629V45.2067C9.32181 19.9536 30.6379 0.268555 56.5097 0.268555C84.125 0.268555 106.51 22.6533 106.51 50.2686Z" fill="white"/>
<path d="M3.52878 65.5663C2.96635 65.0038 2.01022 65.0038 1.39155 65.5663C0.829119 66.1287 0.829119 67.0848 1.39155 67.7035C1.95398 68.2659 2.91011 68.2659 3.52878 67.7035C4.09121 67.0848 4.09121 66.1287 3.52878 65.5663ZM12.0215 65.5663C11.459 65.0038 10.5029 65.0038 9.88424 65.5663C9.32181 66.1287 9.32181 67.0848 9.88424 67.7035C10.4467 68.2659 11.4028 68.2659 12.0215 67.7035C12.5839 67.0848 12.5839 66.1287 12.0215 65.5663ZM16.2397 65.5663C15.6773 65.0038 14.7211 65.0038 14.1025 65.5663C13.54 66.1287 13.54 67.0848 14.1025 67.7035C14.6649 68.2659 15.621 68.2659 16.2397 67.7035C16.8021 67.0848 16.8021 66.1287 16.2397 65.5663ZM5.66601 63.429C6.22844 62.8666 6.22844 61.9105 5.66601 61.2918C5.10358 60.6731 4.14745 60.7294 3.52878 61.2918C2.91011 61.8542 2.96635 62.8104 3.52878 63.429C4.09121 63.9915 5.04734 63.9915 5.66601 63.429ZM9.88424 61.2918C9.32181 60.7294 8.36568 60.7294 7.747 61.2918C7.12833 61.8542 7.18457 62.8104 7.747 63.429C8.30943 63.9915 9.26556 63.9915 9.88424 63.429C10.4467 62.8666 10.4467 61.9105 9.88424 61.2918ZM12.0215 63.429C12.5839 63.9915 13.54 63.9915 14.1587 63.429C14.7211 62.8666 14.7211 61.9105 14.1587 61.2918C13.5963 60.7294 12.6401 60.7294 12.0215 61.2918C11.4028 61.9105 11.4028 62.8666 12.0215 63.429ZM7.747 65.5663C7.18457 65.0038 6.22844 65.0038 5.60977 65.5663C5.04734 66.1287 5.04734 67.0848 5.60977 67.7035C6.1722 68.2659 7.12833 68.2659 7.747 67.7035C8.36568 67.0848 8.36568 66.1287 7.747 65.5663Z" fill="white"/>
</svg>
