<svg width="53" height="101" viewBox="0 0 53 101" fill="none" xmlns="http://www.w3.org/2000/svg">
<path d="M35.8353 1.85328V7.59804C35.8353 8.04942 35.4659 8.41873 35.0146 8.41873H18.601C18.1496 8.41873 17.7803 8.04942 17.7803 7.59804V1.85328C17.7803 0.950527 18.5189 0.211914 19.4216 0.211914H34.1939C35.0966 0.211914 35.8353 0.950527 35.8353 1.85328Z" fill="#FF8989"/>
<path d="M52.9471 37.635V47.6883H0.546587C0.546587 43.9132 0.0952121 31.0695 2.63932 27.992L18.4374 13.2197H35.1793L50.9774 27.992H51.0185C52.2495 29.5513 52.7829 33.5316 52.9471 37.635Z" fill="#FF8989"/>
<path d="M52.9466 90.8976C52.9466 90.9386 52.9466 91.0207 52.9466 91.1028L48.2277 99.761C47.5712 100.007 46.9146 100.171 46.176 100.212H44.986C44.945 100.212 44.9039 100.212 44.8629 100.212H42.7291L41.8674 97.3399H37.3537L35.9175 100.253H17.0828L15.6467 97.3399H11.1329L10.2712 100.212H8.13742C8.09639 100.212 8.05535 100.212 8.01432 100.212H6.82433C6.08572 100.171 5.42917 100.007 4.77263 99.761L0.0537109 91.0617C0.0537109 90.9797 0.0537109 90.9386 0.0537109 90.8566C0.0537109 90.8566 4.40332 68.1237 4.40332 67.7954L0.505086 49.2891H52.5363L48.638 67.7954C48.597 68.1647 52.9466 90.8976 52.9466 90.8976Z" fill="#FF8989"/>
</svg>
