<svg width="102" height="101" viewBox="0 0 102 101" fill="none" xmlns="http://www.w3.org/2000/svg">
<path d="M100.785 46.6628C100.785 46.2739 100.729 45.8849 100.674 45.496C100.618 44.7181 100.507 43.9402 100.396 43.1623C100.285 42.3844 100.174 41.6066 100.007 40.8842C99.9513 40.4953 99.8401 40.0508 99.729 39.6618C99.6734 39.384 99.6179 39.0506 99.5068 38.7728C99.3956 38.2728 99.2845 37.8283 99.1734 37.3837C99.1178 37.1059 99.0067 36.8837 98.9511 36.6059C98.8956 36.4392 98.84 36.2725 98.7844 36.1058C98.6733 35.7724 98.5622 35.439 98.4511 35.1057C98.3399 34.7167 98.2288 34.3278 98.0621 33.9944C97.562 32.4942 96.9508 31.0495 96.3396 29.6049C96.173 29.2715 96.0618 28.9381 95.8951 28.6603C95.7284 28.2714 95.5062 27.938 95.3395 27.549C95.0061 26.9379 94.6727 26.2711 94.3394 25.6599C94.1171 25.271 93.8949 24.882 93.6726 24.4931C93.4504 24.1597 93.2837 23.8263 93.0614 23.4929C92.8392 23.1595 92.6169 22.8262 92.4502 22.5484C92.2835 22.2705 92.0057 21.9372 91.7835 21.6038C91.5612 21.2704 91.3389 20.9926 91.1167 20.6592C90.8944 20.3814 90.6722 20.048 90.4499 19.7702C90.2277 19.4924 90.0054 19.159 89.7276 18.8812C89.7276 18.8812 89.7276 18.8256 89.6721 18.8256C89.4498 18.5478 89.2275 18.27 88.9497 17.9922C88.7275 17.7143 88.4497 17.4365 88.2274 17.1587C87.9496 16.8809 87.7273 16.6031 87.4495 16.3253C87.2828 16.1586 87.1717 15.9919 87.005 15.8252C87.005 15.7696 86.9495 15.7696 86.8939 15.7141C86.7828 15.6029 86.6716 15.4363 86.5049 15.3251C94.7839 24.0486 94.6727 37.7727 86.116 46.3294C77.4481 54.9973 63.3906 54.9973 54.6672 46.3294C54.1116 45.7738 53.5559 45.2182 53.1114 44.607C46.166 35.828 46.7216 22.9929 54.8339 14.8806C55.2228 14.4917 55.6118 14.1583 56.0007 13.7694C56.5008 13.3248 57.0008 12.9359 57.5565 12.547C60.5569 9.54654 60.3346 5.21261 56.8342 2.43445C55.0561 0.9898 52.7225 0.267477 50.3333 0.211914C49.8887 0.211914 49.4998 0.211914 49.0553 0.267477H48.9997C48.6108 0.267477 48.2218 0.323041 47.8885 0.323041C47.3884 0.378604 46.8883 0.378604 46.3883 0.434167C45.9993 0.48973 45.6659 0.48973 45.277 0.545294C44.9436 0.600857 44.5547 0.600857 44.2213 0.65642C43.999 0.65642 43.8324 0.711984 43.6101 0.767547C43.3878 0.82311 43.1656 0.82311 42.9433 0.878673C42.8322 0.878673 42.7211 0.934237 42.61 0.934237C42.3321 0.9898 42.1099 1.04536 41.8876 1.04536C41.6654 1.10093 41.4431 1.15649 41.2209 1.15649C41.1097 1.15649 40.9986 1.21205 40.8875 1.21205C40.6097 1.26762 40.3319 1.32318 40.054 1.37874C39.7207 1.43431 39.3873 1.54543 39.0539 1.601C38.8317 1.65656 38.6094 1.71212 38.3871 1.76769C38.1093 1.82325 37.8871 1.87881 37.6093 1.98994C36.9425 2.15663 36.2757 2.37888 35.609 2.60114C35.5534 2.60114 35.5534 2.60114 35.4979 2.6567C34.9422 2.82339 34.331 3.04564 33.7754 3.26789C33.2198 3.43458 32.7197 3.65684 32.1641 3.87909C31.4417 4.15691 30.6639 4.49029 29.9415 4.82367C29.5526 4.99036 29.2192 5.15705 28.8303 5.32374C27.7746 5.8238 26.7189 6.435 25.6632 6.99063C25.6632 6.99063 25.6076 7.0462 25.552 7.0462C25.2742 7.21289 24.9964 7.37958 24.663 7.54627C24.6075 7.60183 24.4963 7.65739 24.4408 7.71296C24.163 7.87965 23.8296 8.1019 23.5518 8.26859C23.2184 8.49084 22.885 8.7131 22.5516 8.93535L22.4961 8.99091C22.1627 9.21316 21.8849 9.43542 21.607 9.60211C21.607 9.60211 21.607 9.60211 21.5515 9.65767C21.2737 9.87992 20.9958 10.1022 20.718 10.2689C20.2735 10.6022 19.8846 10.9356 19.4401 11.269C19.2178 11.4357 18.9956 11.6024 18.8289 11.7691C18.2732 12.2136 17.7176 12.7137 17.162 13.2137C16.9397 13.436 16.6619 13.6582 16.4397 13.8805C16.3841 13.936 16.3285 13.936 16.3285 13.9916C16.1063 14.2139 15.884 14.4361 15.6618 14.6028C14.6616 15.5474 13.7171 16.5475 12.828 17.6032C12.328 18.2144 11.8279 18.8256 11.3278 19.4368C11.2723 19.4924 11.2723 19.5479 11.2167 19.5479C10.7722 20.1591 10.3277 20.7148 9.88319 21.326C9.66093 21.6038 9.49424 21.8816 9.27199 22.215C9.21643 22.2705 9.21643 22.3261 9.16086 22.3817C8.93861 22.715 8.71636 22.9929 8.54967 23.3262C8.32742 23.6596 8.10516 23.993 7.93847 24.3264C7.49397 24.9931 7.10502 25.7155 6.77164 26.4378C6.3827 27.1601 6.04932 27.8824 5.66038 28.6047C5.49369 28.9381 5.38256 29.2159 5.21587 29.5493C5.16031 29.6605 5.16031 29.716 5.10475 29.8271C5.04918 30.1605 4.93806 30.4939 4.77137 30.7717C4.77137 30.8273 4.7158 30.8828 4.7158 30.9384C4.60468 31.2162 4.49355 31.494 4.38242 31.8274C4.32686 31.9385 4.2713 32.0497 4.2713 32.1608C4.16017 32.4386 4.04904 32.7164 3.93792 32.9942C3.88235 33.1054 3.82679 33.2165 3.82679 33.3276C3.71566 33.5499 3.6601 33.8277 3.54897 34.05C3.49341 34.2166 3.43785 34.3278 3.38228 34.4945C3.32672 34.7167 3.27116 34.8834 3.21559 35.1057C3.10447 35.3835 3.0489 35.6057 2.99334 35.8835C2.93778 35.9947 2.93778 36.1058 2.88221 36.1614C2.82665 36.4392 2.71552 36.6614 2.65996 36.9392C2.54883 37.2726 2.49327 37.606 2.38215 37.8838C2.32658 38.1061 2.27102 38.3839 2.21546 38.6061C2.15989 38.884 2.10433 39.1618 1.9932 39.4396C1.93764 39.8285 1.82651 40.1619 1.77095 40.5509C1.71539 40.8287 1.65982 41.1065 1.60426 41.4399C1.5487 41.7177 1.49313 41.9955 1.43757 42.3289C1.38201 42.5511 1.38201 42.7734 1.32644 42.9401C1.27088 43.2735 1.21532 43.6068 1.15975 43.9958C1.21532 44.3292 1.15975 44.7181 1.15975 45.107C1.10419 45.5515 1.10419 45.9405 1.04863 46.385C0.993063 47.2184 0.9375 48.1075 0.9375 48.9409C0.9375 49.8299 0.9375 50.6634 0.9375 51.5524C0.9375 52.3858 0.993063 53.2748 1.04863 54.1083C1.04863 54.4972 1.10419 54.8862 1.15975 55.2751C1.15975 55.4418 1.15975 55.5529 1.21532 55.6641C1.27088 55.9419 1.27088 56.2197 1.32644 56.4419C1.32644 56.6642 1.38201 56.8865 1.38201 57.1087C1.43757 57.4421 1.49313 57.7755 1.5487 58.1088C1.60426 58.3867 1.65982 58.6645 1.71539 58.9423C1.77095 59.2757 1.82651 59.6091 1.88208 59.9424C1.93764 60.2758 1.9932 60.6092 2.10433 60.9426C2.15989 61.276 2.27102 61.6649 2.32658 61.9983C2.32658 62.1094 2.38215 62.165 2.38215 62.2761C2.49327 62.6095 2.54883 62.9984 2.65996 63.3318C2.77109 63.7207 2.88221 64.0541 2.99334 64.4431C2.99334 64.4986 2.99334 64.5542 3.0489 64.6098C3.10447 64.8876 3.21559 65.1098 3.27116 65.3876C3.32672 65.5543 3.38228 65.7766 3.43785 65.9433C3.49341 66.2211 3.60454 66.4433 3.71566 66.6656C3.71566 66.7212 3.77123 66.8323 3.77123 66.8878C3.88235 67.1657 3.93792 67.4435 4.04904 67.6657C4.10461 67.8324 4.16017 68.0547 4.2713 68.2214C4.32686 68.3881 4.43799 68.6103 4.49355 68.777C4.60468 68.9993 4.66024 69.1659 4.77137 69.3882C4.82693 69.5549 4.93806 69.7216 4.99362 69.8883C5.10475 70.1105 5.16031 70.3328 5.27144 70.555C5.327 70.6661 5.38256 70.7773 5.43813 70.8884C5.60481 71.2218 5.77151 71.5552 5.93819 71.8885C6.10488 72.2219 6.27157 72.6109 6.49383 72.9442C6.66052 73.2776 6.88277 73.6666 7.04946 73.9999C7.04946 73.9999 7.04946 73.9999 7.10502 74.0555C7.27171 74.3889 7.49397 74.7778 7.66066 75.1112C7.82735 75.4446 8.0496 75.7224 8.21629 76.0558C8.27185 76.1114 8.27185 76.1669 8.32742 76.2225C8.49411 76.5003 8.6608 76.7781 8.82749 77.0559C8.88305 77.1115 8.88305 77.1671 8.93861 77.2226C9.1053 77.5004 9.27199 77.7227 9.43868 77.9449C9.49424 78.0561 9.60537 78.1672 9.66093 78.2783C9.82762 78.5561 10.0499 78.834 10.2166 79.1118C10.4388 79.4451 10.6611 79.7785 10.9389 80.0563C11.1611 80.3897 11.3834 80.6675 11.6612 81.0009L11.7168 81.0565C11.939 81.3343 12.1613 81.6677 12.4391 81.9455C12.7169 82.2789 12.9392 82.5567 13.217 82.8901C13.4392 83.1679 13.6615 83.3901 13.8837 83.668C14.1616 84.0013 14.4394 84.2791 14.7728 84.6125C15.7173 85.6127 16.7175 86.5572 17.7176 87.4463C17.9399 87.6685 18.2177 87.8908 18.4955 88.113C19.0511 88.6131 19.6623 89.0576 20.218 89.5577C20.4958 89.7799 20.718 89.9466 20.9958 90.1689C21.0514 90.2244 21.1625 90.28 21.2181 90.3355C21.3848 90.5022 21.607 90.6134 21.7737 90.7801C21.9404 90.8912 22.1071 91.0023 22.2738 91.1134C22.5516 91.2801 22.8294 91.5024 23.1072 91.6691C23.4406 91.8913 23.774 92.1136 24.1074 92.3358C24.4408 92.5581 24.7186 92.7248 25.052 92.947C25.3298 93.1137 25.6076 93.2804 25.8854 93.4471C26.0521 93.5582 26.2744 93.6693 26.441 93.7805C26.7744 93.9472 27.0522 94.1138 27.3856 94.3361C27.6079 94.4472 27.8301 94.5584 28.0524 94.6695C28.2746 94.7806 28.4969 94.8917 28.7191 95.0029C28.7747 95.0584 28.8858 95.0584 28.9414 95.114C29.2748 95.2807 29.6082 95.4474 29.9415 95.6141C30.2749 95.7807 30.6639 95.9474 30.9972 96.1141H31.0528C31.4417 96.2808 31.7751 96.4475 32.1641 96.5586C32.553 96.7253 32.8864 96.8365 33.2753 97.0031C33.6087 97.1143 33.9421 97.281 34.331 97.3921C34.3866 97.3921 34.4422 97.4476 34.5533 97.4476C34.8867 97.5588 35.2756 97.6699 35.609 97.781C37.1648 98.2811 38.7205 98.67 40.2763 99.059C41.0542 99.2257 41.8321 99.3924 42.6655 99.5035C44.6658 99.8369 46.6105 100.059 48.6108 100.17C50.2221 100.226 51.8335 100.226 53.3892 100.17C57.7787 99.948 62.1682 99.1701 66.391 97.781C66.78 97.6699 67.1689 97.5032 67.5579 97.3921C67.9468 97.281 68.3358 97.1143 68.7247 96.9476C69.1136 96.7809 69.5026 96.6698 69.836 96.5031C70.2249 96.3364 70.5583 96.1697 70.9472 96.003C71.3362 95.8363 71.6696 95.6696 72.0585 95.5029C72.3919 95.3362 72.7252 95.1696 73.0586 95.0029C73.1142 94.9473 73.2253 94.9473 73.2809 94.8917C73.5031 94.7806 73.7254 94.6695 73.9476 94.5584C74.1699 94.4472 74.3921 94.3361 74.6144 94.225C74.8922 94.0583 75.2256 93.8916 75.5034 93.7249C75.7812 93.5582 76.059 93.4471 76.2813 93.2804C76.5591 93.1137 76.7814 93.0026 77.0036 92.8359C77.2814 92.6692 77.6148 92.447 77.8926 92.2803C78.1705 92.1136 78.4483 91.8913 78.7816 91.7246C79.0595 91.5579 79.3373 91.3912 79.5595 91.169C79.7818 91.0023 80.004 90.8356 80.2819 90.6689C80.4485 90.5578 80.6152 90.4467 80.7264 90.3355C81.3931 89.891 82.0043 89.391 82.6155 88.8909C82.8933 88.6687 83.1156 88.4464 83.3934 88.2241C83.449 88.1686 83.449 88.1686 83.5045 88.113C83.8379 87.8352 84.1157 87.5574 84.4491 87.2796C84.7825 87.0018 85.0603 86.7239 85.3937 86.3906L85.4492 86.335C85.7271 86.0572 86.0049 85.7794 86.3383 85.5015C86.6161 85.2237 86.9494 84.8903 87.2273 84.557C87.5051 84.2236 87.8385 83.9458 88.1163 83.6124C88.6163 83.0012 89.172 82.4456 89.6721 81.8344C89.8943 81.5565 90.1166 81.2787 90.3388 81.0009C90.5611 80.7231 90.7833 80.4453 91.0056 80.1675C91.0611 80.1119 91.1167 80.0563 91.1723 80.0008C91.3945 79.723 91.6168 79.3896 91.839 79.1118C92.0613 78.834 92.228 78.5561 92.4502 78.2228C92.5058 78.1672 92.5613 78.1116 92.5613 78.0561C92.7836 77.7227 92.9503 77.4449 93.1725 77.1115C93.3948 76.7781 93.617 76.4447 93.7837 76.1114C94.006 75.778 94.1727 75.389 94.3949 75.0556C94.7839 74.3333 95.1728 73.6666 95.5618 72.9442C95.7284 72.6109 95.9507 72.2219 96.1174 71.8885C96.2841 71.6107 96.3952 71.2773 96.5619 70.9995C96.6175 70.8328 96.7286 70.7217 96.7842 70.555C96.8953 70.2772 97.062 69.9994 97.1731 69.666C97.2842 69.3882 97.3953 69.1104 97.5065 68.8881C97.6176 68.6103 97.7287 68.3325 97.8399 68.0547C97.8954 67.9435 97.8954 67.888 97.951 67.7769C98.0621 67.5546 98.1177 67.3324 98.1732 67.1101C98.2288 66.8878 98.3399 66.6656 98.3955 66.4433C98.5066 66.11 98.6177 65.7766 98.7289 65.4432C98.84 65.1098 98.9511 64.832 99.0067 64.4986C99.0067 64.4431 99.0622 64.3875 99.0622 64.3875C99.1734 64.1097 99.2289 63.8319 99.3401 63.554C99.3956 63.4429 99.3956 63.2762 99.4512 63.1651C99.5067 62.8873 99.6179 62.5539 99.6734 62.2761C99.7846 61.9427 99.8401 61.6649 99.8957 61.3315C99.9513 61.1648 100.007 60.9426 100.007 60.7203C100.062 60.3869 100.118 60.1091 100.174 59.7757C100.229 59.4424 100.285 59.109 100.34 58.7756C100.396 58.6089 100.396 58.4978 100.396 58.3311C100.451 58.0533 100.507 57.7199 100.562 57.3865C100.618 56.9976 100.674 56.6086 100.729 56.2197V56.1641C100.785 55.7752 100.84 55.3862 100.84 54.9973C100.896 54.6084 100.896 54.2194 100.951 53.886C100.951 53.5527 101.007 53.1637 101.007 52.7748C101.007 52.497 101.007 52.2191 101.063 51.9413C101.063 51.7746 101.063 51.6079 101.063 51.3857C101.063 50.9967 101.063 50.6078 101.063 50.1633C100.896 48.9965 100.84 47.8296 100.785 46.6628ZM41.2764 17.5477C39.4429 17.6588 37.387 17.4365 36.1091 16.103C33.3309 13.2137 35.6645 8.43528 38.0538 6.15718C39.9985 4.26803 42.61 3.1012 45.3326 2.6567C47.6662 2.26776 50.111 2.32332 52.3335 3.15677C54.1671 3.87909 56.0007 5.26817 56.1674 7.26845C56.2785 8.32415 55.8896 9.43542 55.3339 10.3244C53.7226 12.8803 50.8889 14.8806 47.7773 16.103C45.6104 16.9365 43.3323 17.4365 41.2764 17.5477Z" fill="white"/>
<path opacity="0.8" d="M86.5858 15.4404C84.8634 13.8291 82.6964 12.7178 80.4183 12.44C75.9732 11.9399 72.7506 14.8292 72.7506 19.052C72.8617 19.7188 72.9172 20.33 72.9728 20.9967C73.0284 21.5524 73.0284 22.0524 73.0284 22.6081C73.0284 34.1097 64.3049 43.5554 53.1367 44.7222C53.6368 45.3334 54.1369 45.8891 54.6925 46.4447C63.3604 55.1126 77.4734 55.1126 86.1413 46.4447C94.6981 37.888 94.8647 24.1638 86.5858 15.4404ZM86.0857 35.2765C83.9188 36.61 80.9184 35.6654 79.1959 33.7763C77.529 32.0538 76.3066 29.609 75.5843 27.0531C74.6397 23.7193 73.3617 19.7188 75.751 16.6628C77.4179 14.5514 80.196 13.9402 82.5853 15.2181C85.419 16.7739 87.586 19.3854 88.6972 22.4414C89.8085 25.4973 89.7529 28.8867 88.6417 31.8871C88.0305 33.2762 87.3081 34.5542 86.0857 35.2765Z" fill="white"/>
</svg>
