<svg width="100" height="62" viewBox="0 0 100 62" fill="none" xmlns="http://www.w3.org/2000/svg">
<path d="M100 13.0348V18.6743C100 24.8173 95.4179 29.9029 89.5267 30.6582C89.0232 30.7085 88.4693 30.7589 87.9154 30.7589H12.0846C11.5307 30.7589 11.0272 30.7085 10.4733 30.6582C8.50957 30.4064 6.64653 29.6511 5.0856 28.5433C2.0141 26.3782 0 22.7528 0 18.6743V13.0348C0 6.33791 5.38771 0.950195 12.0846 0.950195H87.9154C94.6123 0.950195 100 6.38826 100 13.0348Z" fill="white"/>
<path d="M89.5266 32.7734H10.4732L6.29395 61.4743H93.7562L89.5266 32.7734ZM28.2476 56.1873C28.1973 56.3887 28.0462 56.5398 27.7944 56.5398H27.6937C27.4923 56.5398 27.3413 56.3384 27.3413 56.0866L30.161 35.9456C30.2114 35.7442 30.4128 35.5932 30.6142 35.5932H30.7149C30.9163 35.6435 31.0674 35.8449 31.0674 36.0463L28.2476 56.1873ZM50.4531 56.288C50.4531 56.4894 50.302 56.6909 50.0502 56.6909H49.9495C49.7481 56.6909 49.5467 56.4894 49.5467 56.288V35.9456C49.5467 35.7442 49.6978 35.5428 49.9495 35.5428H50.0502C50.2516 35.5428 50.4531 35.6939 50.4531 35.9456V56.288ZM72.306 56.4895H72.2053C72.0039 56.4895 71.8025 56.3887 71.7521 56.137L68.9324 35.996C68.8821 35.7946 69.0331 35.5932 69.2849 35.5428H69.3856C69.587 35.4925 69.7884 35.6435 69.8387 35.8953L72.6585 56.0363C72.6585 56.288 72.5074 56.4895 72.306 56.4895Z" fill="white"/>
</svg>
