<svg width="53" height="101" viewBox="0 0 53 101" fill="none" xmlns="http://www.w3.org/2000/svg">
<path d="M35.5071 1.85328V7.59804C35.5071 8.04942 35.1378 8.41873 34.6865 8.41873H18.2728C17.8215 8.41873 17.4521 8.04942 17.4521 7.59804V1.85328C17.4521 0.950527 18.1908 0.211914 19.0935 0.211914H33.8658C34.8096 0.211914 35.5071 0.950527 35.5071 1.85328Z" fill="#FF8989"/>
<path d="M52.7824 93.4007C52.7824 97.1758 49.7459 100.212 45.9708 100.212H7.02943C3.25429 100.212 0.217773 97.1758 0.217773 93.4007L0.340876 65.7437L5.75737 60.2451C5.75737 60.2451 3.29533 50.479 2.92602 49.3301H50.1152C49.7049 50.438 47.2838 60.2451 47.2838 60.2451L52.7003 65.7437L52.7824 93.4007Z" fill="#FF8989"/>
<path d="M52.6593 36.5681C52.4951 41.1229 52.0438 45.9239 50.6076 47.6883H2.26944C1.07945 46.2521 0.546009 42.8053 0.299805 39.1122C0.463941 34.5574 0.915316 29.7565 2.35151 27.992H2.31047L18.1086 13.2197H34.8505L50.6486 27.992H50.7717C51.9207 29.3871 52.4541 32.875 52.6593 36.5681Z" fill="#FF8989"/>
</svg>
