<svg width="55" height="101" viewBox="0 0 55 101" fill="none" xmlns="http://www.w3.org/2000/svg">
<path d="M54.4917 4.68819V95.7356C54.4917 98.1976 52.4774 100.212 50.0154 100.212C48.7621 100.212 47.643 99.7195 46.8373 98.9138C46.0315 98.1081 45.5391 96.989 45.5391 95.7356V70.9371H4.08883C2.11927 70.9371 0.507812 69.3256 0.507812 67.3561V65.5655C0.507812 63.596 2.11927 61.9845 4.08883 61.9845H40.8838C43.4353 61.9845 45.5391 59.8807 45.5391 57.3292V55.0015C45.5391 52.4501 43.4353 50.3462 40.8838 50.3462H4.08883C2.11927 50.3462 0.507812 48.7347 0.507812 46.7652V44.9747C0.507812 43.0051 2.11927 41.3937 4.08883 41.3937H40.8838C43.4353 41.3937 45.5391 39.2898 45.5391 36.7383V34.4107C45.5391 31.8592 43.4353 29.7553 40.8838 29.7553H4.08883C2.11927 29.7553 0.507812 28.1439 0.507812 26.1743V24.3838C0.507812 22.4142 2.11927 20.8028 4.08883 20.8028H40.8838C43.4353 20.8028 45.5391 18.6989 45.5391 16.1475V13.8198C45.5391 11.2683 43.4353 9.16447 40.8838 9.16447H4.08883C2.11927 9.16447 0.507812 7.55301 0.507812 5.58344V3.79293C0.507812 1.82337 2.11927 0.211914 4.08883 0.211914H50.0154C51.2688 0.211914 52.3879 0.704304 53.1936 1.51003C53.9993 2.31576 54.4917 3.43483 54.4917 4.68819Z" fill="#FF8989"/>
</svg>
