<svg width="56" height="101" viewBox="0 0 56 101" fill="none" xmlns="http://www.w3.org/2000/svg">
<path d="M36.5184 8.7298H19.4826C19.0142 8.7298 18.6309 8.3465 18.6309 7.87801V1.91549C18.6309 0.978524 19.3975 0.211914 20.3344 0.211914H35.6666C36.6036 0.211914 37.3702 0.978524 37.3702 1.91549V7.87801C37.3702 8.3465 36.9869 8.7298 36.5184 8.7298Z" fill="#FEB700"/>
<path d="M37.3702 24.7864H18.6309V17.9721C18.6309 17.0352 19.3975 16.2686 20.3344 16.2686H35.6666C36.6036 16.2686 37.3702 17.0352 37.3702 17.9721V24.7864Z" fill="#FEB700"/>
<path d="M55.2576 75.5098V93.6103C55.2576 97.273 52.106 100.212 48.1878 100.212H7.81301C3.89478 100.212 0.743164 97.2304 0.743164 93.6103V75.5098H55.2576Z" fill="#FEB700"/>
<path d="M29.704 8.72949H26.2969V16.2678H29.704V8.72949Z" fill="#FEB700"/>
<path d="M18.6303 2.76758V6.17473H12.9659C12.9233 6.17473 12.9233 6.17473 12.8807 6.17473C12.6678 6.17473 12.4548 6.25991 12.2845 6.43027L8.74954 9.96519C8.40882 10.3059 7.85516 10.3059 7.47186 9.96519L6.32194 8.81528C5.98123 8.47456 5.98123 7.9209 6.32194 7.5376L10.879 3.02311C10.9642 2.93794 11.0068 2.89535 11.092 2.85276C11.2197 2.81017 11.3475 2.76758 11.4753 2.76758H18.6303Z" fill="#FEB700"/>
<path d="M55.2576 42.4182V73.8066H0.743164V42.4182L19.3547 26.1064H36.6461L55.2576 42.4182Z" fill="#FEB700"/>
</svg>
