<svg width="100" height="101" viewBox="0 0 100 101" fill="none" xmlns="http://www.w3.org/2000/svg">
<path d="M99.6495 43.8556C98.648 36.1478 95.8938 28.9406 91.8378 22.7845C91.5373 22.334 91.2369 21.8836 90.8863 21.3831C90.4857 20.7825 90.0351 20.2319 89.5844 19.6313C88.7331 18.4802 87.7817 17.4291 86.8302 16.3781C86.2794 15.7775 85.7286 15.1769 85.1277 14.6263C83.6755 13.2249 82.1733 11.8736 80.5709 10.6223C73.7106 5.31702 65.3981 1.76347 56.3846 0.612314C54.2814 0.362064 52.1783 0.211914 50.025 0.211914C47.8718 0.211914 45.7687 0.362064 43.6655 0.612314C34.6019 1.76347 26.3395 5.31702 19.4792 10.6223C16.1242 13.2249 13.0696 16.278 10.4657 19.6313C5.10766 26.4882 1.55233 34.7965 0.400601 43.8556C0.150225 45.9076 0 48.0598 0 50.2119C0 52.3641 0.150225 54.4662 0.400601 56.5683C1.55233 65.6273 5.10766 73.8856 10.4156 80.7925C13.0195 84.1458 16.0741 87.1989 19.4291 89.8015C26.2894 95.1068 34.6019 98.6604 43.6154 99.8115C45.7186 100.062 47.8217 100.212 49.975 100.212C52.1282 100.212 54.2814 100.062 56.3345 99.8115C63.0446 98.9607 69.304 96.8085 74.9124 93.5553C75.5133 93.2049 76.0641 92.8546 76.6149 92.5042C77.967 91.6534 79.2689 90.7525 80.5208 89.7515C82.5739 88.1999 84.4767 86.4482 86.2293 84.5963C86.7802 84.0458 87.2809 83.4952 87.7817 82.8946C88.3826 82.1939 88.9835 81.4932 89.5343 80.7424C94.8423 73.8856 98.3976 65.5773 99.5994 56.5182C99.8498 54.4161 100 52.314 100 50.1619C100 48.0097 99.8999 45.9076 99.6495 43.8556ZM96.3445 56.1679C95.2929 64.6263 91.9379 72.334 86.9805 78.7404C84.5268 81.8936 81.7226 84.6964 78.5679 87.1488C72.1582 92.1038 64.3966 95.4572 55.984 96.5082C54.031 96.7585 52.0781 96.8586 50.025 96.8586C47.972 96.8586 46.019 96.7084 44.0661 96.5082C35.6034 95.4071 27.8918 92.1038 21.4822 87.1488C18.3275 84.6964 15.5233 81.8936 13.0696 78.7404C8.11217 72.334 4.75714 64.5763 3.70556 56.1679C3.45518 54.2159 3.30496 52.2139 3.30496 50.2119C3.30496 48.2099 3.45518 46.2079 3.70556 44.256C4.75714 35.7975 8.11217 28.0898 13.0696 21.6834C15.5233 18.5302 18.3275 15.7274 21.4822 13.275C27.8918 8.32002 35.6034 4.96667 44.0661 3.91562C46.019 3.66537 47.972 3.56527 50.025 3.56527C52.0781 3.56527 54.031 3.71542 55.984 3.91562C64.4467 4.96667 72.1582 8.32002 78.5679 13.275C81.7226 15.7274 84.5268 18.5302 86.9805 21.6834C91.9379 28.0898 95.2929 35.8476 96.3445 44.256C96.5949 46.2079 96.7451 48.2099 96.7451 50.2119C96.7451 52.2139 96.5448 54.2159 96.3445 56.1679Z" fill="#FEB700"/>
<path d="M96.3442 44.2561C95.2927 35.7977 91.9376 28.09 86.9802 21.6835C84.5265 18.5304 81.7223 15.7276 78.5676 13.2751C72.158 8.32019 64.3963 4.96683 55.9837 3.91578C54.0308 3.66553 52.0778 3.56543 50.0248 3.56543C48.0218 3.56543 46.0188 3.71558 44.0658 3.91578C35.6031 4.96683 27.8916 8.32019 21.482 13.2751C18.3272 15.7276 15.4729 18.5304 13.0693 21.6835C8.1119 28.09 4.75687 35.7977 3.70529 44.2561C3.45491 46.2081 3.30469 48.2101 3.30469 50.2121C3.30469 52.2141 3.45491 54.2161 3.70529 56.168C4.75687 64.6265 8.1119 72.3342 13.0693 78.7406C15.523 81.8938 18.3272 84.6966 21.482 87.149C27.8916 92.104 35.6532 95.4573 44.0658 96.5084C46.0188 96.7586 47.9717 96.8587 50.0248 96.8587C52.0278 96.8587 54.0308 96.7086 55.9837 96.5084C64.4464 95.4573 72.158 92.104 78.5676 87.149C81.7223 84.6966 84.5265 81.8938 86.9802 78.7406C91.9376 72.3342 95.2927 64.5764 96.3442 56.168C96.5946 54.2161 96.7448 52.2141 96.7448 50.2121C96.7448 48.2101 96.5946 46.2081 96.3442 44.2561ZM90.4855 55.3672C89.534 62.7746 86.6297 69.5314 82.3232 75.087C80.2201 77.8397 77.7163 80.2922 74.9622 82.4443C69.3538 86.7987 62.5936 89.7016 55.2326 90.6025C53.53 90.8027 51.7774 90.9528 50.0248 90.9528C48.2721 90.9528 46.5195 90.8527 44.817 90.6025C37.4559 89.6515 30.6958 86.7486 25.0874 82.4443C22.3332 80.2922 19.8796 77.8397 17.7263 75.087C13.3698 69.4814 10.4654 62.7246 9.56408 55.3672C9.36378 53.6655 9.26363 51.9638 9.26363 50.162C9.26363 48.4103 9.36378 46.6585 9.56408 44.9568C10.5155 37.5995 13.4199 30.8427 17.7263 25.2371C19.8295 22.4843 22.3332 20.0319 25.0874 17.8797C30.6958 13.5754 37.4559 10.6225 44.817 9.72159C46.5195 9.52139 48.2221 9.37124 50.0248 9.37124C51.7774 9.37124 53.53 9.47134 55.2326 9.72159C62.5936 10.6725 69.3538 13.5754 74.9622 17.8797C77.7163 20.0319 80.17 22.4843 82.3232 25.2371C86.6797 30.8427 89.5841 37.5995 90.4855 44.9568C90.6858 46.6585 90.836 48.3602 90.836 50.162C90.7859 51.9638 90.6858 53.7156 90.4855 55.3672Z" fill="#FEB700"/>
<path d="M90.4855 45.0065C89.5341 37.6491 86.6297 30.8924 82.3233 25.2868C80.2201 22.534 77.7164 20.0816 74.9622 17.9294C69.3538 13.6251 62.5937 10.6722 55.2326 9.77125C53.5301 9.57105 51.7774 9.4209 50.0248 9.4209C48.2722 9.4209 46.5196 9.521 44.817 9.77125C37.456 10.7222 30.6958 13.6251 25.0874 17.9294C22.3333 20.0816 19.8796 22.534 17.7264 25.2868C13.3698 30.8924 10.4655 37.6491 9.56412 45.0065C9.36382 46.7082 9.26367 48.4099 9.26367 50.2117C9.26367 51.9634 9.36382 53.7152 9.56412 55.4169C10.5155 62.8243 13.4199 69.5811 17.7264 75.1366C19.8295 77.8894 22.3333 80.3418 25.0874 82.494C30.6958 86.8483 37.456 89.7512 44.817 90.6521C46.5196 90.8523 48.2221 91.0025 50.0248 91.0025C51.7774 91.0025 53.5301 90.9024 55.2326 90.6521C62.5937 89.7012 69.3538 86.7983 74.9622 82.494C77.7164 80.3418 80.17 77.8894 82.3233 75.1366C86.6798 69.531 89.5842 62.7743 90.4855 55.4169C90.6858 53.7152 90.836 52.0135 90.836 50.2117C90.786 48.4599 90.6858 46.7082 90.4855 45.0065ZM86.7799 54.9164C85.9287 61.6231 83.2747 67.7793 79.3188 72.8343C77.4159 75.3368 75.1625 77.5891 72.6588 79.491C67.5511 83.4449 61.4419 86.0475 54.7319 86.9484C53.1795 87.1486 51.6272 87.2487 50.0248 87.2487C48.4224 87.2487 46.8701 87.1486 45.3178 86.9484C38.6077 86.0976 32.4485 83.4449 27.3909 79.491C24.8871 77.539 22.6337 75.3368 20.7309 72.8343C16.7749 67.7292 14.121 61.6231 13.2697 54.9164C13.0694 53.3648 12.9692 51.8133 12.9692 50.2117C12.9692 48.6101 13.0694 47.0585 13.2697 45.507C14.121 38.8003 16.7749 32.6441 20.7309 27.5891C22.6337 25.0866 24.8871 22.8343 27.3909 20.9324C32.4985 16.9785 38.6077 14.3759 45.3178 13.475C46.8701 13.2748 48.4224 13.1747 50.0248 13.1747C51.6272 13.1747 53.1795 13.2748 54.7319 13.475C61.4419 14.3258 67.6012 16.9785 72.6588 20.9324C75.1625 22.8844 77.4159 25.0866 79.3188 27.5891C83.2747 32.6942 85.8786 38.8003 86.7799 45.507C86.9802 47.0585 87.0804 48.6101 87.0804 50.2117C87.0804 51.8133 86.9802 53.3648 86.7799 54.9164Z" fill="#FFDB80"/>
<path d="M86.7804 45.5071C85.9292 38.8004 83.2752 32.6443 79.3193 27.5892C77.4164 25.0867 75.163 22.8345 72.6593 20.9326C67.5516 16.9786 61.4424 14.376 54.7324 13.4751C53.18 13.2749 51.6277 13.1748 50.0253 13.1748C48.4229 13.1748 46.8706 13.2749 45.3182 13.4751C38.6082 14.326 32.4489 16.9786 27.3914 20.9326C24.8876 22.8845 22.6342 25.0867 20.7314 27.5892C16.7754 32.6943 14.1215 38.8004 13.2702 45.5071C13.0699 47.0587 12.9697 48.6102 12.9697 50.2118C12.9697 51.8134 13.0699 53.365 13.2702 54.9165C14.1215 61.6233 16.7754 67.7794 20.7314 72.8345C22.6342 75.337 24.8876 77.5892 27.3914 79.4911C32.499 83.4451 38.6082 86.0477 45.3182 86.9486C46.8706 87.1488 48.4229 87.2489 50.0253 87.2489C51.6277 87.2489 53.18 87.1488 54.7324 86.9486C61.4424 86.0977 67.6017 83.4451 72.6593 79.4911C75.163 77.5392 77.4164 75.337 79.3193 72.8345C83.2752 67.7294 85.8791 61.6233 86.7804 54.9165C86.9807 53.365 87.0809 51.8134 87.0809 50.2118C87.0809 48.6102 86.9807 47.0587 86.7804 45.5071ZM55.0328 50.8625C54.9327 51.7634 54.5321 52.6142 54.0313 53.3149C53.7809 53.6653 53.4805 53.9656 53.13 54.2158C52.4289 54.7664 51.5776 55.1167 50.6763 55.2168C50.476 55.2168 50.2256 55.2669 50.0253 55.2669C49.825 55.2669 49.5746 55.2669 49.3743 55.2168C48.473 55.1167 47.6217 54.7163 46.9207 54.2158C46.5701 53.9656 46.2697 53.6653 46.0193 53.3149C45.4685 52.6142 45.1179 51.7634 45.0178 50.8625C44.9677 50.6623 44.9677 50.412 44.9677 50.2118C44.9677 50.0116 44.9677 49.7614 45.0178 49.5612C45.1179 48.6603 45.4685 47.8094 46.0193 47.1087C46.2697 46.7584 46.5701 46.4581 46.9207 46.2078C47.6217 45.6573 48.473 45.3069 49.3743 45.2068C49.5746 45.2068 49.825 45.1568 50.0253 45.1568C50.2256 45.1568 50.476 45.1568 50.6763 45.2068C51.5776 45.3069 52.4289 45.7073 53.13 46.2078C53.4805 46.4581 53.7809 46.7584 54.0313 47.1087C54.5821 47.8094 54.9327 48.6603 55.0328 49.5612C55.0328 49.7614 55.0829 50.0116 55.0829 50.2118C55.0829 50.412 55.0829 50.6122 55.0328 50.8625Z" fill="#FEB700"/>
</svg>
