<svg width="56" height="101" viewBox="0 0 56 101" fill="none" xmlns="http://www.w3.org/2000/svg">
<path d="M36.5493 8.71893H19.5353C19.0674 8.71893 18.6846 8.33612 18.6846 7.86823V1.91332C18.6846 0.977546 19.4502 0.211914 20.386 0.211914H35.6986C36.6344 0.211914 37.4 0.977546 37.4 1.91332V7.86823C37.4 8.33612 37.0172 8.71893 36.5493 8.71893Z" fill="#FEB700"/>
<path d="M36.6344 10.4199H19.3652L0.777344 26.7109V93.6186C0.777344 97.2766 3.92494 100.212 7.83817 100.212H48.1614C52.0747 100.212 55.2223 97.234 55.2223 93.6186V26.7109L36.6344 10.4199ZM52.2873 47.9359C52.2873 48.8716 51.5217 49.6373 50.5859 49.6373H45.2265C44.8437 49.6373 44.4609 49.5097 44.1631 49.2545C44.1206 49.2119 44.0355 49.1694 43.993 49.1269L43.7803 48.9142L28.893 35.8984C28.808 35.8559 28.7229 35.7708 28.6378 35.7283C28.5528 35.6432 28.4252 35.5582 28.3401 35.4306C28.1274 35.1328 27.9998 34.7925 27.9998 34.4097V14.801C27.9998 14.4608 28.1274 14.1205 28.2975 13.8653C28.5953 13.3974 29.1057 13.0996 29.7012 13.0996H35.1032C35.4434 13.0996 35.7837 13.1847 36.0389 13.3548C36.1665 13.4399 36.2941 13.5675 36.3792 13.6526L36.5068 13.7802L51.6918 27.0511C52.0747 27.3489 52.3299 27.8168 52.3299 28.3697V47.9359H52.2873Z" fill="#FEB700"/>
</svg>
