<svg width="56" height="101" viewBox="0 0 56 101" fill="none" xmlns="http://www.w3.org/2000/svg">
<path d="M36.6954 15.3861H19.3041C18.8259 15.3861 18.4346 14.9948 18.4346 14.5165V8.42956C18.4346 7.47304 19.2172 6.69043 20.1737 6.69043H35.8259C36.7824 6.69043 37.565 7.47304 37.565 8.42956V14.5165C37.565 14.9948 37.1737 15.3861 36.6954 15.3861Z" fill="#FEB700"/>
<path d="M37.2173 17.2988H19.1738L0.173828 32.951V92.9945C0.173828 96.9945 3.39122 100.212 7.39122 100.212H48.6086C52.6086 100.212 55.826 96.9945 55.826 92.9945V32.951L37.2173 17.2988ZM52.6521 81.0814H45.6956C44.739 81.0814 43.9564 80.2988 43.9564 79.3423V53.8206C43.9564 52.864 44.739 52.0814 45.6956 52.0814H52.6521V81.0814Z" fill="#FEB700"/>
<path d="M33.261 4.95104H22.6957C22.2175 4.95104 21.8262 4.55974 21.8262 4.08148V1.95104C21.8262 0.994523 22.6088 0.211914 23.5653 0.211914H32.3914C33.3479 0.211914 34.1305 0.994523 34.1305 1.95104V4.08148C34.1305 4.55974 33.7827 4.95104 33.261 4.95104Z" fill="#FEB700"/>
</svg>
