<svg width="102" height="49" viewBox="0 0 102 49" fill="none" xmlns="http://www.w3.org/2000/svg">
<path d="M95.6074 8.46698C95.6074 8.51158 95.6074 8.51158 95.6074 8.55618L87.1774 47.45V47.4946C87.0882 47.9407 86.6868 48.2975 86.1962 48.2975H15.9464C15.4111 48.2975 15.0543 47.9407 14.9651 47.4946V47.45L6.49054 8.55618C6.49054 8.51158 6.49054 8.51158 6.49054 8.46698C6.35673 7.88714 6.80276 7.2627 7.4718 7.2627H94.6261C95.2952 7.2627 95.7412 7.88714 95.6074 8.46698Z" fill="#21B860"/>
<path d="M101.004 4.36326C101.048 4.9431 100.602 5.47834 99.9777 5.47834H2.0294C1.36035 5.47834 0.91432 4.8539 1.00353 4.27406V4.22946V4.18485L1.71717 0.928831C1.85098 0.482801 2.20781 0.17058 2.69844 0.17058H17.9973C18.1311 0.125977 18.1757 0.125977 18.2649 0.125977H99.264C99.7992 0.125977 100.156 0.482801 100.29 0.928831V0.973434L101.004 4.18485V4.27406V4.36326Z" fill="#21B860"/>
</svg>
